<?xml version="1.0" encoding="iso-8859-1"?>
<!-- Generator: Adobe Illustrator 18.0.0, SVG Export Plug-In . SVG Version: 6.00 Build 0)  -->
<!DOCTYPE svg PUBLIC "-//W3C//DTD SVG 1.1//EN" "http://www.w3.org/Graphics/SVG/1.1/DTD/svg11.dtd">
<svg version="1.1" id="Capa_1" xmlns="http://www.w3.org/2000/svg" xmlns:xlink="http://www.w3.org/1999/xlink" x="0px" y="0px"
	 viewBox="0 0 433.756 433.756" style="enable-background:new 0 0 433.756 433.756;" xml:space="preserve">
<path d="M429.687,364.634l-9.124-5.426c-4.522-2.69-7.758-6.971-9.11-12.056c-1.073-4.03-4.074-7.223-8.029-8.542l-14.855-4.954
	c-4.412-1.472-7.975-4.775-9.773-9.064c-3.688-8.795-9.166-21.805-14.324-33.841c-5.503-12.842-15.806-23.278-23.479-29.771
	c-2.964-2.509-5.153-5.849-6.273-9.524c5.623-6.003,27.937-31.788,18.109-53.24c-4.507-9.825-13.375-17.664-25.644-22.667
	c-6.415-2.616-12.14-3.816-15.09-4.312c-17.246-68.344-42.94-90.459-68.169-104.124c-9.938-5.383-40.557-16.499-71.773-16.499
	c-23.667,0-42.203,6.363-55.094,18.913c-16.707,16.272-19.129,32.627-17.416,44.857c-6.308,12.784-35.231,71.569-49.024,102.606
	c-1.762,3.965-4.004,7.574-6.665,10.726c-21.259,25.184-23.837,50.686-25.908,71.178c-0.609,6.026-1.185,11.719-2.2,16.596
	c-1.828,8.775-6.632,19.522-13.893,31.079c-2.498,3.977-2.606,8.975-0.283,13.044c2.285,4,6.353,6.357,10.927,6.357
	c0.124,0,0.248-0.002,0.372-0.005l68.277-1.668c3.491-0.086,6.271-2.56,6.76-6.019c0.489-3.458-1.496-6.605-4.827-7.655
	l-31.385-9.888c-6.296-1.984-10.082-8.583-8.618-15.023c3.256-14.324,10.312-40.49,20.977-54.791
	c3.482-4.671,6.121-9.658,7.842-14.822c1.566-4.697,4.206-9.067,7.635-12.639l59.964-62.463
	c14.794,21.102,31.949,46.026,41.691,61.722c3.167,34.348,36.683,75.611,56.478,97.244c6.421,7.009,9.291,16.401,7.878,25.745
	c-0.117,0.737-0.177,1.511-0.177,2.298c0,8.25,6.722,14.963,14.984,14.963l71.83,0.176c0.003,0,0.016,0,0.018,0
	c2.414,0,4.643-1.311,5.815-3.423c1.172-2.111,1.108-4.696-0.167-6.745c-0.175-0.281-0.36-0.564-0.558-0.853
	c-2.986-4.371-7.271-7.837-12.39-10.023c-44.802-19.133-62.78-46.024-68.431-56.698c-6.69-12.627-12.111-22.926-16.515-31.299
	c-5.735-10.931-10.332-19.765-13.662-26.257c-2.674-5.213-3.966-11.087-3.736-16.987c0.107-2.778-0.016-5.504-0.367-8.104
	c-0.004-0.037-0.009-0.073-0.014-0.11c-0.779-5.664-2.616-10.685-5.458-14.924c-2.155-3.213-3.307-6.735-3.33-10.185
	c-0.126-18.065-5.554-42.471-13.955-56.988c9.465,3.581,16.48,9.322,34.384,31.523c1.347,1.676,2.787,3.351,4.404,5.122
	c9.487,10.379,21.043,19.23,31.393,26.079c-2.847,5.96-9.882,21.873-11.857,37.415c-1.326,10.442,5.258,20.169,15.315,22.627
	c4.705,1.149,9.687,1.723,14.913,1.723c4.853,0,9.92-0.497,15.167-1.487c1.794,3.959,3.32,7.072,4.668,9.524
	c0.502,0.915,0.896,1.844,1.172,2.764c2.075,6.93,11.392,27.192,52.975,65.578c2.099,1.938,4.067,4.036,5.853,6.237l13.554,16.718
	c7.785,9.604,19.34,15.244,31.702,15.475l12.119,0.225l0.169,0.001c0.001,0,0.001,0,0.002,0c3.775,0,6.985-2.453,7.989-6.103
	C434.453,370.32,432.941,366.569,429.687,364.634z M347.373,200.715c7.094,15.485-7.258,35.216-14.393,43.634
	c-0.549-2.121-1.129-4.18-1.74-6.149c-2.149-6.92-3.175-14.065-3.049-21.237c0.215-12.266-5.198-23.049-11.468-35.534
	c-0.571-1.137-1.152-2.299-1.733-3.467C323.814,180.062,340.573,185.89,347.373,200.715z M121.245,73.824
	c8.951-8.713,21.052-14.139,36.075-16.226c3.692,5.922,29.273,47.849,31.224,75.418c-18.393,8.467-40.032,14.541-72.323,4.818
	C112.319,133.071,90.589,103.681,121.245,73.824z M75.3,239.303c-4.041,4.21-7.152,9.361-8.998,14.896
	c-1.52,4.557-3.86,8.975-6.961,13.132c-10.758,14.427-17.911,38.986-22.018,57.048c-2.15,9.463,3.414,19.16,12.667,22.076
	l31.385,9.888c0.536,0.169,0.768,0.537,0.689,1.093c-0.079,0.557-0.403,0.846-0.966,0.86l-68.287,1.668
	c-2.489,0.077-4.703-1.175-5.933-3.329c-1.242-2.175-1.185-4.747,0.153-6.877c7.745-12.328,12.686-23.446,14.686-33.046
	c1.081-5.184,1.671-11.028,2.297-17.216c1.988-19.668,4.462-44.146,24.523-67.911c3.027-3.585,5.572-7.677,7.563-12.16
	c12.953-29.145,37.867-80.089,45.679-95.993c3.526,10.685,9.449,17.819,10.377,18.892c1.036,1.44,11.252,15.657,23.921,33.668
	L75.3,239.303z M207.483,197.576c0.032,4.629,1.535,9.292,4.346,13.484c2.316,3.454,3.825,7.596,4.486,12.312
	c0.004,0.034,0.008,0.069,0.013,0.103c0.314,2.282,0.424,4.688,0.328,7.15c-0.269,6.928,1.25,13.83,4.395,19.958
	c3.338,6.508,7.943,15.359,13.689,26.309c4.406,8.38,9.831,18.685,16.523,31.317c5.949,11.237,24.813,39.522,71.376,59.407
	c4.066,1.737,7.453,4.465,9.791,7.887c0.146,0.214,0.57,0.855,0.435,1.304c-0.051,0.168-0.254,0.336-0.57,0.336h-0.002
	l-71.846-0.176c-4.954,0-8.984-4.021-8.984-8.963c0-0.472,0.034-0.928,0.105-1.378c1.689-11.169-1.731-22.365-9.382-30.717
	c-15.63-17.082-52.278-60.475-54.984-94.401c-0.037-0.474-0.188-0.933-0.438-1.338c-15.738-25.474-51.734-76.178-64.89-94.588
	c9.438,2.291,17.987,3.281,25.816,3.28c17.126,0,30.863-4.654,43.214-10.331C200.579,150.077,207.348,178.183,207.483,197.576z
	 M274.591,257.484c-7.091-1.733-11.728-8.629-10.787-16.042c1.776-13.977,8.131-28.754,11.001-34.892
	c2.149,1.343,4.224,2.599,6.171,3.737c3.495,8.151,19.555,47.095,19.776,47.607C291.235,259.532,282.449,259.402,274.591,257.484z
	 M427.664,372.377c-0.109,0.397-0.591,1.693-2.262,1.693c-0.001,0-0.001,0-0.002,0l-12.119-0.225
	c-10.588-0.197-20.484-5.028-27.153-13.254l-13.554-16.718c-1.965-2.424-4.133-4.735-6.442-6.868
	c-41.631-38.429-49.788-57.853-51.297-62.891c-0.396-1.324-0.956-2.647-1.662-3.932c-1.952-3.553-4.429-8.849-7.572-16.193
	c-2.707-6.314-5.632-13.476-8.73-21.059c-3.504-8.577-7.126-17.446-10.774-25.923c-9.493-22.061-16.186-34.357-21.698-39.87
	c-1.172-1.172-3.07-1.172-4.242,0c-1.172,1.171-1.172,3.071,0,4.242c5.095,5.095,11.388,17.713,16.616,29.324
	c-10.903-6.908-23.767-16.332-34.028-27.558c-1.531-1.676-2.891-3.256-4.16-4.836c-22.088-27.39-28.478-31.012-44.06-35.7
	c-1.936-27.363-24.318-65.577-30.531-75.714c2.64-0.186,5.359-0.282,8.159-0.282c29.774,0,59.792,10.833,68.915,15.774
	c24.258,13.14,49.005,34.62,65.693,102.245c0.049,0.196,0.117,0.387,0.204,0.57c1.468,3.087,2.957,6.052,4.397,8.92
	c5.913,11.777,11.02,21.948,10.829,32.736c-0.137,7.811,0.979,15.591,3.318,23.122c1.087,3.499,2.079,7.286,2.951,11.257
	c1.217,5.542,4.291,10.629,8.655,14.322c5.878,4.974,16.531,15.169,21.839,27.555c5.151,12.019,10.623,25.013,14.307,33.798
	c2.467,5.885,7.353,10.418,13.407,12.436l14.855,4.954c2.034,0.679,3.577,2.321,4.129,4.393c1.758,6.61,5.964,12.175,11.843,15.671
	l9.124,5.426C428.02,370.623,427.773,371.981,427.664,372.377z"/>
<g>
</g>
<g>
</g>
<g>
</g>
<g>
</g>
<g>
</g>
<g>
</g>
<g>
</g>
<g>
</g>
<g>
</g>
<g>
</g>
<g>
</g>
<g>
</g>
<g>
</g>
<g>
</g>
<g>
</g>
</svg>
