<?xml version="1.0" encoding="iso-8859-1"?>
<!-- Generator: Adobe Illustrator 18.0.0, SVG Export Plug-In . SVG Version: 6.00 Build 0)  -->
<!DOCTYPE svg PUBLIC "-//W3C//DTD SVG 1.1//EN" "http://www.w3.org/Graphics/SVG/1.1/DTD/svg11.dtd">
<svg version="1.1" id="Capa_1" xmlns="http://www.w3.org/2000/svg" xmlns:xlink="http://www.w3.org/1999/xlink" x="0px" y="0px"
	 viewBox="0 0 392.938 392.938" style="enable-background:new 0 0 392.938 392.938;" xml:space="preserve">
<path d="M270.656,53.228c-14.1-24.599-34.709-42.029-58.033-49.081C203.52,1.395,195.283,0,188.139,0
	c-31.029,0-39.67,25.04-45.861,50.688c-8.608,35.666,5.349,137.672,5.494,138.686c1.717,12.019-2.278,25.016-3.742,29.23
	l-20.431,5.209c-13.646,3.477-22.207,17.021-19.492,30.835c5.477,27.863,15.129,76.231,18.236,87.106
	c2.356,8.247,4.408,21.8,5.713,31.718c1.461,11.099,10.984,19.468,22.15,19.468c0.197,0,0.396-0.003,0.592-0.008
	c6.684-0.174,23.103-1.316,27.673-1.333c12.553-0.046,34-0.124,34-0.124h10.555c4.369,0,8.175-2.842,9.469-7.072
	c1.266-4.135-0.2-8.347-3.731-10.731c-0.251-0.169-0.513-0.33-0.793-0.486c-3.443-1.92-9.105-3.508-15.661-5.346
	c-11.055-3.101-27.743-7.78-28.389-14.542l-1.23-38.973c10.595,16.276,24.505,22.158,36.743,22.156c4.007,0,7.837-0.63,11.31-1.733
	c16.248-5.149,40.349-26.063,35.848-60.257c-1.276-9.769-3.2-18.623-5.712-26.384c23.647-18.465,25.268-53.738,27.097-93.946
	c0.319-7.005,0.648-14.249,1.099-21.602C290.757,105.06,284.216,76.887,270.656,53.228z M188.139,6
	c6.555,0,14.209,1.309,22.748,3.891c14.339,4.334,27.613,12.908,38.813,24.865c-3.677,33.622-21.032,42.788-27.872,45.106
	l-6.024-29.623c-0.33-1.623-1.914-2.67-3.537-2.342c-1.624,0.33-2.672,1.914-2.342,3.537l6.588,32.397
	c-0.044,1.839-0.314,11.448-1.346,23.653c-46.344-9.381-64.342-50.079-66.834-56.291C155.344,22.558,164.219,6,188.139,6z
	 M146.544,61.541c2.608,4.943,6.535,11.397,12.083,18.154c10.303,12.548,28.284,28.387,55.985,33.802
	c-1.82,18.204-5.332,39.915-12.05,50.554c-11.322,17.926-10.435,41.459-9.664,49.916l-42.261,3.755
	c1.906-6.207,4.691-17.876,3.074-29.197C150.959,169.264,142.593,97.048,146.544,61.541z M210.688,373.614
	c5.933,1.663,11.535,3.234,14.353,4.805c0.125,0.07,0.246,0.143,0.363,0.223c1.982,1.338,1.536,3.402,1.353,4.003
	c-0.418,1.367-1.618,2.828-3.731,2.828H212.46l-37.811,0.138c0.378-7.368-6.864-20.894-19.113-40.935
	c-1.995-3.264-3.717-6.081-4.331-7.309c-2.158-4.315-7.322-37.977-10.377-60.263c5.8-0.492,18.943-1.723,34.56-3.924l2.536,80.387
	c0.002,0.049,0.004,0.098,0.008,0.146C178.816,364.676,195.749,369.424,210.688,373.614z M260.641,275.27
	c4.173,31.7-19.563,49.907-31.712,53.758c-3.404,1.08-6.681,1.574-9.819,1.573c-17.144-0.002-30.124-14.738-36.606-29.194
	c-0.066-0.146-0.15-0.278-0.235-0.408l-0.905-28.692c31.85-4.827,55.591-11.068,70.558-18.552c1.318-0.659,2.567-1.369,3.786-2.103
	C257.847,258.655,259.506,266.572,260.641,275.27z M283.086,132.189c-0.453,7.401-0.784,14.669-1.103,21.697
	c-2.032,44.668-3.637,79.948-32.743,94.501c-34.554,17.278-111.253,22.932-112.024,22.987c-0.826,0.059-1.591,0.457-2.113,1.1
	c-0.523,0.642-0.756,1.472-0.646,2.293c0.802,5.955,7.931,58.38,11.383,65.283c0.727,1.455,2.342,4.097,4.577,7.754
	c3.855,6.308,9.136,14.947,13.086,22.805c5.535,11.01,5.312,14.36,5.124,15.112c-5.601,0.638-11.647,1.045-17.985,1.21
	c-8.34,0.247-15.548-5.978-16.638-14.245c-1.332-10.118-3.436-23.984-5.892-32.583c-3.047-10.663-12.659-58.844-18.118-86.615
	c-2.101-10.689,4.525-21.171,15.087-23.862l11.234-2.864c6.987-1.781,14.105-2.997,21.287-3.635l38.888-3.456
	c0.823-0.073,1.579-0.482,2.09-1.131c0.512-0.649,0.732-1.48,0.611-2.297c-0.042-0.289-4.128-29.082,8.443-48.989
	c12.259-19.41,14.474-69.709,14.825-81.309c7.093-2.069,26.943-10.867,32.488-45.14c3.81,4.724,7.33,9.87,10.503,15.407
	C278.435,78.866,284.698,105.849,283.086,132.189z"/>
<g>
</g>
<g>
</g>
<g>
</g>
<g>
</g>
<g>
</g>
<g>
</g>
<g>
</g>
<g>
</g>
<g>
</g>
<g>
</g>
<g>
</g>
<g>
</g>
<g>
</g>
<g>
</g>
<g>
</g>
</svg>
