<?xml version="1.0" encoding="iso-8859-1"?>
<!-- Generator: Adobe Illustrator 18.0.0, SVG Export Plug-In . SVG Version: 6.00 Build 0)  -->
<!DOCTYPE svg PUBLIC "-//W3C//DTD SVG 1.1//EN" "http://www.w3.org/Graphics/SVG/1.1/DTD/svg11.dtd">
<svg version="1.1" id="Capa_1" xmlns="http://www.w3.org/2000/svg" xmlns:xlink="http://www.w3.org/1999/xlink" x="0px" y="0px"
	 viewBox="0 0 392.775 392.775" style="enable-background:new 0 0 392.775 392.775;" xml:space="preserve">
<path d="M361.83,168.018c10.002,0.375,18.537-6.807,19.825-16.768c1.808-13.989,6.736-30.419,9.384-39.245
	c2.055-6.848,2.288-17.554,0.692-31.82c-0.395-3.531-2.871-6.381-6.309-7.261c-2.134-0.547-4.308-0.246-6.138,0.755
	c-2.383-2.284-5.651-3.454-9.041-3.118c-4.364,0.425-8.05,3.232-9.62,7.326l-15.383,40.129c-3.423,4.068-6.002,6.762-7.602,7.905
	c-6.773,4.838-70.562,14.332-110.35,19.347c-0.043-6.698-2.385-13.327-6.873-18.607l-6.324-7.439
	c-0.212-0.25-0.43-0.489-0.655-0.719c-2.344-2.39-5.481-3.706-8.833-3.706c-5.497,0-10.432,3.474-12.28,8.644l-2.763,7.73
	c-3.451,0.544-6.351,2.105-8.628,4.685c-6.055,6.863-5.349,18.605-5.249,19.925c0.044,2.053,0.732,47.267-19.996,58.927
	c-16.188,9.105-26.085,29.822-30.896,42.659h-11.676l1.167-1.089c3.98-3.716,5.576-9.088,4.267-14.371
	c-1.309-5.284-5.229-9.292-10.486-10.721c-31.904-8.663-87.695-17.851-102.89,17.965c-7.106,16.75-6.889,31.533,0.644,43.941
	c10.561,17.396,32.421,24.258,39.189,24.79c20.611,1.615,33.942-5.253,46.834-11.896c4.509-2.322,9.68-3.367,14.975-3.006
	c0.247,0.017,0.49,0.029,0.729,0.039c5.248,0.217,10.275,1.8,14.537,4.578c9.434,6.151,24.145,13.676,40.65,14.592
	c0.997,0.056,2.024,0.082,3.082,0.082c14.218,0,33.736-4.804,51.098-9.076c15.494-3.813,30.122-7.413,37.567-6.795
	c0.877,0.073,87.989,7.058,108.631-15.302c12.354-13.385,23.022-39.365,18.458-61.151c-3.186-15.21-13.389-26.977-29.504-34.026
	c-24.546-10.739-39.44-15.807-48.071-18.2c19.497-6.423,35.947-9.945,38.505-10.476L361.83,168.018z M366.224,80.036
	c0.762-1.987,2.48-3.297,4.599-3.503c1.657-0.162,3.196,0.394,4.331,1.5c-6.445,9.14-12.27,17.18-17.344,23.952L366.224,80.036z
	 M197.972,125.459c1.151-3.221,4.16-4.663,6.63-4.663c1.222,0,3.003,0.331,4.549,1.907c0.123,0.126,0.243,0.256,0.363,0.398
	l6.329,7.445c5.787,6.808,7.095,16.443,3.332,24.547l-6.766,14.572c-0.847,1.825-2.629,2.958-4.65,2.958
	c-1.352,0-2.628-0.531-3.594-1.497l-2.706-2.706c-4.475-4.475-7.143-10.418-7.515-16.733l-0.755-12.848L197.972,125.459z
	 M254.974,300.421c-8.416-0.704-22.82,2.843-39.499,6.947c-18.245,4.49-38.921,9.584-52.413,8.83
	c-15.183-0.844-28.885-7.876-37.706-13.627c-5.166-3.368-11.241-5.287-17.568-5.547c-0.19-0.008-0.383-0.018-0.575-0.031
	c-6.376-0.432-12.643,0.835-18.123,3.658c-12.146,6.259-24.707,12.738-43.617,11.247c-5.711-0.448-25.299-6.715-34.53-21.921
	c-6.474-10.665-6.558-23.613-0.249-38.484c5.821-13.72,19.684-21.148,41.205-22.078c19.077-0.818,40.214,3.657,54.588,7.561
	c3.126,0.849,5.456,3.232,6.235,6.373c0.778,3.14-0.17,6.333-2.537,8.541l-6.732,6.282c-0.901,0.841-1.196,2.147-0.744,3.293
	c0.452,1.147,1.559,1.9,2.791,1.9h17.193c-0.884,2.742-1.361,4.533-1.444,4.856c-0.416,1.604,0.547,3.24,2.15,3.656
	c0.253,0.065,0.506,0.097,0.756,0.097c1.333,0,2.551-0.895,2.902-2.246c0.098-0.375,10.006-37.664,31.568-49.794
	c24.259-13.645,23.111-62.334,23.05-64.399c-0.002-0.055-0.005-0.113-0.009-0.168c-0.009-0.104-0.814-10.372,3.771-15.554
	c0.523-0.591,1.104-1.08,1.734-1.486c-0.002,0.085-0.016,0.169-0.01,0.254l0.792,13.459c0.458,7.784,3.747,15.108,9.262,20.623
	l2.706,2.706c2.099,2.099,4.881,3.255,7.836,3.255c0,0,0.001,0,0.001,0c2.008,0,3.905-0.523,5.552-1.465
	c-4.259,33.301-20.044,56.343-28.917,69.297c-0.908,1.325-1.739,2.538-2.471,3.637c-9.86,14.789-1.424,23.509-1.061,23.873
	c0.586,0.586,1.354,0.879,2.122,0.879c0.768,0,1.536-0.293,2.121-0.879c1.172-1.171,1.172-3.07,0-4.242
	c-0.055-0.055-5.352-5.561,1.81-16.303c0.72-1.08,1.537-2.271,2.429-3.574c3.063-4.471,6.922-10.111,10.868-16.922
	c10.112,6.035,47.656,27.16,82.608,30.286c5.839,13.053,17.637,29.797,23.41,37.663
	C285.952,302.085,265.448,301.294,254.974,300.421z M375.693,231.176c4.152,19.82-5.657,43.569-16.995,55.852
	c-7.223,7.824-25.605,11.66-45.371,13.338c-3.905-5.208-18.615-25.227-25.058-39.668c8.722-12.615,24.572-25.215,46.009-36.524
	c13.623-7.186,25.692-11.834,29.966-13.403C370.162,216.31,374.006,223.125,375.693,231.176z M293.421,181.581
	c0.477,0.014,12.178,0.561,56.236,19.836c3.353,1.467,6.385,3.141,9.122,5c-5.808,2.249-15.895,6.442-27.216,12.408
	c-22.623,11.922-38.811,24.839-48.194,38.412c-33.478-3-70.738-23.938-80.229-29.563c4.708-8.82,9.285-19.33,12.544-31.542
	c2.356,0.509,8.667,1.661,17.489,1.661c11.228,0,26.52-1.868,42.882-9.305c5.573-2.533,11.297-4.842,16.94-6.928
	C293.14,181.568,293.284,181.577,293.421,181.581z M341.662,161.291c-0.362,0.072-36.574,7.408-68.09,21.732
	c-27.045,12.294-51.509,8.275-56.465,7.267c1.587-7.183,2.695-14.907,3.106-23.185l4.403-9.484c0.936-2.015,1.613-4.107,2.057-6.23
	c11.819-1.48,104.167-13.243,114.45-20.588c7.088-5.063,25.768-30.581,40.191-51.097c0.907-1.291,2.233-1.067,2.618-0.971
	c0.386,0.1,1.659,0.544,1.835,2.115c1.484,13.27,1.319,23.446-0.476,29.43c-2.697,8.991-7.717,25.726-9.587,40.2
	c-0.887,6.855-6.756,11.82-13.634,11.541l-19.7-0.788C342.133,161.227,341.895,161.244,341.662,161.291z"/>
<g>
</g>
<g>
</g>
<g>
</g>
<g>
</g>
<g>
</g>
<g>
</g>
<g>
</g>
<g>
</g>
<g>
</g>
<g>
</g>
<g>
</g>
<g>
</g>
<g>
</g>
<g>
</g>
<g>
</g>
</svg>
