<?xml version="1.0" encoding="iso-8859-1"?>
<!-- Generator: Adobe Illustrator 18.0.0, SVG Export Plug-In . SVG Version: 6.00 Build 0)  -->
<!DOCTYPE svg PUBLIC "-//W3C//DTD SVG 1.1//EN" "http://www.w3.org/Graphics/SVG/1.1/DTD/svg11.dtd">
<svg version="1.1" id="Capa_1" xmlns="http://www.w3.org/2000/svg" xmlns:xlink="http://www.w3.org/1999/xlink" x="0px" y="0px"
	 viewBox="0 0 396.881 396.881" style="enable-background:new 0 0 396.881 396.881;" xml:space="preserve">
<path d="M351.123,72.395c-8.126-17.606-48.181-64.744-94.543-71.562c-41.502-6.104-68.427,23.098-74.197,30.065
	c-7.005-0.882-32.52-2.817-48.293,12.955c-14.445,14.445-9.386,40.279-6.355,51.236l-34.021-7.703
	c-5.034-1.14-9.84-3.314-14.034-6.327l-4.493-21.312c-0.008-0.035-0.016-0.071-0.024-0.106c-0.79-3.166-3.403-5.36-6.659-5.589
	c-3.251-0.224-6.141,1.575-7.361,4.59l-3.156,7.754l-9.571,1.66c-5.778,1.002-10.398,5.545-11.496,11.307l-0.88,4.623
	c-0.93,4.883,0.154,9.796,3.054,13.833c1.226,1.708,2.717,3.14,4.387,4.296l-6.576,16.171c-1.459,3.606-1.066,7.706,1.052,10.967
	c2.11,3.25,5.679,5.269,9.548,5.4c9.923,0.336,20.128,1.331,29.532,2.879c72.112,26.868,105.604,12.057,111.318,8.998l48.287,1.605
	c11.316,0.383,22.576,1.703,33.635,3.896c0.072,10.733,0.946,70.014,11.443,95.274c1.08,2.598,1.54,5.232,1.369,7.83
	c-0.485,7.352-0.889,16.097-1.318,25.356c-1.401,30.295-3.52,76.078-10.476,82.165c-4.402,3.852-14.855,7.849-24.077,11.375
	c-15.745,6.02-24.704,9.706-25.668,15.419c-0.176,1.046,0.197,2.09,1.003,2.781c3.611,3.098,13.55,4.65,29.677,4.65
	c9.91,0,22.16-0.587,36.707-1.761c3.459-0.279,6.574-1.941,8.738-4.669c2.09-2.634,2.93-6.05,2.578-9.394l-1.327-12.605
	c-0.112-1.068,0.078-2.139,0.555-3.101c2.512-5.059,8.72-18.025,14.273-33.289c9.685-26.619,12.888-47.262,9.523-61.354
	c-2.186-9.151-2.21-18.057-0.07-26.469c6.8-26.735,13.657-64.028,14.022-88.471c2.758-1.226,5.365-2.749,7.758-4.638
	C374.617,127.737,355.297,81.438,351.123,72.395z M68.084,60.038c0.371,0.026,1.022,0.193,1.246,1.014l2.967,14.075l-8.543-6.983
	l2.949-7.245C67.03,60.089,67.705,60.007,68.084,60.038z M41.934,85.109l0.88-4.623c0.633-3.321,3.296-5.94,6.626-6.518l9.866-1.71
	l14.69,12.006c5.326,4.354,11.687,7.457,18.395,8.975l60.286,13.65c0.988,0.223,2.026-0.067,2.754-0.775
	c1.835-1.784,45.032-44.005,53.476-69.749c0.517-1.574-0.341-3.269-1.915-3.785c-1.575-0.517-3.27,0.34-3.786,1.916
	c-7.252,22.107-43.817,59.223-50.806,66.179l-17.947-4.063c-2.152-6.831-9.827-34.807,3.88-48.515
	c15.807-15.806,44.524-11.075,44.811-11.026c1.111,0.188,2.237-0.253,2.914-1.156c0.266-0.354,27.099-35.405,69.65-29.145
	c40.838,6.006,77.729,46.535,88.261,64.877l-60.62,14.845c-4.741,0.32-10.23,0.794-16.511,1.592
	c-9.953-11.077-31.281-12.749-42.166-12.836c0.271-0.325,0.543-0.661,0.813-0.982c19.672-23.36,39.383-22.673,39.703-22.66
	c1.658,0.083,3.067-1.157,3.17-2.808c0.103-1.654-1.153-3.078-2.807-3.182c-0.914-0.059-22.844-1.116-44.656,24.784
	c-7.455,8.853-14.988,19.061-22.272,28.932c-12.258,16.609-24.933,33.784-31.735,36.052c-5.923,1.967-41.182-10.565-87.731-31.204
	c-2.721-1.205-5.6-2.023-8.56-2.433l-18.552-2.559c-3.278-0.452-6.146-2.182-8.076-4.869C42.036,91.63,41.314,88.36,41.934,85.109z
	 M219.736,81.325c2.793-0.106,9.788-0.224,17.546,0.762c7.002,0.89,15.754,2.848,21.772,7.1
	c-14.734,2.306-33.178,6.414-55.827,14.008C203.301,103.094,214.278,88.224,219.736,81.325z M187.71,140.505
	c-0.586-0.015-1.18,0.142-1.681,0.448c-0.078,0.048-7.989,4.793-25.024,6.047c-28.638,2.103-60.477-7.099-82.142-15.191
	c-0.181-0.067-0.368-0.117-0.558-0.148c-9.876-1.641-20.17-2.651-30.596-3.004c-1.94-0.066-3.661-1.04-4.72-2.673
	c-1.068-1.644-1.258-3.629-0.524-5.443l6.464-15.895c0.75,0.204,1.511,0.378,2.296,0.486l18.551,2.559
	c2.403,0.332,4.742,0.997,6.949,1.975c7.76,3.44,27.896,12.245,47.223,19.672c26.831,10.311,37.196,12.217,41.674,12.217
	c1.729,0,2.58-0.284,3.163-0.479c7.229-2.409,16.91-14.346,28.113-29.338c40.376-14.429,68.053-17.924,85.678-19.178
	c8.322,9.972,18.012,43.926,22.207,60.763c-6.572-0.785-13.028-2.199-18.79-3.776c-15.968-4.352-32.504-6.843-49.149-7.405
	L187.71,140.505z M317.392,242.76c-2.382,9.362-2.365,19.234,0.049,29.342c7.43,31.11-24.106,92.131-24.426,92.744
	c-0.273,0.522-0.385,1.114-0.323,1.701l1.632,15.508c0.202,1.925-0.447,3.798-1.82,5.199c-1.123,1.146-2.685,1.776-4.284,1.904
	c-34.452,2.77-52.681,1.725-59.314-0.323c3.773-2.821,13.927-6.704,20.454-9.199c10.165-3.887,20.676-7.906,25.885-12.464
	c8.244-7.213,10.389-40.361,12.518-86.403c0.427-9.229,0.831-17.945,1.311-25.238c0.233-3.527-0.378-7.068-1.815-10.527
	c-9.578-23.045-10.81-78.441-10.968-91.686c2.72,0.624,5.43,1.282,8.118,2.015c9.153,2.505,19.976,4.605,30.538,4.605
	c5.578,0,11.082-0.589,16.229-2.01C330.459,181.867,323.9,217.173,317.392,242.76z M341.269,146.419
	c-7.988,6.304-18.986,8.009-30.176,7.447c-2.325-9.502-11.993-47.345-22.056-62.592l57.638-14.115
	C351.813,89.122,365.531,127.265,341.269,146.419z"/>
<g>
</g>
<g>
</g>
<g>
</g>
<g>
</g>
<g>
</g>
<g>
</g>
<g>
</g>
<g>
</g>
<g>
</g>
<g>
</g>
<g>
</g>
<g>
</g>
<g>
</g>
<g>
</g>
<g>
</g>
</svg>
