<?xml version="1.0" encoding="iso-8859-1"?>
<!-- Generator: Adobe Illustrator 18.0.0, SVG Export Plug-In . SVG Version: 6.00 Build 0)  -->
<!DOCTYPE svg PUBLIC "-//W3C//DTD SVG 1.1//EN" "http://www.w3.org/Graphics/SVG/1.1/DTD/svg11.dtd">
<svg version="1.1" id="Capa_1" xmlns="http://www.w3.org/2000/svg" xmlns:xlink="http://www.w3.org/1999/xlink" x="0px" y="0px"
	 viewBox="0 0 377.583 377.583" style="enable-background:new 0 0 377.583 377.583;" xml:space="preserve">
<path d="M372.979,34.668c-2.841-0.762-5.687,0.46-7.084,3.048c-9.395,17.398-26.277,48.27-33.793,59.544
	c-2.302,3.453-14.239,15.926-57.972,55.698c-3.68,0.853-7.419,1.939-11.124,3.23c-17.425,6.07-27.543,4.77-41.546,2.969
	c-3.297-0.424-6.707-0.862-10.499-1.247c-23.443-2.374-64.136,3.939-78.474,7.85c-12.045,3.285-45.63-2.836-54.894-4.634v-11.849
	l7.66-3.83c6.974-3.488,10.534-11.46,8.464-18.955c-5.426-19.648-17.674-53.24-38.743-57.453
	c-12.242-2.449-24.564,0.255-34.697,7.614C9.281,84.639,1.78,97.366,0.212,110.699c-1.381,11.742,4.047,24.001,14.52,32.79
	c7.337,6.156,15.584,9.332,22.364,8.773c1.186,10.986-3.155,26.87-6.701,39.842l-0.459,1.682c-0.043,0.16-0.074,0.324-0.09,0.49
	c-2.104,21.037,16.147,43.734,39.254,72.47c8.41,10.459,17.106,21.273,25.978,33.339c25.393,34.534,46.626,43.055,65.025,43.054
	c6.958,0,13.514-1.22,19.731-2.712c17.869-4.288,39.814-36.884,63.047-71.393c7.744-11.503,15.752-23.397,23.631-34.257
	c2.393-3.298,5.528-6.177,9.317-8.556c15.723-9.874,31.881-27.116,48.032-51.233c3.77-1.713,6.132-3.89,6.989-6.493
	c0.471-1.43,0.458-2.909-0.009-4.358c13.124-21.235,22.138-40.642,24.658-46.244c12-1.711,20.825-12.079,20.42-24.394l1.662-52.624
	C377.672,37.929,375.823,35.435,372.979,34.668z M178.433,334.592c-18.475,4.435-38.565,6.074-64.334-20.951
	c1.453-7.637,9.889-43.584,41.609-57.173l2.799,3.344c0.518,0.621,1.264,1.007,2.07,1.07c0.079,0.006,0.157,0.009,0.235,0.009
	c0.725,0,1.428-0.263,1.977-0.743c0.077-0.068,1.699-1.489,4.532-3.978c7.362,21.254,27.389,52.321,33.176,61.082
	C192.357,326.573,184.83,333.057,178.433,334.592z M161.147,253.608l-36.371-43.645c24.954-4.73,47.375-10.401,50.08-11.091
	l56.644-7.553C199.279,220.1,169.496,246.279,161.147,253.608z M272.637,221.139c-4.442,2.789-8.137,6.192-10.983,10.114
	c-7.941,10.945-15.979,22.884-23.751,34.429c-11.276,16.749-22.751,33.788-33.366,46.779c-6.937-10.632-26.407-41.408-32.315-60.598
	c13.931-12.254,41.442-36.521,69.856-61.953l4.378-0.579c4.787-0.637,9.594-1.957,14.285-3.924
	c4.518-1.885,15.498-5.174,38.266-6.021c6.015-0.222,11.248-0.77,15.669-1.634C300.422,197.968,286.302,212.559,272.637,221.139z
	 M325.15,166.618c-0.255,0.773-1.555,2.022-4.438,3.21c-3.355,1.38-9.883,3.118-21.926,3.562
	c-22.526,0.839-34.378,3.987-40.359,6.482c-4.207,1.763-8.5,2.944-12.759,3.512l-71.781,9.564c-0.117,0.016-0.234,0.038-0.349,0.067
	c-0.737,0.188-74.016,18.851-105.545,17.423c-1.659-0.064-3.059,1.204-3.134,2.859c-0.076,1.655,1.205,3.059,2.86,3.135
	c1.262,0.058,2.583,0.085,3.958,0.085c12.557,0,29.568-2.319,46.166-5.278l33.855,40.441c-29.233,13.42-39.442,43.484-42.572,56.47
	c-2.994-3.475-6.063-7.334-9.215-11.62c-8.949-12.17-18.08-23.525-26.136-33.544c-22.151-27.547-39.667-49.328-37.983-67.869
	l0.391-1.431c4.04-14.778,9.066-33.17,6.312-45.566c-0.181-0.814-0.692-1.516-1.411-1.938c-0.72-0.422-1.581-0.526-2.38-0.285
	c-5.183,1.551-13.268-1.259-20.114-7.004C9.669,131.407,5.027,121.128,6.171,111.4c1.377-11.699,7.967-22.873,17.63-29.892
	c6.198-4.502,16.433-9.297,29.995-6.586c18.585,3.717,30.064,38.42,34.137,53.168c1.309,4.738-0.947,9.781-5.364,11.99l-9.318,4.659
	c-1.016,0.509-1.658,1.547-1.658,2.684v16.166c0,1.422,0.998,2.648,2.39,2.938c1.819,0.378,44.745,9.205,60.083,5.022
	c14.514-3.96,54.504-9.879,76.29-7.67c3.712,0.378,7.081,0.811,10.34,1.23c14.26,1.834,25.523,3.28,44.286-3.254
	c3.607-1.258,7.242-2.308,10.812-3.122c0.142-0.033,0.813-0.183,1-0.224c11.975-2.64,23.256-2.693,33.54-0.156
	c8.88,2.187,13.345,5.104,14.56,7.1C325.307,166.14,325.197,166.475,325.15,166.618z M369.918,93.616
	c0.36,9.717-6.958,17.835-16.659,18.481c-1.123,0.074-2.11,0.772-2.556,1.806c-0.095,0.219-9.198,21.213-23.754,45.101
	c-4.03-3.191-10.162-5.241-15.182-6.477c-8.354-2.059-17.275-2.551-26.623-1.489c31.508-28.785,48.528-45.317,51.949-50.448
	c7.651-11.477,24.637-42.531,34.081-60.021c0.058-0.104,0.078-0.149,0.243-0.104c0.17,0.046,0.168,0.104,0.164,0.223l-1.664,52.725
	C369.916,93.478,369.916,93.546,369.918,93.616z"/>
<g>
</g>
<g>
</g>
<g>
</g>
<g>
</g>
<g>
</g>
<g>
</g>
<g>
</g>
<g>
</g>
<g>
</g>
<g>
</g>
<g>
</g>
<g>
</g>
<g>
</g>
<g>
</g>
<g>
</g>
</svg>
