<?xml version="1.0" encoding="iso-8859-1"?>
<!-- Generator: Adobe Illustrator 18.0.0, SVG Export Plug-In . SVG Version: 6.00 Build 0)  -->
<!DOCTYPE svg PUBLIC "-//W3C//DTD SVG 1.1//EN" "http://www.w3.org/Graphics/SVG/1.1/DTD/svg11.dtd">
<svg version="1.1" id="Capa_1" xmlns="http://www.w3.org/2000/svg" xmlns:xlink="http://www.w3.org/1999/xlink" x="0px" y="0px"
	 viewBox="0 0 467.993 467.993" style="enable-background:new 0 0 467.993 467.993;" xml:space="preserve">
<path d="M328.507,0c-1.602,0-5.855,0-20.973,26.731c-0.073,0.129-0.137,0.263-0.189,0.401c-0.036,0.095-3.679,9.592-7.417,20.223
	c-1.692,4.81-4.498,9.231-8.111,12.783c-12.768,12.511-24.844,25.461-33.646,35.185c-10.39-0.579-29.829,3.745-38.355,24.455
	c-4.308,10.479-5.944,18.285-6.538,23.267c-4.68,4.353-9.566,8.651-14.408,12.524c-18.972,15.178-20.597,37.355-22.169,58.801
	c-0.397,5.421-0.809,11.027-1.49,16.48c-2.535,20.28-13.606,33.353-19.1,37.427c-0.036,0.027-0.071,0.054-0.105,0.082
	c-1.052,0.846-25.677,20.99-19.057,44.87c3.977,14.335,18.221,28.355,42.338,41.673c15.871,8.765,33.07,15.607,45.07,20.107
	c-14.109,5.155-22.244,16.328-26.764,25.639c-8.058,16.618-13.462,26.522-24.19,41.275c-0.02,0.028-0.04,0.056-0.059,0.085
	l-1.926,2.849c-1.409,1.964-1.874,4.427-1.275,6.767c0.604,2.359,2.214,4.307,4.422,5.347c8.762,4.116,26.162,11.022,44.259,11.022
	c16.645,0,20.469-4.929,21.246-12.883c0.397-4.09-2.041-7.852-5.93-9.148l-25.134-8.375l55.226-46.843
	c0.102-0.086,0.197-0.178,0.286-0.277c0.438-0.485,10.706-12.028,9.763-25.836c-0.506-7.41-4.106-13.982-10.7-19.535
	c-12.299-10.359-27.251-19.658-40.442-27.862c-11.682-7.265-21.868-13.601-26.053-18.182c1.106-5.308,10.48-15.451,19.563-25.279
	c7.093-7.675,15.132-16.373,21.475-24.981c14.17-19.225,3.303-61.09-1.183-75.844c0.69-0.835,1.406-1.682,2.131-2.535
	c2.246,2.881,5.419,4.925,9.091,5.78c1.262,0.293,2.532,0.438,3.793,0.438c3.752-0.001,7.408-1.28,10.41-3.712
	c7.867-6.381,17.899-17.433,21.01-33.845c1.29-6.777,1.488-13.028,0.589-18.579c-0.088-0.546-0.328-1.026-0.658-1.424
	c8.488-13.656,17.681-32.588,24.323-46.269c0.995-2.048,1.932-3.978,2.8-5.753c1.28-2.62,3.178-4.553,5.623-5.738
	c2.994-1.429,5.194-4.144,6.036-7.447c3.767-14.767,10.086-40.732,10.086-48.721C332.173,0.501,329.61,0,328.507,0z M225.365,122.06
	c5.989-14.548,18.269-19.565,27.285-20.587c-5.225,5.873-8.385,9.574-8.463,9.666c-0.152,0.176-10.258,11.815-23.471,24.789
	C221.675,132.1,223.137,127.478,225.365,122.06z M259.715,349.686c5.292,4.456,8.178,9.61,8.577,15.321
	c0.739,10.551-7.073,20.089-8.114,21.309l-59.119,50.144c-0.826,0.701-1.211,1.793-1.005,2.857c0.205,1.064,0.969,1.934,1.997,2.277
	l30.191,10.061c1.218,0.406,1.98,1.588,1.856,2.874c-0.392,4.005-0.73,7.465-15.274,7.465c-16.931,0-33.398-6.549-41.705-10.451
	c-0.795-0.374-1.07-1.041-1.163-1.405c-0.094-0.364-0.172-1.082,0.348-1.795c0.02-0.029,0.041-0.058,0.061-0.087l1.923-2.844
	c10.976-15.1,16.495-25.21,24.705-42.144c4.837-9.965,14.313-22.341,31.985-24.706c1.367-0.183,2.433-1.274,2.584-2.645
	c0.151-1.37-0.65-2.667-1.944-3.144l-2.099-0.771c-12.501-4.589-36.483-13.393-56.795-25.461
	c13.002-4.364,33.236-12.863,41.251-25.453c0.66,0.411,1.321,0.822,1.996,1.242C232.99,330.427,247.746,339.605,259.715,349.686z
	 M212.858,317.889c-3.467,5.235-13.731,15.718-42.798,24.477c-13.345-8.841-24.127-19.191-27.331-30.739
	c-4.712-16.997,10.62-32.756,15.552-37.286l34.636,19.124c-1.236,2.389-1.941,4.581-1.941,6.558c0,0.667,0.223,1.315,0.632,1.842
	C195.087,306.334,202.814,311.564,212.858,317.889z M277.48,137.954c-2.773,14.63-11.806,24.555-18.893,30.304
	c-2.561,2.075-5.864,2.837-9.064,2.092c-2.707-0.63-4.984-2.283-6.394-4.605c4.82-5.452,10.092-11.122,15.262-16.673
	c6.223-6.683,12.1-12.995,16.822-18.539c1.06-1.244,2.155-2.664,3.274-4.215C278.597,129.916,278.269,133.806,277.48,137.954z
	 M316.273,52.381c-0.401,1.574-1.424,2.855-2.822,3.523c-3.646,1.767-6.556,4.71-8.413,8.51c-0.87,1.78-1.81,3.714-2.807,5.768
	c-8.712,17.944-21.878,45.061-31.587,56.46c-4.637,5.442-10.47,11.707-16.646,18.341c-7.978,8.568-16.227,17.428-22.727,25.415
	c-0.002,0.003-0.005,0.006-0.007,0.009c-6.935,8.54-10.74,14.68-11.953,19.293c-0.378,1.436,0.221,2.989,1.564,3.624
	c1.765,0.835,3.759-0.179,4.209-1.979c0.723-2.898,3.171-7.135,7.295-12.631c6.703,23.744,10.517,53.49,0.913,66.518
	c-6.145,8.34-14.064,16.909-21.051,24.469c-6.51,7.044-12.257,13.271-16.135,18.669l-33.049-18.247
	c5.39-5.31,15.513-17.79,18.105-38.529c0.701-5.605,1.118-11.29,1.52-16.786c1.547-21.091,3.007-41.013,19.934-54.554
	c22.512-18.009,45.873-44.92,46.121-45.207c0.222-0.26,22.451-26.297,47.281-50.628c4.265-4.192,7.573-9.405,9.568-15.073
	c2.487-7.074,4.932-13.641,6.283-17.228c0.681-1.807,1.509-3.544,2.483-5.211c3.895-6.669,8.323-13.518,11.438-17.539
	C324.7,17.261,321.312,32.627,316.273,52.381z"/>
<g>
</g>
<g>
</g>
<g>
</g>
<g>
</g>
<g>
</g>
<g>
</g>
<g>
</g>
<g>
</g>
<g>
</g>
<g>
</g>
<g>
</g>
<g>
</g>
<g>
</g>
<g>
</g>
<g>
</g>
</svg>
