<?xml version="1.0" encoding="iso-8859-1"?>
<!-- Generator: Adobe Illustrator 18.0.0, SVG Export Plug-In . SVG Version: 6.00 Build 0)  -->
<!DOCTYPE svg PUBLIC "-//W3C//DTD SVG 1.1//EN" "http://www.w3.org/Graphics/SVG/1.1/DTD/svg11.dtd">
<svg version="1.1" id="Capa_1" xmlns="http://www.w3.org/2000/svg" xmlns:xlink="http://www.w3.org/1999/xlink" x="0px" y="0px"
	 viewBox="0 0 427.346 427.346" style="enable-background:new 0 0 427.346 427.346;" xml:space="preserve">
<path d="M421.481,77.885c-6.287-9.927-15.439-12.992-19.082-13.849c-13.351-3.144-38.62,1.357-49.621,26.798
	c-5.746,13.286-7.761,23.049-8.372,29.358c-4.807-4.521-11.59-8.43-20.238-7.396c-9.56,1.147-24.086,7.952-39.465,15.156
	c-12.395,5.807-25.212,11.811-36.288,15.309c-26.666,8.421-46.967,12.447-65.824,13.057c-11.593,0.374-22.248,4.618-30.003,11.951
	c-8.921,8.437-13.466,20.421-13.143,34.656c0.407,17.935,3.855,53.447,6.424,77.912l-61.193,3.617l-0.114,0.001
	c-0.668,0-1.33-0.222-1.86-0.622c-3.987-3.017-9.185-3.824-13.904-2.16c-4.721,1.665-8.264,5.56-9.477,10.418l-0.85,3.414
	l-1.371-1.48c-2.707-2.924-6.391-4.598-10.374-4.715c-3.979-0.099-7.758,1.34-10.632,4.099l-33.41,32.091
	c-2.548,2.448-3.356,6.019-2.109,9.319c1.252,3.314,4.232,5.465,7.777,5.615c10.062,0.434,26.025-1.415,45.203-12.542
	c7.836,0.034,22.156,4.408,38.655,9.447c24.533,7.494,55.059,16.807,78.095,15.629c40.502-2.095,44.895-80.014,45.063-83.329
	c0.002-0.039,0.003-0.078,0.003-0.118l0.627-55.765c14.357-0.133,75.001-1.331,98.202-12.055c0.43,17.032,1.94,36.037,5.932,50.146
	c-3.85,23.054-1.961,43.384,9.36,101.984c0.218,1.127,1.056,2.04,2.165,2.336c19.848,5.297,60.872,7.907,62.607,8.015
	c0.064,0.004,0.126,0.006,0.189,0.006c1.063,0,2.053-0.565,2.592-1.491c0.571-0.98,0.539-2.2-0.082-3.15
	c-0.475-0.727-11.77-17.474-46.212-24.556c0.445-7.447,1.242-15.211,2.08-23.379c2.116-20.63,4.305-41.962,1.037-61.101
	c-2.6-15.226-0.639-28.076,1.844-44.346c1.839-12.055,3.922-25.705,4.772-43.632c-0.002-0.395-0.005-0.8-0.007-1.195
	c-0.078-1.319-0.156-2.616-0.243-3.895l19.194-2.613c0.086-0.012,0.164-0.041,0.247-0.06c1.471,0.846,3.056,1.521,4.756,1.947
	c1.538,0.386,3.092,0.576,4.633,0.576c4.161-0.001,8.227-1.384,11.605-4.025c9.26-7.239,21.128-19.857,25.086-38.861
	C428.855,99.544,427.417,87.257,421.481,77.885z M182.784,162.313c5.607-0.181,11.336-0.663,17.292-1.448
	c2.408,8.126,9.938,34.743,9.957,49.896l-0.297,26.438L146.3,219.637c-0.443-6.464-0.752-12.249-0.857-16.85
	C144.828,175.681,163.754,162.927,182.784,162.313z M70.795,287.331c2.855-1.008,5.875-0.539,8.291,1.289
	c1.568,1.184,3.513,1.835,5.477,1.835c0.196,0,0.41-0.004,0.517-0.015l61.423-3.63c0.777,7.273,1.427,13.126,1.813,16.57
	l-80.894-1.208c-1.483-0.022-2.916-0.56-4.056-1.488l1.778-7.142C65.877,290.602,67.937,288.339,70.795,287.331z M169.998,346.975
	c-21.976,1.157-51.949-8.018-76.033-15.375c-17.541-5.357-32.695-9.982-41.341-9.695c-0.501,0.017-0.991,0.159-1.423,0.414
	c-18.221,10.742-33.22,12.512-42.591,12.12c-1.661-0.07-2.272-1.352-2.42-1.742c-0.146-0.386-0.53-1.734,0.653-2.871l33.41-32.09
	c1.703-1.636,3.934-2.502,6.3-2.43c2.36,0.069,4.543,1.062,6.147,2.794l5.594,6.042c2.324,2.51,5.619,3.978,9.039,4.03l81.741,1.22
	l0.957,6.699c0.214,1.496,1.497,2.575,2.966,2.575c0.142,0,0.285-0.01,0.428-0.03c1.64-0.234,2.78-1.754,2.545-3.395
	c0,0-1.516-10.962-1.805-13.545c-1.38-12.337-5.307-48.241-7.403-75.705l62.905,17.415l-0.292,25.983
	C209.241,271.779,204.725,345.179,169.998,346.975z M349.783,205.26c-2.565,16.805-4.589,30.078-1.826,46.26
	c3.13,18.331,0.983,39.249-1.092,59.479c-0.944,9.203-1.836,17.896-2.245,26.29c-0.073,1.499,0.986,2.824,2.462,3.097
	c21.497,3.982,33.784,11.959,39.889,17.25c-12.514-0.986-37.374-3.27-51.943-6.804c-10.945-56.876-12.676-76.419-8.864-98.65
	c0.077-0.449,0.051-0.909-0.077-1.347c-8.979-30.788-5.203-89.412-5.164-90.001c0.11-1.653-1.141-3.082-2.794-3.192
	c-1.635-0.102-3.082,1.141-3.192,2.794c-0.081,1.213-1.038,16.048-0.851,34.575c-8.48,5.08-28.156,8.889-57.088,11.035
	c-17.939,1.332-34.536,1.636-41.052,1.706c-0.808-15.777-7.319-39.134-9.867-47.767c13.07-2.126,27.389-5.712,44.143-11.004
	c11.455-3.617,24.455-9.707,37.026-15.596c14.931-6.994,29.032-13.601,37.635-14.633c10.735-1.283,18.2,8.228,21.2,12.94
	c0.947,1.488,3.43,5.629,4.101,7.001c3.283,6.71,3.777,14.022,4.297,22.834c0.017,0.293,0.019,0.595,0.005,0.889
	C353.644,179.95,351.594,193.388,349.783,205.26z M419.886,113.183c-3.589,17.227-14.438,28.736-22.908,35.358
	c-3.162,2.472-7.202,3.33-11.083,2.356c-3.759-0.943-6.804-3.501-8.355-7.018c-0.669-1.516-2.44-2.199-3.956-1.534
	c-1.516,0.669-2.202,2.44-1.534,3.956c0.508,1.152,1.142,2.222,1.853,3.225l-14.191,1.932c-0.597-5.172-1.633-10.053-3.833-14.772
	c-0.832-1.785-4.201-7.517-5.599-9.568c-0.256-2.562-0.689-13.795,8.008-33.905c5.434-12.566,14.531-18.401,21.207-21.084
	c8.472-3.403,16.678-3.396,21.531-2.255C403.745,70.516,427.389,77.17,419.886,113.183z"/>
<g>
</g>
<g>
</g>
<g>
</g>
<g>
</g>
<g>
</g>
<g>
</g>
<g>
</g>
<g>
</g>
<g>
</g>
<g>
</g>
<g>
</g>
<g>
</g>
<g>
</g>
<g>
</g>
<g>
</g>
</svg>
