<?xml version="1.0" encoding="iso-8859-1"?>
<!-- Generator: Adobe Illustrator 18.0.0, SVG Export Plug-In . SVG Version: 6.00 Build 0)  -->
<!DOCTYPE svg PUBLIC "-//W3C//DTD SVG 1.1//EN" "http://www.w3.org/Graphics/SVG/1.1/DTD/svg11.dtd">
<svg version="1.1" id="Capa_1" xmlns="http://www.w3.org/2000/svg" xmlns:xlink="http://www.w3.org/1999/xlink" x="0px" y="0px"
	 viewBox="0 0 337.149 337.149" style="enable-background:new 0 0 337.149 337.149;" xml:space="preserve">
<path d="M324.255,190.01c-5.423-20.018-17.815-53.744-39.871-54.703c-30.14-1.315-45.306,12.249-47.69,42.616
	c-19.359-8.297-37.957-15.309-42.407-16.97c-3.435-5.633-22.085-34.23-63.853-64.83l3.706-3.76l1.61-0.805
	c9.395-4.697,13.41-15.885,9.142-25.468l-4.97-11.184c-1.85-4.165-3.308-8.566-4.331-13.073l-7.001-31.133
	c-1.297-5.807-6.357-9.862-12.338-9.862c-1.984,0.005-3.805,1.076-4.872,2.714C109.093,1.33,105.978,0,102.559,0
	c-2.688,0.007-5.085,1.96-5.699,4.646L83.633,62.493c-0.689-0.191-1.396-0.298-2.117-0.298c-3.983,0-7.327,2.86-7.949,6.802
	l-1.518,9.614c-0.674,4.272,0.626,8.539,3.446,11.678c-7.896,12.709-21.792,35.197-34.614,56.566
	c-28.466,47.438-28.466,50.656-28.466,52.385c0,4.667,11.025,33.722,32.066,63.418c19.183,27.074,51.578,61.36,96.967,70.95
	c11.119,2.349,22.102,3.54,32.645,3.541c0.002,0,0.003,0,0.005,0c35.842,0,61.39-13.725,76.509-25.238
	c18.189-13.851,29.068-30.147,32.858-39.893c3.454-8.881,6.052-20.63,6.263-32.575c2.047-3.475,10.711-18.494,14.74-30.371
	c2.936-0.539,6.521-1.439,10.689-2.684C322.178,204.289,326.175,197.095,324.255,190.01z M116.404,6.837
	c3.066,0.055,5.659,2.164,6.331,5.173l7.003,31.144c1.111,4.894,2.692,9.667,4.7,14.187l4.972,11.187
	c2.96,6.646,0.174,14.404-6.344,17.663l-2.055,1.028c-0.295,0.147-0.564,0.342-0.795,0.577l-4.536,4.603
	c-0.68-0.849-1.384-1.692-2.123-2.521c8.306-5.093,11.674-15.572,7.642-24.624l-4.97-11.184c-1.85-4.165-3.308-8.565-4.332-13.073
	l-6.6-29.352L116.404,6.837z M102.712,6.001c3.066,0.055,5.659,2.164,6.33,5.173l7.004,31.144c1.111,4.894,2.692,9.667,4.7,14.187
	l4.972,11.186c2.96,6.646,0.174,14.404-6.343,17.663l-0.146,0.073c-9.443-9.044-21.085-15.913-30.022-20.394L102.712,6.001z
	 M18.421,199.329c1.123-5.347,25.226-46.403,61.738-105.177c4.034,3.151,7.421,6.965,10.06,11.363l3.729,6.215
	c1.446,2.41,3.724,4.169,6.33,5.046c-11.958,46.556-28.144,73.053-45.714,74.699c-1.65,0.154-2.862,1.617-2.707,3.267
	c0.146,1.555,1.453,2.72,2.983,2.72c0.094,0,0.188-0.004,0.283-0.013c1.255-0.118,2.486-0.328,3.695-0.625
	c5.633,5.411,35.689,34.208,51.27,47.738c-0.806,3.622-3.014,12.635-6.904,22.19c-4.279,10.511-11.476,23.755-21.819,28.688
	C39.635,258.488,18.956,204.669,18.421,199.329z M172.23,268.962c-4.238-6.017-20.85-26.926-47.813-28.82
	c-4.565-5.222-27.502-31.428-40.962-46.174c17.26-12.467,29.806-57.043,33.865-73.142l52.338,61.246
	c0.145,0.17,0.308,0.323,0.487,0.456l46.779,34.899c-3.937,15.503-14.395,47.207-34.621,50.529L172.23,268.962z M77.522,190.525
	c-0.884,0.393-1.524,1.188-1.72,2.135c-0.196,0.947,0.078,1.931,0.733,2.641c10.927,11.837,31.137,34.831,39.913,44.847
	c-0.696,0.049-1.39,0.093-2.098,0.168c-14.013-12.132-40.493-37.391-49.331-45.859c20.257-10.545,33.421-46.116,41.295-77.05h5.683
	C106.893,138.435,93.053,183.622,77.522,190.525z M86.267,299.62c19.085-11.306,27.61-44.425,29.608-53.402
	c30.191-2.68,48.48,21.821,51.766,26.647c-0.371,3.121-1.658,12.874-4.362,23.589c-4.006,15.875-9.335,26.979-15.457,32.275
	c-1.707-0.305-3.418-0.628-5.134-0.991C120.996,323.155,102.208,312.696,86.267,299.62z M277.873,269.844
	c-7.779,20.003-43.382,61.308-103.78,61.306c-6.199,0-12.564-0.435-19.024-1.288c12.541-15,17.244-45.991,18.376-54.99l9.546-0.954
	c0.059-0.006,0.118-0.014,0.176-0.023c22.135-3.544,33.63-32.718,38.949-52.594l22.008,16.419l-1.1,18.698
	c-0.098,1.654,1.165,3.074,2.818,3.171c0.06,0.004,0.12,0.005,0.179,0.005c1.576,0,2.898-1.23,2.992-2.824l1.195-20.313
	c0.06-1.008-0.392-1.978-1.201-2.581l-75.006-55.957l-55.939-65.461c-0.57-0.667-1.403-1.051-2.281-1.051h-11.805
	c-1.989,0-3.86-1.06-4.883-2.765l-3.729-6.215c-3.181-5.301-7.301-9.871-12.248-13.583L81.15,87.37
	c-0.001,0-0.001-0.001-0.001-0.001c-2.432-1.823-3.648-4.82-3.174-7.822l1.518-9.614c0.178-1.129,1.175-1.738,2.022-1.738
	c0.29,0,2.199,0.824,2.933,1.179c9.199,4.448,22.232,11.84,32.097,21.818c1.915,1.904,3.67,3.895,5.215,5.918
	c0.185,0.241,0.404,0.453,0.652,0.628c24.97,17.662,41.919,34.976,51.742,46.391c10.646,12.372,15.446,20.673,15.492,20.754
	c0.35,0.613,0.905,1.083,1.567,1.327c0.452,0.167,45.536,16.824,72.535,30.911c7.818,4.079,17.566,13.148,19.611,33.191
	C284.875,245.16,281.519,260.468,277.873,269.844z M313.438,200.639c-4.814,1.439-8.746,2.381-11.686,2.801
	c-1.151,0.164-2.104,0.979-2.445,2.091c-2.178,7.11-6.628,16.079-10.147,22.638c-1.848-14.967-8.33-28.902-22.637-36.367
	c-7.128-3.719-15.488-7.61-23.961-11.333c-0.008-0.252-0.009-0.489,0.005-0.699c1.797-28.152,14.223-39.656,41.555-38.468
	c6.304,0.274,22.27,5.722,34.341,50.278C319.526,195.499,317.319,199.479,313.438,200.639z"/>
<g>
</g>
<g>
</g>
<g>
</g>
<g>
</g>
<g>
</g>
<g>
</g>
<g>
</g>
<g>
</g>
<g>
</g>
<g>
</g>
<g>
</g>
<g>
</g>
<g>
</g>
<g>
</g>
<g>
</g>
</svg>
