<?xml version="1.0" encoding="iso-8859-1"?>
<!-- Generator: Adobe Illustrator 18.0.0, SVG Export Plug-In . SVG Version: 6.00 Build 0)  -->
<!DOCTYPE svg PUBLIC "-//W3C//DTD SVG 1.1//EN" "http://www.w3.org/Graphics/SVG/1.1/DTD/svg11.dtd">
<svg version="1.1" id="Capa_1" xmlns="http://www.w3.org/2000/svg" xmlns:xlink="http://www.w3.org/1999/xlink" x="0px" y="0px"
	 viewBox="0 0 461.297 461.297" style="enable-background:new 0 0 461.297 461.297;" xml:space="preserve">
<path d="M457.75,275.773c-11.425-5.735-32.171-11.484-46.056-10.836c-3.718,0.173-7.272-0.416-10.563-1.747
	c-13.242-5.355-41.611-14.999-63.943-17.184c-2.642-0.259-5.128-1.047-7.391-2.341c-5.929-3.394-14.285-7.174-23.281-10.872
	c-4.756-9.658-12.228-16.231-22.245-19.53c-10.912-3.594-20.54-4.789-28.662-3.568c-0.643-0.889-1.247-1.813-1.769-2.801
	c-3.404-6.444-9.244-15.223-17.733-20.447c-7.027-4.325-33.195-16.191-65.174-23.282c-50.205-11.13-80.574-2.972-97.21,5.835
	c-50.372,26.668-44.844,56.752-37.065,72.312c2.357,4.713,7.345,12.542,10.134,16.826c-10.419,4.492-39.636,17.483-45.514,24.34
	c-1.313,1.531-1.632,3.354-0.875,5c1.168,2.54,4.319,5.371,27.064,6.813c10.638,0.674,21.118,0.727,22.553,0.73
	c5.339,0.579,78.968,8.508,112.494,8.507c6.536,0,11.551-0.302,14.235-1.018c16.268-4.337,27.971-9.004,30.401-29.657
	c0.736-6.259-2.361-11.721-7.125-16.323l22.482-1.82c2.817-0.228,5.654-0.151,8.459,0.187l-5.449,5.736
	c-2.521,2.651-3.722,6.256-3.295,9.889c0.425,3.613,2.416,6.821,5.461,8.802c10.428,6.776,26.647,15.001,44.689,15.696
	c0.905,0.034,1.789,0.052,2.654,0.052c22.528-0.001,31.985-11.443,34.922-16.151l13.236,1.203c4.661,0.424,9.357,1.501,13.958,3.201
	c8.434,3.118,23.783,7.327,45.153,7.327c8.088,0,17.042-0.603,26.806-2.097c8.624,1.359,30.065,0.031,46.708-1.338
	c2.719-0.225,4.895-2.186,5.391-4.871C461.7,279.655,460.196,277.001,457.75,275.773z M282.394,218.963
	c5.991,1.972,10.909,5.346,14.698,10.067c-11.179-4.345-22.405-8.334-30.517-11.133c-1.885-0.65-3.648-1.557-5.276-2.66
	C267.45,215.124,274.513,216.366,282.394,218.963z M62.786,182.671c15.324,7.199,32.131,26.035,40.798,36.639l-12.377-3.89
	c-1.578-0.493-3.265,0.382-3.761,1.963c-0.497,1.581,0.382,3.265,1.962,3.762l18.206,5.722c-1.613,2.868-4.56,7.524-9.163,12.73
	c-6.798,7.686-18.693,18.13-36.934,24.766c-2.922-1.77-5.555-4.025-7.739-6.703c-0.265-0.326-1.208-1.647-1.443-2.007
	c-2.579-3.947-7.962-12.324-10.312-17.024C32.035,218.648,39.427,199.133,62.786,182.671z M201.192,272.152
	c-1.93,16.407-9.778,20.239-25.988,24.561c-12.901,3.438-94.385-4.374-124.693-7.675c-0.108-0.012-0.216-0.018-0.325-0.018
	c-22.023,0-38.454-1.799-43.292-3.673c6.268-5.385,28.347-15.765,43.637-22.287c4.664,5.079,10.714,8.749,17.378,10.468
	c7.975,2.068,21.619,4.634,41.343,5.105l11.604,0.242c13.406,0.278,26.069,0.541,31.016,0.947c10.751,0.9,13.559,8.511,13.664,8.809
	c0.419,1.258,1.589,2.054,2.846,2.054c0.314,0,0.634-0.05,0.948-0.154c1.572-0.523,2.422-2.223,1.898-3.794
	c-0.158-0.476-4.045-11.652-18.86-12.893c-5.135-0.422-17.301-0.674-31.388-0.967l-11.597-0.241
	c-19.14-0.458-32.299-2.926-39.973-4.917c-0.011-0.003-0.021-0.007-0.032-0.01c27.849-12.031,40.402-32.026,44.088-39.005
	l51.894,16.309C175.847,248.139,202.726,259.105,201.192,272.152z M272.604,289.024c-16.677-0.643-31.855-8.365-41.65-14.73
	c-1.545-1.006-2.556-2.636-2.772-4.473c-0.219-1.856,0.396-3.698,1.685-5.055l8.027-8.449c1.461,0.43,2.902,0.929,4.308,1.516
	c15.572,6.507,42.955,17.233,60.938,20.261C299.355,282.6,290.495,289.724,272.604,289.024z M453.942,281.349
	c-22.443,1.815-38.543,2.257-44.281,1.216c-0.33-0.06-0.667-0.065-0.997-0.013c-34.479,5.364-58.307-0.739-69.44-4.855
	c-5.095-1.884-10.308-3.078-15.495-3.549l-15.183-1.38c-16.725-1.521-47.296-13.479-64.032-20.472
	c-7.069-2.952-14.847-4.185-22.491-3.567l-28.904,2.34c-10.568-7.012-23.589-11.075-26.003-11.793l-53.379-16.776
	c-3.818-5.108-24.696-32.262-45.201-43.618c2.519-1.557,5.174-3.086,7.994-4.579c55.309-29.281,145.537,10.551,156.432,17.254
	c7.336,4.516,12.518,12.358,15.573,18.141c3.467,6.563,9.18,11.489,16.083,13.871c16.91,5.834,47.477,16.878,62.199,25.304
	c3.004,1.719,6.296,2.764,9.787,3.105c21.651,2.119,49.334,11.542,62.278,16.775c4.097,1.657,8.499,2.387,13.088,2.179
	c12.544-0.575,31.176,4.487,42.108,9.697C454.428,280.795,454.328,281.318,453.942,281.349z"/>
<g>
</g>
<g>
</g>
<g>
</g>
<g>
</g>
<g>
</g>
<g>
</g>
<g>
</g>
<g>
</g>
<g>
</g>
<g>
</g>
<g>
</g>
<g>
</g>
<g>
</g>
<g>
</g>
<g>
</g>
</svg>
