<?xml version="1.0" encoding="iso-8859-1"?>
<!-- Generator: Adobe Illustrator 18.0.0, SVG Export Plug-In . SVG Version: 6.00 Build 0)  -->
<!DOCTYPE svg PUBLIC "-//W3C//DTD SVG 1.1//EN" "http://www.w3.org/Graphics/SVG/1.1/DTD/svg11.dtd">
<svg version="1.1" id="Capa_1" xmlns="http://www.w3.org/2000/svg" xmlns:xlink="http://www.w3.org/1999/xlink" x="0px" y="0px"
	 viewBox="0 0 399.885 399.885" style="enable-background:new 0 0 399.885 399.885;" xml:space="preserve">
<path d="M399.545,185.714c1.975-8.375-5.008-16.679-11.586-21.245c-7.816-5.424-17.477-7.647-26.507-6.104
	c-4.414,0.755-9.64,2.381-14.86,5.683c-0.018-12.665-3.364-40.185-30.483-52.938c-25.796-12.142-54.619,9.93-69.502,24.167
	c-4.679,4.474-11.872,5.305-17.497,2.021c-14.053-8.202-37.219-15.264-110.967-11.43c-53.85,2.792-84.236,33.026-97.555,50.799
	C7.697,193.844,0,213.454,0,229.125c0,34.149,19.716,41.023,63.904,43.514c4.008,0.233,8.319,0.432,13.183,0.605
	c6.565,0.234,12.834,0.344,18.847,0.343c38.763,0,66.608-4.549,90.971-9.605c6.646-1.379,13.498-1.275,19.815,0.298
	c11.35,2.827,32.689,4.712,63.424,5.605c13.643,13.197,25.73,22.407,34.661,22.407c8.778,0,16.759-8.825,23.759-21.841
	c15.379-0.105,31.488-0.348,47.928-0.725c12.085-0.28,21.551-9.968,21.551-22.055v-35.586c0-5.797-1.089-12.15-3.215-18.901
	C397.289,191.019,398.88,188.533,399.545,185.714z M6,229.125c0-13.7,6.925-31.595,18.148-47.147
	c23.715,7.531,60.064,19.876,68.021,24.596c-1.332,14.543-20.396,49.371-29.367,59.986C17.745,263.87,6,256.035,6,229.125z
	 M185.686,258.107c-27.773,5.764-60.127,10.855-108.386,9.141c-2.562-0.091-4.96-0.19-7.248-0.297
	c9.739-13.478,26.343-43.95,28.035-59.47c6.003-1.275,24.279-4.24,41.182,2.383c19.051,7.466,39.608,9.34,55.45,9.34
	c12.401,0,21.911-1.148,25.54-1.662c6.57,6.608,13.771,14.376,21.198,22.393c7.681,8.291,15.229,16.437,22.433,23.746
	c-26.848-0.942-45.576-2.697-55.722-5.224C200.983,256.667,193.208,256.547,185.686,258.107z M304.805,286.291
	c-12.225,0-38.13-27.965-58.945-50.434c-14.168-15.292-27.549-29.737-37.627-37.238c-1.328-0.988-3.207-0.714-4.197,0.615
	c-0.989,1.329-0.714,3.208,0.615,4.197c3.04,2.263,6.436,5.234,10.099,8.71c-13.166,1.341-45.402,3.066-73.291-7.863
	c-19.586-7.676-40.128-3.742-45.629-2.452c-10.041-6.184-53.351-20.287-67.826-24.915c13.844-17.128,42.304-42.553,90.451-45.049
	c82.125-4.275,98.715,5.416,107.63,10.619c7.923,4.625,18.067,3.447,24.669-2.867c32.085-30.692,53.119-27.632,62.802-23.073
	c29.152,13.708,27.486,46.053,26.875,52.286c-3.684,3.451-7.193,7.949-10.217,13.807c-3.708,7.184-7.372,14.061-10.812,20.388
	l-32.442,10.772c-16.715-22.225-42.021-51.512-60.147-52.83c-1.645-0.107-3.089,1.122-3.21,2.774c-0.12,1.652,1.122,3.09,2.774,3.21
	c13.171,0.958,32.178,21.041,45.803,37.72c15.076,18.454,26.975,36.929,27.093,37.113c0.552,0.86,1.504,1.379,2.525,1.379
	c0.015,0,0.03,0,0.046,0c1.037-0.017,1.993-0.566,2.526-1.456c0.151-0.252,15.273-25.507,31.177-56.318
	c6.198-12.009,15.254-19.109,26.918-21.105c7.493-1.284,15.539,0.584,22.073,5.119c5.429,3.768,10.368,9.848,9.168,14.938
	c-1.298,5.506-9.876,9.676-24.155,11.743c-1.992,0.288-4.229,0.422-6.636,0.387c-0.086-0.001-0.17-0.001-0.255-0.001
	c-8.941,0-16.776,6.083-19.105,14.871C331.111,258.271,316.626,286.291,304.805,286.291z M315.162,210.749
	c-5.879,10.623-10.75,19.044-13.503,23.743c-2.374-3.55-6.182-9.114-10.94-15.627L315.162,210.749z M366.535,202.389
	c-2.616,14.944-13.895,20.123-20.345,21.874c1.115-3.834,2.171-7.649,3.163-11.389c1.631-6.151,7.088-10.408,13.308-10.408
	c0.059,0,0.117,0,0.176,0.001C364.112,202.482,365.344,202.453,366.535,202.389z M392.042,212.084v35.586
	c0,8.8-6.892,15.853-15.689,16.057c-15.315,0.351-30.342,0.585-44.757,0.701c4.738-10,8.971-21.751,12.633-33.622
	c6.436-1.182,25.583-6.584,28.493-29.157c6.951-1.161,12.581-2.837,16.879-5.015C391.214,202.175,392.042,207.363,392.042,212.084z"
	/>
<g>
</g>
<g>
</g>
<g>
</g>
<g>
</g>
<g>
</g>
<g>
</g>
<g>
</g>
<g>
</g>
<g>
</g>
<g>
</g>
<g>
</g>
<g>
</g>
<g>
</g>
<g>
</g>
<g>
</g>
</svg>
