<?xml version="1.0" encoding="iso-8859-1"?>
<!-- Generator: Adobe Illustrator 18.0.0, SVG Export Plug-In . SVG Version: 6.00 Build 0)  -->
<!DOCTYPE svg PUBLIC "-//W3C//DTD SVG 1.1//EN" "http://www.w3.org/Graphics/SVG/1.1/DTD/svg11.dtd">
<svg version="1.1" id="Capa_1" xmlns="http://www.w3.org/2000/svg" xmlns:xlink="http://www.w3.org/1999/xlink" x="0px" y="0px"
	 viewBox="0 0 433.73 433.73" style="enable-background:new 0 0 433.73 433.73;" xml:space="preserve">
<path d="M388.091,186.639c-1.209-31.433-15.016-63.358-38.879-89.897c-21.345-23.74-48.039-39.31-69.666-40.632
	c-15.016-0.918-32.054-9.021-48.531-16.855c-6.871-3.268-13.361-6.354-19.684-8.926c-25.408-10.337-52.101-17.245-79.337-20.532
	l-32.309-3.9L89.748,1.26C87.957,0.424,86.05,0,84.084,0C79.1,0,74.555,2.735,72.224,7.139l-5.427,10.253L50.219,6.476
	c-1.384-0.909-3.243-0.528-4.155,0.856c-0.911,1.384-0.527,3.244,0.856,4.155l19.285,12.698l14.84,10.388
	c3.664,2.564,7.966,3.92,12.438,3.92c4.614,0,9.026-1.434,12.758-4.148l2.05-1.49l76.193,30.889
	c4.374,1.773,8.628,3.763,12.78,5.917c-7.923,7.704-13.47,16.725-16.506,26.877c-4.247,14.233-3.859,26.334,1.153,35.964
	c5.313,10.206,13.99,13.955,17.472,15.092c3.188,1.045,7.142,1.686,11.481,1.686c13.017-0.001,29.497-5.767,39.133-23.694
	c2.246-4.178,4.168-8.241,5.753-12.111c3.479,1.707,6.966,3.166,10.064,4.346c4.375,1.665,8.397,3.898,11.955,6.638
	c29.88,23.007,35.991,36.711,37.132,42.328c-5.074,8.313-17.286,32.508-5.179,56.489c-1.54,6.824-4.113,15.038-7.07,24.476
	c-4.708,15.029-10.035,32.031-13.2,49.806c-3.143,3.499-17.186,19.721-21.983,35.308c-1.849,6.008-3.483,15.558-5.376,26.614
	c-2.802,16.37-6.289,36.741-11.599,50.506c-1.177,3.05-1.036,6.49,0.386,9.439c1.417,2.938,4.011,5.181,7.116,6.154
	c13.963,4.378,35.016,6.836,50.217,8.127c0.229,0.02,0.455,0.028,0.677,0.028c3.223,0,5.991-1.988,7.051-5.066
	c1.056-3.066,0.083-6.341-2.479-8.342l-7.208-5.631c1.885-0.369,3.808-0.783,5.803-1.262c3.722-0.89,6.269-3.932,6.488-7.75
	c0.221-3.816-2.047-7.26-5.642-8.572c-5.86-2.138-12.615-5.139-21.703-9.641l30.618-62.292c2.522-2.632,18.447-19.567,33.877-43.305
	C383.834,238.582,388.843,206.189,388.091,186.639z M244.714,122.743c-11.528,21.45-34.259,22.162-43.463,19.147
	c-2.59-0.846-25.003-9.255-14.742-43.636c2.905-9.717,8.381-18.31,16.289-25.574c7.568,4.342,14.731,9.305,21.391,14.897
	c6.257,5.255,11.485,10.228,15.542,14.781c2.756,3.094,6.571,5.864,10.703,8.274C248.889,114.475,246.972,118.543,244.714,122.743z
	 M281.431,119.702c-4.022-3.097-8.558-5.617-13.48-7.491c-6.447-2.455-18.105-7.518-23.739-13.842
	c-4.248-4.77-9.686-9.945-16.164-15.386c-12.305-10.332-26.203-18.677-41.309-24.801l-77.737-31.515
	c-0.363-0.147-0.746-0.22-1.127-0.22c-0.624,0-1.244,0.195-1.765,0.574l-3.397,2.471c-2.699,1.963-5.891,3-9.229,3
	c-3.236,0-6.348-0.98-8.998-2.836l-12.691-8.884l5.732-10.827C78.816,7.512,81.328,6,84.084,6c1.083,0,2.136,0.234,3.127,0.697
	l10.37,4.839c0.287,0.134,0.595,0.222,0.909,0.26l32.785,3.957c26.706,3.223,52.88,9.997,77.794,20.133
	c6.164,2.507,12.578,5.557,19.369,8.786c16.994,8.081,34.565,16.437,50.742,17.426c20.113,1.23,45.239,16.042,65.571,38.655
	c17.146,19.069,28.884,40.982,34.198,63.382l-58.445,0.267C316.48,148.657,294.602,129.843,281.431,119.702z M312.556,405.333
	c-0.024,0.43-0.234,1.863-1.896,2.261c-3.804,0.914-7.345,1.598-10.793,2.107l-7.526-5.88c-3.314-2.589-4.677-6.928-3.611-10.881
	c9.201,4.552,16.084,7.602,22.117,9.804C312.537,403.359,312.583,404.881,312.556,405.333z M317.193,321.328
	c-0.224,0.228-0.41,0.49-0.551,0.777l-32.605,66.334c-3.397,6.911-1.459,15.369,4.61,20.109l21.122,16.502
	c0.733,0.573,0.627,1.286,0.498,1.66c-0.087,0.254-0.513,1.107-1.546,1.013c-14.901-1.266-35.487-3.658-48.93-7.873
	c-1.552-0.487-2.797-1.565-3.507-3.037c-0.715-1.481-0.783-3.141-0.192-4.672c5.525-14.321,8.92-34.154,11.915-51.652
	c1.857-10.853,3.462-20.226,5.196-25.862c4.892-15.896,21.089-33.479,21.252-33.655c0.394-0.425,0.657-0.956,0.757-1.527
	c3.077-17.697,8.438-34.807,13.166-49.901c2.185-6.973,4.152-13.271,5.681-18.918l56.12,11.78
	C351.543,285.905,317.673,320.839,317.193,321.328z M372.491,236.76l-56.97-11.958c0.1-0.438,0.208-0.888,0.3-1.316
	c0.148-0.693,0.047-1.416-0.286-2.041c-6.104-11.445-8.098-30.742,4.192-51.039l60.489-0.277c1.032,5.575,1.665,11.167,1.88,16.74
	C382.741,203.657,378.757,220.7,372.491,236.76z"/>
<g>
</g>
<g>
</g>
<g>
</g>
<g>
</g>
<g>
</g>
<g>
</g>
<g>
</g>
<g>
</g>
<g>
</g>
<g>
</g>
<g>
</g>
<g>
</g>
<g>
</g>
<g>
</g>
<g>
</g>
</svg>
