<?xml version="1.0" encoding="iso-8859-1"?>
<!-- Generator: Adobe Illustrator 18.0.0, SVG Export Plug-In . SVG Version: 6.00 Build 0)  -->
<!DOCTYPE svg PUBLIC "-//W3C//DTD SVG 1.1//EN" "http://www.w3.org/Graphics/SVG/1.1/DTD/svg11.dtd">
<svg version="1.1" id="Capa_1" xmlns="http://www.w3.org/2000/svg" xmlns:xlink="http://www.w3.org/1999/xlink" x="0px" y="0px"
	 viewBox="0 0 371.329 371.329" style="enable-background:new 0 0 371.329 371.329;" xml:space="preserve">
<path d="M295.478,222.997c-10.021-25.309-23.982-36.011-27.488-38.392c-0.161-30.025-4.943-65.561-21.898-95.231
	C216.023,36.752,167.187,0,127.332,0c-24.896,0-41.608,5.602-49.673,16.649c-6.668,9.136-7.451,21.886-2.328,37.897
	c11.639,36.368,55.609,105.462,75.264,126.322c-10.865,26.047-18.521,69.686-12.808,99.682c3.936,20.668-0.941,47.782-4.197,62.105
	c-2.083,9.152,3.076,18.29,12,21.256c16.527,5.492,30.313,7.418,41.52,7.418c10.57-0.001,18.848-1.713,24.966-3.763
	c4.014-1.345,6.742-4.929,6.951-9.13c0.209-4.2-2.055-7.885-5.906-9.618c-15.923-7.163-32.521-15.643-37.915-18.429
	c1.648-15.534,12.43-115.435,20.561-147.959c0.046-0.184,0.075-0.372,0.085-0.562c0.087-1.558,0.131-3.151,0.149-4.764
	l20.058,19.495c0.268,4.988,0.079,10.34-0.845,15.882c-1.569,9.415-6.112,20.432-10.923,32.095
	c-7.136,17.3-15.223,36.907-15.311,56.011c-0.053,11.473,3.498,19.079,9.998,21.419c1.32,0.475,2.672,0.688,4.036,0.688
	c8.479,0,17.404-8.223,21.764-12.864l1.395,2.092c1.964,2.946,5.252,4.705,8.795,4.705c0.001,0,0.001,0,0.001,0
	c3.165,0,6.136-1.403,8.149-3.849l7.855-9.537c3.711-4.507,4.056-10.633,1.297-15.413c2.431,0.491,4.813,0.732,7.116,0.732
	c6.947-0.001,13.194-2.054,18.038-5.052C290.479,275.435,306.924,251.864,295.478,222.997z M82.506,20.188
	C89.377,10.773,104.459,6,127.332,6c11.405,0,23.621,3.251,35.916,9.162c0.999,18.639,1.133,46.686-2.256,55.227
	c-18.154,3.86-38.867-1.364-53.203-6.509c-13.455-4.828-23.906-10.473-27.074-12.255C76.582,38.07,77.174,27.491,82.506,20.188z
	 M189.876,181.256c-8.875,35.837-20.366,145.866-20.853,150.545c-0.127,1.222,0.504,2.398,1.593,2.967
	c0.203,0.108,20.611,10.78,40.044,19.523c2.328,1.047,2.406,3.21,2.374,3.848c-0.067,1.366-0.855,3.065-2.864,3.738
	c-22.39,7.499-48.887,0.927-62.688-3.659c-5.979-1.987-9.436-8.105-8.042-14.231c3.36-14.779,8.382-42.818,4.241-64.559
	c-5.635-29.579,2.288-73.062,13.203-98.012c0.495-1.131,0.246-2.45-0.627-3.323c-16.897-16.897-58.026-80.63-72.616-118.108
	c5.164,2.619,12.861,6.212,22.01,9.502c15.318,5.508,29.256,8.271,41.642,8.271c4.973,0,9.694-0.45,14.156-1.343
	C181.024,114.88,191.366,152.964,189.876,181.256z M201.009,316.36c-5.498-1.978-6.048-11.67-6.029-15.745
	c0.083-17.93,7.932-36.96,14.856-53.75c4.944-11.987,9.614-23.31,11.295-33.396c4.583-27.494-7.251-50.099-7.757-51.048
	c-0.779-1.46-2.594-2.015-4.06-1.235c-1.462,0.78-2.015,2.598-1.235,4.06c0.073,0.136,4.687,8.96,6.913,21.952l-19.199-18.661
	c-1.588-27.599-11.951-61.549-29.383-95.602c4.398-10.884,3.565-41.731,2.996-54.596c26.421,14.58,52.653,41.069,71.477,74.012
	c10.915,19.102,27.829,61.937,18.474,134.201c-0.432,3.335-1.791,6.568-3.931,9.352c-6.706,8.721-16.476,26.478-21.155,35.226
	c-1.075-0.651-2.311-1.002-3.582-1.002c-2.37,0-4.549,1.189-5.829,3.18l-9.542,14.844c-1.49,2.317-1.465,5.295,0.063,7.585
	l5.988,8.981C217.17,309.417,207.125,318.572,201.009,316.36z M246.342,299.428l-7.855,9.537c-0.884,1.072-2.133,1.663-3.519,1.663
	c-1.557,0-2.942-0.741-3.804-2.033l-10.792-16.188c-0.203-0.306-0.206-0.702-0.008-1.012l9.542-14.844
	c0.246-0.383,0.629-0.424,0.782-0.424c0.157,0,0.391,0.04,0.607,0.231l14.205,12.533C248.592,291.62,248.96,296.247,246.342,299.428
	z M289.802,259.255c-4.08,9.561-10.699,16.162-15.534,19.153c-8.214,5.084-21.393,6.809-34.66-2.718l-0.659-0.581
	c3.89-7.301,14.441-26.715,21.233-35.548c2.785-3.623,4.558-7.854,5.126-12.239c1.235-9.538,2.36-21.648,2.628-35.155
	c5.194,4.504,14.664,14.602,21.964,33.04C295.644,239.695,293.017,251.719,289.802,259.255z"/>
<g>
</g>
<g>
</g>
<g>
</g>
<g>
</g>
<g>
</g>
<g>
</g>
<g>
</g>
<g>
</g>
<g>
</g>
<g>
</g>
<g>
</g>
<g>
</g>
<g>
</g>
<g>
</g>
<g>
</g>
</svg>
