<?xml version="1.0" encoding="iso-8859-1"?>
<!-- Generator: Adobe Illustrator 18.0.0, SVG Export Plug-In . SVG Version: 6.00 Build 0)  -->
<!DOCTYPE svg PUBLIC "-//W3C//DTD SVG 1.1//EN" "http://www.w3.org/Graphics/SVG/1.1/DTD/svg11.dtd">
<svg version="1.1" id="Capa_1" xmlns="http://www.w3.org/2000/svg" xmlns:xlink="http://www.w3.org/1999/xlink" x="0px" y="0px"
	 viewBox="0 0 353.048 353.048" style="enable-background:new 0 0 353.048 353.048;" xml:space="preserve">
<path d="M322.607,215.657c-0.028-0.949-0.281-8.932-0.281-8.932c-0.766-26.116-1.489-50.784-8.841-77.148
	c-8.691-31.257-25.422-60.031-52.635-90.532c-21.178-24.203-62.234-23.906-99.605-20.426c-20.212,1.875-34.469,1.54-42.87,0.929
	c-7.128-0.519-13.406-5.128-15.995-11.742c-1.308-3.34-3.997-5.935-7.38-7.118c-3.38-1.181-7.099-0.831-10.202,0.965
	C76.365,6.534,64.37,15.008,55.116,27.66c-11.158,15.254-15.55,32.632-13.053,51.649c1.862,14.21,8.416,32.39,29.06,38.302
	c18.69,5.352,41.12-1.771,51.079-7.982c0.626,2.915,1.355,5.872,2.204,8.876c4.153,17.543,2.102,51.235,1.797,55.824
	c-1.625,3.709-10.688,25.86-12.666,62.41c-0.236,4.351-2.531,8.458-6.139,10.985c-2.068,1.45-3.949,2.797-5.585,3.987
	c-5.056,3.677-7.931,9.602-7.691,15.85l0.221,5.744l-54.81,27.77c-2.103,1.065-3.215,3.336-2.769,5.65
	c0.447,2.314,2.325,4.008,4.672,4.213l29.486,2.588c-8.636,5.713-21.262,13.079-35.575,18.269c-3.399,1.234-5.373,4.473-4.91,8.061
	c0.461,3.572,3.181,6.194,6.761,6.524c19.033,1.798,46.022,3.647,66.521,2.239c4.462-0.307,9.1-0.361,14.174-0.167
	c9.802,0.377,21.422,1.004,33.725,1.668c25.31,1.366,54.212,2.926,78.809,2.926c17.775,0,33.303-0.815,43.601-3.106
	c0.659-0.147,1.25-0.511,1.676-1.035C285.48,336.883,324.559,275.381,322.607,215.657z M316.337,207.163l-69.012-0.869
	c-14.948-24.31-8.736-45.998-4.59-60.436c0.318-1.109,0.612-2.145,0.889-3.145c3.624-2.293,21.306-11.661,64.629-9.452
	c6.236,23.426,7.236,45.787,7.944,69.208C316.242,203.942,316.337,207.163,316.337,207.163z M172.324,302.102
	c-3.296,1.359-5.973,2.732-8.454,4.007c-7.835,4.025-14.602,7.501-36.807,8.149c-3.387,0.105-6.563-1.809-8.135-4.858
	c-0.659-1.28-1.302-2.425-1.926-3.442C141.959,301.347,161.006,300.042,172.324,302.102z M181.914,298.858
	c-10.176-5.063-30.67-4.958-61.029,0.306c2.522-3.508,4.248-7.586,4.996-11.992l0.969-5.706c9.836-0.116,22.065-2.275,36.425-6.454
	c25.324-7.362,43.095-5.362,53.542-2.387c8.589,2.445,13.758,5.924,15.747,7.455c-0.12,6.509,0.191,12.952,1.118,19.127
	c-9.783-4.301-23.298-7.047-40.468-3.184C189.118,296.948,185.416,297.88,181.914,298.858z M232.854,272.99
	c-9.237-5.701-32.046-15.138-71.256-3.74c-13.31,3.874-24.636,5.953-33.727,6.199l4.193-24.697l29.066-74.865
	c1.021-2.633,1.424-5.496,1.163-8.28c-0.185-1.967-0.482-4.424-0.826-7.269c-1.624-13.422-4.261-35.21-1.032-52.8
	c20.797-2.767,48.783-3.429,64.896,8.89c0.033,0.025,0.067,0.05,0.102,0.074c9.663,6.766,15.768,12.062,12.689,23.587
	c-0.339,1.271-0.733,2.644-1.155,4.112c-4.201,14.629-11.202,39.003,5.581,65.798c-0.567,5.146-1.852,11.806-3.325,19.441
	C236.788,242.072,233.814,257.503,232.854,272.99z M105.342,256.564c1.61-1.171,3.462-2.498,5.499-3.926
	c5.104-3.577,8.351-9.398,8.686-15.574c2.062-38.077,12.251-60.513,12.353-60.733c0.153-0.329,0.245-0.683,0.271-1.044
	c0.114-1.566,2.753-38.592-1.923-58.232c-0.01-0.041-0.021-0.082-0.031-0.123c-10.086-35.595-2.08-59.493,8.775-69.99
	c4.707-4.551,8.748-5.408,10.787-4.756c1.574,0.505,3.266-0.364,3.771-1.943c0.505-1.578-0.365-3.267-1.943-3.771
	c-4.899-1.567-11.177,0.733-16.786,6.158c-6.604,6.385-11.482,16.227-13.737,27.711c-1.969,10.029-1.984,21.038-0.074,32.862
	c-5.583,4.517-28.7,14.231-48.215,8.641c-14.062-4.027-22.394-15.235-24.763-33.314c-2.218-16.886,0.004-48.654,39.791-71.683
	c1.586-0.919,3.488-1.098,5.215-0.494c1.729,0.605,3.104,1.932,3.773,3.641c3.427,8.754,11.728,14.854,21.147,15.54
	c8.627,0.628,23.24,0.974,43.861-0.939c35.862-3.341,75.136-3.766,94.554,18.424c25.419,28.491,41.442,55.343,50.177,84.15
	c-34.461-1.502-53.17,4.254-61.645,8.119c0.361-12.195-8.899-18.721-15.96-23.664c-17.146-13.068-45.386-12.967-67.028-10.319
	c2.914-10.013,8.332-17.885,17.834-20.736c1.587-0.476,2.487-2.148,2.011-3.735s-2.145-2.487-3.735-2.012
	c-31.779,9.534-25.51,61.341-22.496,86.238c0.339,2.802,0.632,5.222,0.809,7.108c0.175,1.861-0.096,3.78-0.782,5.548l-29.176,75.148
	c-0.073,0.189-0.127,0.384-0.161,0.583l-6.235,36.719c-1.17,6.895-5.356,12.783-11.484,16.154l-2.161,1.188
	c-0.27,0.147-0.502,0.076-0.648-0.01c-0.147-0.087-0.322-0.255-0.322-0.564v-13.948c0-2.224-0.996-4.296-2.731-5.684
	c-1.237-0.99-1.98-2.464-2.041-4.046l-0.459-11.925C99.955,263.087,101.908,259.061,105.342,256.564z M94.618,279.892
	c0.234,3.168,1.76,6.101,4.251,8.096c0.305,0.244,0.479,0.608,0.479,0.999v5.731c-3.487-0.027-6.648,1.307-9.284,3.955
	c-2.556,2.555-6.702,5.989-11.459,9.505l-33.938-2.978L94.618,279.892z M271.696,344.305c-24.241,4.981-77.136,2.125-119.756-0.175
	c-12.326-0.665-23.97-1.293-33.817-1.672c-5.291-0.202-10.138-0.146-14.816,0.176c-20.09,1.38-46.731-0.449-65.552-2.227
	c-1.054-0.097-1.309-0.867-1.366-1.317c-0.048-0.37-0.046-1.272,1.005-1.653c19.249-6.98,35.529-17.727,43.637-23.607
	c0.081-0.048,10.355-7.992,13.282-10.918c1.472-1.477,3.135-2.194,5.037-2.18v2.204c0,2.377,1.222,4.519,3.269,5.729
	c1.054,0.624,2.219,0.935,3.385,0.935c1.099,0,2.199-0.277,3.209-0.832l1.813-0.997c0.668,0.956,1.522,2.344,2.57,4.379
	c2.559,4.964,7.715,8.114,13.223,8.114c0.14,0,1.929-0.054,2.66-0.083c21.823-0.865,29.268-4.69,37.134-8.732
	c4.252-2.185,8.648-4.443,15.774-6.492c3.73-1.068,7.705-2.075,12.147-3.078c34.555-7.775,52.608,13.695,53.407,14.672
	c1.042,1.287,2.93,1.489,4.217,0.446c1.289-1.041,1.49-2.93,0.449-4.219c-0.37-0.457-4.483-5.421-12.235-10.105
	c-0.028-0.192-0.064-0.398-0.109-0.62c-4.582-22.745,0.887-50.912,4.854-71.473c1.349-6.994,2.536-13.17,3.194-18.271l68.213,0.859
	c0.03,0.888,0.06,1.777,0.087,2.678C318.462,272.495,282.152,330.886,271.696,344.305z"/>
<g>
</g>
<g>
</g>
<g>
</g>
<g>
</g>
<g>
</g>
<g>
</g>
<g>
</g>
<g>
</g>
<g>
</g>
<g>
</g>
<g>
</g>
<g>
</g>
<g>
</g>
<g>
</g>
<g>
</g>
</svg>
