<?xml version="1.0" encoding="iso-8859-1"?>
<!-- Generator: Adobe Illustrator 18.0.0, SVG Export Plug-In . SVG Version: 6.00 Build 0)  -->
<!DOCTYPE svg PUBLIC "-//W3C//DTD SVG 1.1//EN" "http://www.w3.org/Graphics/SVG/1.1/DTD/svg11.dtd">
<svg version="1.1" id="Capa_1" xmlns="http://www.w3.org/2000/svg" xmlns:xlink="http://www.w3.org/1999/xlink" x="0px" y="0px"
	 viewBox="0 0 432.1 432.1" style="enable-background:new 0 0 432.1 432.1;" xml:space="preserve">
<path d="M431.475,268.716c-4.191-9.109-31.99-14.888-42.604-14.888c-12.632,0-89.338,9.28-102.091,10.834l-3.63-4.596
	c5.835-3.848,18.432-13.581,23.401-28.478l25.316,3.689l14.437,4.812c4.241,1.414,10.715,2.081,17.635,2.08
	c13.717,0,29.177-2.621,32.398-7.242c1.24-1.777,1.153-3.953-0.227-5.678c-5.198-6.498-33.303-10.863-42.134-12.089l-47.54-13.001
	c-5.363-16.125-19.535-22.019-30.776-25.086c-2.23-0.608-4.667-0.917-7.24-0.917c-9.034,0-18.009,3.746-22.524,5.96
	c-3.08-6.12-12.112-19.727-35.523-32.149c-23.351-12.39-55.596-19.787-86.255-19.787c-28.251,0-53.227,6.243-72.228,18.054
	c-28.554,17.75-35.157,35.421-35.668,47.119c-0.556,12.713,5.629,24.899,17.469,34.553c-4.626,7.378-11.551,9.089-18.849,10.892
	c-3.432,0.848-6.673,1.649-9.661,3.057c-3.461,1.632-5.481,5.158-5.144,8.982c0.334,3.796,2.916,6.891,6.579,7.885
	c10.166,2.759,22.331,3.823,30.746,4.23c4.598,0.224,9.134,1.145,13.483,2.738c12.791,4.688,46.019,15.591,78.246,15.591
	c13.986,0,26.384-2.041,36.851-6.067c14.952-5.75,23.14-13.44,24.338-22.857c1.271-9.99-5.791-19.312-11.621-25.153l19.169,1.598
	c9.398,9.015,64.166,61.205,77.402,66.019c2.04,0.742,4.929,1.103,8.832,1.103c21.905,0,70.323-11.464,84.825-17.092
	c1.595-0.619,3.273-0.934,4.988-0.934l0.254,0.002c3.347,0.063,6.884,0.194,10.628,0.333c5.472,0.203,11.129,0.413,16.543,0.413
	c16.3,0,24.978-2.011,29.02-6.725C432.195,273.73,432.605,271.173,431.475,268.716z M352.582,222.999
	c0.125,0.034,0.252,0.061,0.381,0.078c15.152,2.092,32.744,6.006,37.506,9.11c-5.656,3.065-30.275,6.207-42.268,2.21l-14.689-4.896
	c-0.168-0.057-0.34-0.098-0.516-0.123l-24.966-3.638c0.383-2.195,0.604-4.477,0.604-6.858c0-2.898-0.218-5.572-0.605-8.063
	L352.582,222.999z M22.216,197.614c0.497-11.371,7.404-22.692,20.144-33.231l41.202,34.117l-32.069,40.067
	c-7.191-4.639-13.698-11.05-14.441-11.668C26.999,218.535,21.752,208.225,22.216,197.614z M184.328,255.598
	c-0.898,7.057-7.808,13.118-20.54,18.015c-9.777,3.761-21.451,5.667-34.697,5.667c-31.266,0-63.692-10.646-76.182-15.224
	c-4.919-1.804-10.053-2.846-15.258-3.098c-8.117-0.394-19.818-1.411-29.465-4.029c-1.847-0.501-2.13-2.131-2.173-2.619
	c-0.044-0.499-0.049-2.192,1.726-3.029c2.448-1.153,5.408-1.885,8.541-2.659c7.208-1.781,15.978-3.968,21.916-12.682
	c9.076,8.463,20.278,14.072,32.541,16.262c20.942,3.741,48.473,8.522,60.705,10.051c0.126,0.016,0.252,0.023,0.376,0.023
	c1.491,0,2.783-1.11,2.973-2.628c0.205-1.643-0.961-3.143-2.605-3.349c-12.104-1.514-39.523-6.275-60.394-10.004
	c-5.23-0.934-10.246-2.557-14.951-4.809l32.07-40.068c10.003,2.342,58.69,14.215,78.141,27.781c0.317,0.221,1.112,0.798,1.189,0.854
	C173.378,233.797,185.653,245.183,184.328,255.598z M425.765,272.014c-3.97,4.63-19.395,4.63-24.464,4.63
	c-5.303,0-10.903-0.208-16.32-0.409c-3.772-0.14-7.337-0.272-10.74-0.336l-0.364-0.003c-2.46,0-4.869,0.451-7.16,1.34
	c-14.156,5.494-61.351,16.686-82.653,16.686c-3.921,0-5.852-0.403-6.781-0.741c-10.556-3.839-58.485-48.543-76.063-65.443
	c-0.497-0.479-1.143-0.77-1.83-0.827l-28.552-2.379c-21.321-15.125-74.612-27.606-81.728-29.226l-41.895-34.691
	c2.445-1.788,5.057-3.551,7.844-5.284c18.049-11.22,41.93-17.149,69.06-17.149c29.724,0,60.918,7.136,83.442,19.088
	c22.656,12.021,32.152,26.132,34.003,31.896c0.271,0.876,0.927,1.579,1.781,1.912c0.855,0.332,1.814,0.256,2.604-0.209
	c0.115-0.066,11.58-6.711,22.472-6.711c2.04,0,3.945,0.237,5.662,0.706c14.118,3.851,28.552,10.904,28.552,34.02
	c0,9.801-4.203,19.094-12.493,27.62c-4.178,4.297-8.397,7.308-10.817,8.879l-35.373-41.437c-4.214-4.936-10.068-8.189-16.485-9.158
	c-1.631-0.257-3.167,0.879-3.414,2.518c-0.248,1.638,0.879,3.167,2.518,3.414c4.989,0.755,9.542,3.284,12.819,7.123l43.729,51.863
	c0.649,0.822,1.688,1.249,2.719,1.118c0.898-0.109,89.906-10.994,103.036-10.994c14.084,0,35.161,7.065,37.152,11.396
	C426.115,271.421,426.17,271.54,425.765,272.014z"/>
<g>
</g>
<g>
</g>
<g>
</g>
<g>
</g>
<g>
</g>
<g>
</g>
<g>
</g>
<g>
</g>
<g>
</g>
<g>
</g>
<g>
</g>
<g>
</g>
<g>
</g>
<g>
</g>
<g>
</g>
</svg>
