<?xml version="1.0" encoding="iso-8859-1"?>
<!-- Generator: Adobe Illustrator 18.0.0, SVG Export Plug-In . SVG Version: 6.00 Build 0)  -->
<!DOCTYPE svg PUBLIC "-//W3C//DTD SVG 1.1//EN" "http://www.w3.org/Graphics/SVG/1.1/DTD/svg11.dtd">
<svg version="1.1" id="Capa_1" xmlns="http://www.w3.org/2000/svg" xmlns:xlink="http://www.w3.org/1999/xlink" x="0px" y="0px"
	 viewBox="0 0 455.122 455.122" style="enable-background:new 0 0 455.122 455.122;" xml:space="preserve">
<path d="M323.832,321.17c17.271-23.623,27.212-66.366,25.981-111.901c-1.467-54.23-37.811-106.116-48.915-120.727
	c-22.214-29.228-74.33-38.014-79.384-38.804l-65.246-24.468c-0.912-0.717-3.403-2.659-6.841-5.19
	C130.049,5.812,117.003-0.914,110.633,0.1c-2.286,0.363-3.57,1.563-4.247,2.509c-3.588,5.022,1.677,12.454,6.855,18.25
	c-2.194,4.235-0.206,10.427,2.396,14.035l1.947,2.698c2.925,4.055,15.861,9.859,21.973,9.859c0.186,0,0.351-0.021,0.528-0.03
	c5.838,11.297,21.807,41.35,40.469,69.341c17.814,26.723,44.989,43.863,68.965,58.986c7.374,4.651,14.378,9.068,20.557,13.439
	c-12.757,31.339-14.549,75.584-5.323,131.584c-13.002,25.764-5.979,92.068-4.867,101.751l-1.494,2.31
	c-3.088,4.771-3.686,10.548-1.643,15.851c2.044,5.303,6.366,9.185,11.858,10.649l11.528,3.074c1.789,0.477,3.634,0.716,5.479,0.716
	c1.667,0,3.334-0.195,4.959-0.585l5.784-1.389c4.88-1.171,9.034-4.381,11.397-8.808c2.359-4.419,2.714-9.648,0.975-14.346
	c-0.89-2.401-1.758-5.087-2.583-7.993l0.539-2.283C311.496,399.346,321.464,357.13,323.832,321.17z M111.246,6.119
	c0.922-0.626,5.509-0.006,16.568,6.597c-2.812,0.318-5.676,1.432-8.228,3.24l-1.778,1.002C110.224,8.47,111.252,6.119,111.246,6.119
	z M122.452,34.081l-1.947-2.698c-2.061-2.857-2.879-7.025-1.634-8.136c0,0,7.022-4.733,10.568-4.635
	c1.962,0.054,3.513,0.724,4.609,2.151l1.705,3.216c0.064,0.121,0.137,0.237,0.218,0.349c0.747,1.036,1.046,2.301,0.842,3.562
	c-0.203,1.261-0.887,2.367-1.922,3.113c-1.184,0.854-1.582,2.438-0.94,3.75l3.116,6.38C131.656,39.94,123.636,35.724,122.452,34.081
	z M252.721,170.673c-23.469-14.803-50.068-31.581-67.174-57.239c-17.885-26.828-33.286-55.585-39.518-67.586
	c-0.512-0.986-5.716-11.738-5.716-11.738c1.265-1.483,2.104-3.288,2.424-5.261c0.405-2.51-0.081-5.024-1.359-7.187
	c1.436,1.02,2.931,2.101,4.492,3.25c0.001,0.001,0.003,0.002,0.004,0.003c0.009,0.007,0.015,0.015,0.024,0.021
	c1.851,1.327,6.693,9.758,9.787,16.409c8.492,18.26,28.07,38.188,32.136,42.218c1.78,10.145,9.155,21.38,19.32,29.2
	c5.063,3.896,11.182,6.075,18.185,6.479c0.059,0.003,0.117,0.005,0.176,0.005c1.577,0,2.9-1.232,2.992-2.827
	c0.096-1.654-1.168-3.072-2.822-3.168c-5.777-0.333-10.781-2.098-14.872-5.245c-9.655-7.427-16.45-18.113-17.312-27.226
	c-0.418-4.419,0.607-8.051,3.043-10.792c7.451-8.382,30.54-0.898,44.686,10.89c3.028,2.523,4.845,5.723,5.555,9.778
	c0.711,4.061,0.09,8.132-1.796,11.772c-0.762,1.472-0.187,3.282,1.284,4.044c1.474,0.765,3.283,0.186,4.044-1.284
	c2.495-4.818,3.317-10.201,2.378-15.567c-0.951-5.437-3.516-9.929-7.623-13.353c-11.005-9.17-29.224-17.476-42.299-15.625
	l-36.715-12.948c-1.877-2.971-3.562-5.962-4.92-8.883c-0.125-0.269-1.457-3.117-3.287-6.548l61.861,23.198
	c0.198,0.074,0.403,0.128,0.611,0.159c0.542,0.08,54.412,8.392,75.81,36.549c40.788,53.667,46.814,99.398,47.607,115.097
	c-22.658,7.538-61.61-0.176-72.573-2.609c1.513-5.44,3.303-10.551,5.368-15.328c0.557-1.288,0.146-2.791-0.989-3.616
	C268.74,180.777,260.959,175.869,252.721,170.673z M192.046,66.004c-2.212,2.488-3.653,5.495-4.283,8.88
	c-4.142-4.39-10.255-11.205-15.901-18.773l22.361,7.886C193.445,64.588,192.715,65.252,192.046,66.004z M269.676,210.489
	c7.628,1.726,28.682,6.027,49.102,6.027c8.886,0,17.636-0.832,25.115-3.029c0.218,18.828-1.586,37.302-5.05,53.912
	c-11.554,0.168-22.728-0.253-32.802-0.942c0.526-5.355,0.929-9.736,1.153-12.234c4.309-0.355,8.547-2.828,12.625-7.387
	c1.105-1.234,1-3.131-0.235-4.235c-1.233-1.105-3.132-1.002-4.235,0.235c-3.464,3.87-6.787,5.679-9.895,5.406
	c-4.761-0.434-8.015-5.64-8.079-5.744c-0.855-1.413-2.692-1.869-4.111-1.02c-1.42,0.853-1.881,2.695-1.028,4.116
	c0.161,0.267,3.41,5.559,9.018,7.739c-0.33,3.721-0.733,8.053-1.188,12.674c-16.93-1.384-29.95-3.387-35.069-4.243
	C264.65,242.475,266.214,225.357,269.676,210.489z M270.154,445.535c-3.615-0.965-6.46-3.52-7.806-7.011
	c-1.345-3.489-0.951-7.292,1.081-10.433l2.081-3.217c0.382-0.59,0.544-1.295,0.46-1.992c-0.092-0.751-8.975-75.395,4.541-100.173
	c0.321-0.589,0.436-1.268,0.325-1.93c-3.176-19.06-5.062-36.707-5.67-52.906c5.871,0.954,18.379,2.803,34.296,4.108
	c-1.837,17.898-4.258,37.941-6.155,43.63c-3.594,10.779-9.149,54.514-10.356,71.424c-1.159,16.222-0.574,61.735-0.574,61.735
	c-0.233-0.05-0.465-0.101-0.695-0.162L270.154,445.535z M300.845,418.34l-0.717,3.04c-0.116,0.492-0.105,1.005,0.029,1.491
	c0.932,3.351,1.923,6.449,2.944,9.208c1.145,3.09,0.911,6.529-0.641,9.437c-1.556,2.914-4.29,5.027-7.504,5.799l-5.784,1.389
	c-0.264,0.063-0.53,0.116-0.797,0.165c0,0-0.596-45.244,0.559-61.404c1.159-16.231,6.665-59.758,10.064-69.954
	c2.185-6.553,4.731-28.388,6.442-45.077c8.747,0.603,18.313,1.009,28.246,1.009c1.259,0,2.541-0.028,3.812-0.042
	c-4.406,18.384-10.911,34.105-19.005,44.896c-0.351,0.468-0.558,1.028-0.594,1.612C315.672,355.551,305.658,397.96,300.845,418.34z"
	/>
<g>
</g>
<g>
</g>
<g>
</g>
<g>
</g>
<g>
</g>
<g>
</g>
<g>
</g>
<g>
</g>
<g>
</g>
<g>
</g>
<g>
</g>
<g>
</g>
<g>
</g>
<g>
</g>
<g>
</g>
</svg>
