<?xml version="1.0" encoding="iso-8859-1"?>
<!-- Generator: Adobe Illustrator 18.0.0, SVG Export Plug-In . SVG Version: 6.00 Build 0)  -->
<!DOCTYPE svg PUBLIC "-//W3C//DTD SVG 1.1//EN" "http://www.w3.org/Graphics/SVG/1.1/DTD/svg11.dtd">
<svg version="1.1" id="Capa_1" xmlns="http://www.w3.org/2000/svg" xmlns:xlink="http://www.w3.org/1999/xlink" x="0px" y="0px"
	 viewBox="0 0 429.017 429.017" style="enable-background:new 0 0 429.017 429.017;" xml:space="preserve">
<path d="M424.815,258.422l3.955-24.719c1.127-7.044-1.644-14.147-7.243-18.568l-6.141-4.848c-2.768-2.185-6.681-2.471-9.59-0.477
	c-2.932,2.01-4.141,5.503-3.081,8.896l2.109,6.751c0.07,3.557-0.258,29.055-23.836,31.413c-11.735,1.174-35.676,0.84-59.221,0.073
	c4.531-2.456,8.5-5.757,11.751-9.856c8.67-10.93,11.497-26.68,7.375-41.104c-8.583-30.041-57.96-30.416-68.251-30.156
	c-2.696-4.263-11.001-16.499-24.266-28.161c-20.599-18.109-43.713-26.289-67.023-23.772c-1.6-7.488-6.163-16.216-13.682-21.027
	c-5.76-3.686-12.355-4.45-19.074-2.21c-2.07,0.691-7.533,2.529-31.804,22.313l-57.046,3.802c-6.625,0.437-13.281-0.851-19.258-3.736
	l-11.759-5.677c-4.44-2.143-9.779-0.621-12.423,3.539L5.747,137.521c-0.853,1.343-1.852,2.582-2.855,3.818
	c-2.291,2.825-3.334,6.519-2.717,10.28c0.524,3.196,2.319,6.047,4.819,8.106l7.492,6.17c4.996,4.114,11.888,5.053,17.802,2.424
	l6.284-2.793c5.998-2.664,12.843-2.569,18.783,0.263c2.615,1.247,5.196,2.439,7.727,3.575C52,179.288,44.291,186.377,44.166,186.493
	c-0.354,0.339-8.743,8.435-15.846,20.155c-9.64,15.906-12.129,30.829-7.2,43.154c5.538,13.844,13.019,22.395,22.871,26.14
	c3.553,1.351,7.392,2.084,11.562,2.203c1.195,5.92,6.161,18.625,26.61,21.24l-0.567,1.188c-1.712,3.584-1.943,7.766-0.353,11.405
	c1.793,4.103,5.391,6.971,9.747,7.81l45.762,8.795c3.604,0.692,7.24,1.036,10.865,1.036c7.202,0,14.357-1.358,21.11-4.04
	c3.298-1.301,7.014-2.868,11.044-4.654c3.068-1.357,5.009-4.286,5.065-7.642c0.056-3.324-1.764-6.285-4.749-7.728
	c-4.7-2.275-9.304-4.844-13.691-7.57c17.072-0.724,52.729-2.351,63.797-3.743c7.583-0.954,18.422-1.429,35.089,3.396
	c6.781,1.963,18.636,2.701,32.638,2.701c40.022,0,97.563-6.032,104.155-6.737l9.03,1.901c5.605,1.182,11.437-0.992,14.906-5.765
	c2.413-3.32,3.205-7.552,2.458-11.588L424.815,258.422z M161.032,195.044c12.194,4.269,27.584,9.182,41.705,12.307
	c-4.651,1.352-10.271,3.106-16.431,5.275c-17.36,6.112-31.909,12.974-43.425,20.464
	C147.771,222.081,153.992,208.999,161.032,195.044z M216.757,209.84c1.845,0.217,3.646,0.341,5.381,0.341
	c1.543,0,3.033-0.096,4.476-0.267c9.084,21.602,22.004,36.369,39.105,44.553c-0.03-0.002-0.062-0.003-0.091-0.005
	c-3.87-0.21-7.607-1.217-11.108-2.991c-11.334-5.744-42.106-18.799-92.693-22.157C186.431,217.189,213.002,210.72,216.757,209.84z
	 M150.496,106.348c5.01-1.671,9.7-1.141,13.941,1.573c6.064,3.88,9.804,11.278,11.075,17.357c0.165,0.788,0.445,2.757,0.515,3.232
	c0.352,2.381,1.323,10.031,0.637,18.024c-17.467-2.475-30.902-3.176-39.954-2.076c-2.292,0.278-4.526,0.104-6.638-0.516
	c-5.648-1.661-14.254-2.603-25.648-2.828C136.827,113.527,147.195,107.45,150.496,106.348z M26.122,122.762l11.759,5.677
	c6.91,3.336,14.606,4.828,22.265,4.319l48.725-3.247c-4.097,3.423-8.634,7.27-13.638,11.573c-15.31,0.17-31.103,1.344-39.266,2.042
	c-3.92,0.336-7.786-0.81-10.891-3.226l-9.646-7.502c-5.102-3.968-11.864-4.809-17.675-2.588l3.617-5.694
	C22.382,122.523,24.424,121.942,26.122,122.762z M34.135,160.044l-6.284,2.793c-3.862,1.716-8.289,1.115-11.551-1.573l-7.755-6.387
	c-1.606-1.322-2.534-3.274-2.545-5.354c-0.011-2.08,0.894-4.042,2.486-5.381l7.97-6.711c4.36-3.672,10.79-3.797,15.291-0.297
	l9.646,7.502c4.301,3.345,9.662,4.932,15.085,4.468c8.273-0.707,24.458-1.912,39.906-2.034c14.887-0.128,25.646,0.761,31.997,2.628
	c2.899,0.851,5.944,1.092,9.053,0.715c9.039-1.098,22.975-0.258,41.415,2.5c21.281,3.209,41,7.903,41.197,7.95
	c1.609,0.385,3.23-0.608,3.615-2.22c0.386-1.611-0.608-3.23-2.219-3.615c-0.19-0.046-18.418-4.385-38.835-7.605
	c0.653-7.079,0.105-13.808-0.347-17.587c52.796-5.524,85.815,49.988,86.148,50.559c0.566,0.97,1.635,1.538,2.747,1.487
	c0.561-0.027,55.89-2.533,63.97,25.749c3.599,12.596,1.183,26.286-6.307,35.726c-4.917,6.197-14.242,13.405-30.718,12.683
	c-0.189-0.008-0.379-0.016-0.567-0.024c-30.592-1.599-51.868-17.108-64.94-47.375c7.824-2.496,13.976-8.004,17.921-16.105
	c3.332-6.843,3.909-13.127,3.932-13.392c0.143-1.651-1.079-3.105-2.729-3.248c-1.657-0.147-3.105,1.079-3.248,2.73
	c-0.019,0.214-2.07,21.448-20.55,25.026c-3.268,0.637-6.961,0.698-10.973,0.179c-17.362-2.269-40.252-9.583-56.399-15.32
	c-8.365-2.969-15.422-5.691-19.87-7.451c-3.554-1.407-7.36-1.805-11.004-1.157c-3.566,0.637-10.036,0.96-20.602-1.113
	c-11.204-2.206-24.436-6.594-39.329-13.044c-3.792-1.639-7.763-3.446-11.804-5.373C50.412,156.785,41.737,156.665,34.135,160.044z
	 M94.474,259.26c-0.104,0.637-0.462,1.166-0.963,1.537c-0.236,0.175-1.716,0.847-2,0.987c-6.196,3.058-11.899,5.425-17.145,7.125
	c-28.129-29.607-14.223-83.548-12.235-90.628c2.156-1.941,4.504-4.048,7.001-6.279c13.468,5.736,25.622,9.803,36.21,12.121
	C104.295,197.762,98.44,234.936,94.474,259.26z M26.692,247.573c-10.28-25.7,21.307-56.442,21.581-56.707
	c0.044-0.041,2.247-2.066,5.946-5.427c-1.375,6.576-2.895,15.974-3.256,26.602c-0.833,24.509,5.036,44.645,16.982,58.661
	c-8.66,2.008-15.893,1.886-21.822-0.369C37.927,267.217,31.571,259.772,26.692,247.573z M61.585,277.907
	c8.939-0.911,19.304-4.293,31.508-10.223c-0.565,3.424-1.055,6.37-1.437,8.66c-0.553,3.267-1.558,6.438-2.988,9.426l-3.767,7.885
	C67.314,292.119,62.761,282.717,61.585,277.907z M178.837,313.181c-0.006,0.377-0.133,1.654-1.496,2.257
	c-3.956,1.754-7.595,3.288-10.822,4.561c-9.092,3.611-18.995,4.542-28.634,2.69l-45.76-8.794c-2.267-0.436-4.162-1.868-5.2-3.928
	c-1.035-2.055-1.058-4.424-0.06-6.505l7.216-15.103c1.67-3.49,2.845-7.195,3.492-11.02c3.75-22.45,12.175-73.921,13.695-92.061
	c9.554,1.563,15.8,1.186,19.457,0.533c2.546-0.455,5.224-0.169,7.743,0.829c3.913,1.549,9.826,3.834,16.868,6.379
	c-6.727,13.408-29.729,60.06-29.729,71.025c0,13.514,30.208,36.431,51.867,46.913C178.727,311.562,178.844,312.714,178.837,313.181z
	 M422.845,232.755l-4.037,25.23c-0.054,0.338-0.05,0.684,0.013,1.021l3.811,20.581c0.534,2.887-0.364,5.718-2.465,7.769
	c-2.101,2.051-4.955,2.881-7.827,2.275l-9.496-2c-0.309-0.065-0.626-0.082-0.941-0.047c-1.09,0.118-109.297,11.715-134.955,4.289
	c-17.718-5.129-29.35-4.609-37.505-3.585c-13.17,1.656-63.981,3.737-71.541,4.041c-15.3-10.897-26.296-22.765-26.296-28.286
	c0-2.79,2.456-10.087,6.701-20.333c4.077-3.202,8.571-6.176,13.286-8.923c55.367,2.127,88.502,16.1,100.212,22.035
	c4.249,2.153,8.789,3.374,13.496,3.63c21.302,1.158,92.647,4.752,116.282,2.388c24.317-2.432,29.748-25.93,29.223-38.016
	c-0.011-0.259-0.056-0.517-0.134-0.765l-2.232-7.144c-0.381-1.22,0.394-1.913,0.745-2.155c0.351-0.241,1.275-0.717,2.279,0.075
	l6.345,5.009C421.698,222.916,423.628,227.863,422.845,232.755z"/>
<g>
</g>
<g>
</g>
<g>
</g>
<g>
</g>
<g>
</g>
<g>
</g>
<g>
</g>
<g>
</g>
<g>
</g>
<g>
</g>
<g>
</g>
<g>
</g>
<g>
</g>
<g>
</g>
<g>
</g>
</svg>
