<?xml version="1.0" encoding="iso-8859-1"?>
<!-- Generator: Adobe Illustrator 18.0.0, SVG Export Plug-In . SVG Version: 6.00 Build 0)  -->
<!DOCTYPE svg PUBLIC "-//W3C//DTD SVG 1.1//EN" "http://www.w3.org/Graphics/SVG/1.1/DTD/svg11.dtd">
<svg version="1.1" id="Capa_1" xmlns="http://www.w3.org/2000/svg" xmlns:xlink="http://www.w3.org/1999/xlink" x="0px" y="0px"
	 viewBox="0 0 371.467 371.467" style="enable-background:new 0 0 371.467 371.467;" xml:space="preserve">
<path d="M367.068,159.366c-8.322-24.965-25.487-47.865-48.335-64.482c-21.977-15.983-47.332-25.041-71.397-25.503
	c-33.46-0.635-65.437,10.395-81.44,28.122c-8.938,9.902-12.861,21.716-11.343,34.166c3.742,30.68,14.855,69.277,18.637,81.867
	c-12.08-0.567-25.748,0.466-35.645,3.765c-11.445,3.815-32.775,10.776-44.471,14.586c-3.172,1.033-6.587,1.294-9.904,0.75
	c-7.111-1.222-14.444,0.633-20.118,5.091l-9.066,7.123c-2.455,1.929-3.882,4.825-3.916,7.946c-0.009,0.866,0.099,1.713,0.298,2.533
	L4.233,283.328c-3.293,1.998-4.862,5.712-3.998,9.463c0.865,3.754,3.904,6.411,7.744,6.769c17.071,1.587,40.666,2.185,56.691-3.872
	c29.055,0.953,161.205,6.271,162.546,6.325c0.04,0.001,0.08,0.002,0.12,0.002c0.031,0,0.062,0,0.093-0.001
	c0.477-0.015,11.792-0.476,20.587-10.461c2-2.27,3.699-4.831,5.097-7.674c4.733,7.442,15.889,18.235,40.828,18.233
	c1.37,0,2.789-0.033,4.243-0.101c10.487-0.488,18.966-4.394,25.201-11.61c12.265-14.195,11.989-36.777,11.619-43.345
	c7.762-5.278,16.943-13.036,24.213-23.625C372.262,204.429,374.904,182.874,367.068,159.366z M170.35,101.523
	c7.707-8.537,19.513-15.401,33.517-19.956c12.286,4.618,35.406,28.844,36.787,59.81c0.009,9.672,1.283,24.674,3.011,39.073
	c-10.773,4.074-26.644,2.511-46.123-4.58c-14.824-5.397-27.492-12.436-31.801-14.935c-2.167-10.082-4.065-20.432-5.231-29.993
	C159.189,120.117,162.5,110.219,170.35,101.523z M254.214,209.937c-0.718-3.525-1.465-7.815-2.198-12.559l23.588-0.47
	c0.18,5.41,0.605,10.111,0.935,13.12c-2.121-0.008-4.372-0.029-6.745-0.051C265.012,209.934,259.771,209.888,254.214,209.937z
	 M275.522,190.909l-24.39,0.486c-2.18-15.426-4.064-33.839-4.419-46.225c10.446,3.236,18.753,10.271,26.171,16.554
	c2.103,1.782,4.12,3.489,6.083,5.021C276.389,173.627,275.579,182.634,275.522,190.909z M167.488,168.783
	c12.238,6.618,39.596,19.855,62.673,19.855c5.027,0,9.846-0.639,14.265-2.101c1.164,8.917,2.461,17.245,3.69,23.5
	c-14.56,0.336-30.846,1.526-46.732,5.232c-4.129,0.963-8.26,1.018-12.279,0.163c-2.829-0.602-6.046-1.085-9.505-1.431
	C177.82,208.176,172.317,189.716,167.488,168.783z M243.593,287.495c-6.688,7.664-15.374,8.455-16.275,8.517
	c-5.005-0.202-135.665-5.457-163.063-6.341c-0.41-0.011-0.814,0.057-1.194,0.206c-14.935,5.867-37.895,5.255-54.527,3.708
	c-1.858-0.172-2.347-1.682-2.452-2.141c-0.105-0.457-0.325-2.022,1.264-2.987l46.095-27.974c0.125,0.113,0.241,0.234,0.372,0.342
	l8.926,7.333c4.034,3.313,9.04,5.025,14.085,5.025c3.29,0,6.598-0.729,9.66-2.216l12.095-5.875c5.088-2.471,10.761-3.7,16.404-3.571
	c49.493,1.181,72.631-3.031,83.416-6.973c3.411,4.543,8.993,13.858,7.84,21.348c-0.251,1.638,0.872,3.169,2.509,3.421
	c0.154,0.023,0.308,0.035,0.46,0.035c1.455,0,2.733-1.061,2.961-2.544c1.451-9.431-4.465-19.487-8.017-24.526
	c11.449,0.954,31.852,1.369,47.601,1.549C252.783,268.783,250.044,280.103,243.593,287.495z M318.845,286.478
	c-5.117,5.922-12.162,9.132-20.94,9.54c-32.626,1.51-40.604-15.961-41.953-19.778c1.746-6.419,2.364-13.876,1.822-22.35
	c7.593,0.065,13.353,0.076,15.218,0.077c4.147,1.607,28.684,10.334,49.009,0.614c1.777-0.85,4.229-2.105,7.099-3.79
	C329.156,259.074,328.021,275.858,318.845,286.478z M319.414,249.169c-19.367,9.262-44.45-0.87-44.698-0.972
	c-0.364-0.15-0.753-0.228-1.147-0.228c-0.515,0-51.747-0.021-70.426-1.799c-0.663-0.066-1.332,0.097-1.895,0.456
	c-15.398,9.799-69.812,9.288-86.122,8.898c-6.597-0.155-13.224,1.286-19.168,4.172l-12.095,5.875
	c-5.659,2.749-12.455,1.944-17.315-2.048l-8.926-7.333c-1-0.821-1.565-2.034-1.551-3.328c0.014-1.293,0.605-2.494,1.623-3.293
	l9.066-7.123c3.458-2.717,7.722-4.171,12.101-4.171c1.119,0,2.244,0.095,3.366,0.288c4.232,0.694,8.626,0.358,12.706-0.97
	c11.704-3.813,33.049-10.778,44.511-14.599c13.569-4.523,35.696-4.398,48.413-1.692c4.888,1.041,9.898,0.978,14.891-0.189
	c23.736-5.538,48.735-5.305,66.99-5.133c6.47,0.06,12.059,0.112,16.653-0.087c18.611-0.809,24.835-19.968,25.526-29.986
	c0.114-1.651-1.131-3.081-2.782-3.197c-1.662-0.12-3.085,1.128-3.204,2.779c-0.069,0.964-1.907,23.632-19.801,24.41
	c-1.116,0.048-2.301,0.081-3.55,0.102c-0.873-7.812-2.855-31.018,2.768-42.967c0.613-1.303,0.214-2.857-0.95-3.704
	c-2.384-1.734-4.936-3.895-7.637-6.183c-7.913-6.703-17.66-14.947-30.262-18.267c-2.141-28.326-20.501-50.689-34.33-59.677
	c10.933-2.694,22.87-4.058,35.053-3.821c22.847,0.439,46.991,9.089,67.983,24.356c21.844,15.887,38.242,37.738,46.171,61.527
	C364.633,171.034,377.916,221.189,319.414,249.169z"/>
<g>
</g>
<g>
</g>
<g>
</g>
<g>
</g>
<g>
</g>
<g>
</g>
<g>
</g>
<g>
</g>
<g>
</g>
<g>
</g>
<g>
</g>
<g>
</g>
<g>
</g>
<g>
</g>
<g>
</g>
</svg>
