<?xml version="1.0" encoding="iso-8859-1"?>
<!-- Generator: Adobe Illustrator 18.0.0, SVG Export Plug-In . SVG Version: 6.00 Build 0)  -->
<!DOCTYPE svg PUBLIC "-//W3C//DTD SVG 1.1//EN" "http://www.w3.org/Graphics/SVG/1.1/DTD/svg11.dtd">
<svg version="1.1" id="Capa_1" xmlns="http://www.w3.org/2000/svg" xmlns:xlink="http://www.w3.org/1999/xlink" x="0px" y="0px"
	 viewBox="0 0 448.477 448.477" style="enable-background:new 0 0 448.477 448.477;" xml:space="preserve">
<path d="M283.503,155.069c5.938-10.985,15.875-29.372,5.279-47.028c-6.346-11.422-24.456-14.557-27.699-15.032l-10.44-4.745
	l5.252-11.448c3.006-6.572,2.524-13.945-0.746-19.937c0.089-0.314,0.165-0.601,0.224-0.835c0.175-0.693,4.219-17.174-0.906-33.83
	c-2.977-9.675-14.239-20.568-27.934-22.053c-11.415-1.23-21.429,4.628-28.151,16.521c-14.98,26.502,2.509,52.163,6.83,57.828
	c-1.64,8.161-7.103,14.992-14.801,18.423c-18.476,8.231-29.502,15.391-32.774,21.279c-7.012,12.625,1.128,26.191,12.395,44.967
	c9.712,16.188,15.699,67.13,16.714,76.33c-4.607,4.724-21.036,23.833-10.706,46.788c2.156,4.8,5.741,9.967,10.656,15.358
	c0.017,0.017,0.032,0.035,0.049,0.053c5.824,6.368,12.903,12.41,19.837,17.683c-4.705,7.483-17.225,30.671-9.692,55.42
	c1.21,3.975,2.394,7.633,3.538,10.995l-5.861,16.792c-0.899,2.576-0.398,5.369,1.34,7.473c1.489,1.802,3.648,2.807,5.935,2.807
	c0.382,0,0.768-0.028,1.154-0.085l7.819-1.158c0.883,1.796,1.556,3.053,1.966,3.789l-0.879,28.13
	c-0.099,3.19,1.556,6.164,4.319,7.761c1.343,0.775,2.836,1.162,4.328,1.162c1.579,0,3.157-0.433,4.554-1.297l4.148-2.569
	c8.681-5.372,12.175-16.13,8.309-25.579l-5.083-12.425l5.74-36.736c8.494-2.361,41.196-12.775,44.733-33.999
	c2.685-16.109-4.91-31.682-12.136-42.291c2.506-6.431,11.372-32.144,4.681-58.911c-7.016-28.064,0.987-65.777,5.945-75.692
	C282.012,157.828,282.736,156.488,283.503,155.069z M258.998,98.652c0.274,0.124,0.567,0.207,0.866,0.245
	c0.183,0.023,18.322,2.426,23.724,12.144c6.224,10.375,3.879,21.265-0.033,30.467c-0.002,0.004-0.005,0.007-0.007,0.011
	c-2.459,4.947-13.046,8.317-31.428,10.033c0.587-2.935,1.028-5.937,1.301-8.967c0.681-7.555-0.503-15.273-3.389-22.462l9.007-9.329
	c1.15-1.192,1.117-3.091-0.074-4.242c-1.19-1.149-3.09-1.117-4.242,0.074l-7.294,7.554l-4.826-10.725l5.356-9.82L258.998,98.652z
	 M250.439,74.316l-6.46,14.085l-5.915,10.846c0,0-1.719,3.32-1.841,3.661c-1.626,4.549-13.044,35.567-26.151,47.582
	c-1.741,1.599-3.236,2.333-4.19,2.074c-0.528-0.144-2.388-1.06-4.156-6.827c-1.425-4.657-1.796-9.608-1.165-14.49
	c0.062-0.482,0.453-2.875,0.62-3.452c0.744-3.25,1.93-6.43,3.566-9.426l15.262-27.889l8.616-0.854
	c2.398-0.238,4.556-1.398,6.077-3.267c1.523-1.868,2.222-4.217,1.97-6.614l-1.839-17.466c-0.039-0.367-0.15-0.714-0.318-1.032
	c-0.09-0.171-0.712-1.004-0.712-1.004l-8.338-10.19c-0.95-1.161-1.32-2.671-1.015-4.141l2.986-14.331l2.9,9.669
	c0.925,3.083,2.941,5.714,5.677,7.408l8.203,5.08C251.162,58.043,253.836,66.89,250.439,74.316z M221.162,84.336l0.046-6.764
	c0.031-4.498,2.74-8.505,6.903-10.208l1.174-0.479l1.42,13.488c0.083,0.796-0.148,1.577-0.654,2.197
	c-0.506,0.62-1.223,1.006-2.018,1.085L221.162,84.336z M175.45,156.426c-0.247-0.322-0.473-0.663-0.682-1.012
	c-11.308-18.867-16.919-29.228-11.887-38.287c2.516-4.527,13.439-11.348,29.971-18.713c9.936-4.427,16.85-13.458,18.496-24.158
	c0.001-0.002,0.016-0.101,0.016-0.104c0.131-0.863-0.123-1.744-0.692-2.407c-0.899-1.047-21.858-25.941-7.067-52.109
	c5.549-9.818,13.262-14.493,22.282-13.51c10.738,1.164,20.481,10.17,22.846,17.852c3.243,10.541,2.356,21.287,1.526,26.808
	c-0.893-0.778-1.845-1.505-2.88-2.147l-8.203-5.081c-1.489-0.922-2.589-2.358-3.092-4.035l-4.091-13.638
	c-0.661-2.206-2.638-3.607-4.952-3.521c-2.3,0.1-4.16,1.681-4.63,3.934l-3.833,18.393c-0.677,3.254,0.142,6.595,2.245,9.164
	l6.137,7.5l-1.119,0.458c-6.392,2.615-10.585,8.816-10.632,15.722l-0.063,9.336l-15.662,28.621c-0.967,1.771-1.796,3.6-2.497,5.466
	l-6.156-9.275c-0.898-1.353-2.716-1.892-4.114-1.066c-1.492,0.882-1.924,2.82-0.979,4.246l9.156,13.795
	c-1.095,6.305-0.759,12.779,1.095,18.839c1.937,6.313,4.658,9.864,8.32,10.859c0.655,0.178,1.32,0.267,1.993,0.267
	c2.513,0,5.137-1.242,7.826-3.709c11.292-10.351,20.952-32.423,25.385-43.702l4.262,9.472c3.05,6.777,4.319,14.165,3.669,21.364
	c-1.732,19.216-9.994,34.172-17.259,39.016c-4.376,2.919-14.312,1.81-25.307-2.827C193.052,173.248,182.11,165.129,175.45,156.426z
	 M202.115,402.857c-0.873,0.128-1.399-0.384-1.587-0.609c-0.187-0.226-0.59-0.841-0.3-1.672l3.414-9.782
	c1.678,4.449,3.211,8.154,4.537,11.165L202.115,402.857z M232.561,367.187l-6.144,39.32c-0.085,0.54-0.02,1.093,0.188,1.599
	l5.399,13.198c2.751,6.726,0.265,14.382-5.915,18.206l-4.147,2.569c-1.218,0.754-2.308,0.28-2.721,0.041
	c-0.413-0.238-1.368-0.947-1.324-2.378l0.906-28.977c0.018-0.573-0.131-1.142-0.425-1.635c-0.072-0.121-7.352-12.469-15.75-40.066
	c-6.616-21.734,4.453-42.933,8.809-50.081c9.868,7.104,18.733,12.364,22.289,14.406L232.561,367.187z M277.029,334.885
	c-2.7,16.197-28.44,25.558-38.337,28.581l0.92-26.686l0.106,0.061c0.474,0.274,0.99,0.405,1.501,0.405
	c1.035,0,2.042-0.537,2.599-1.497c0.831-1.434,0.342-3.268-1.092-4.1c0,0-6.043-3.465-8.509-4.936
	c-8.512-5.076-28.66-17.799-42.042-31.974c2.944-14.083,8.729-23.915,17.204-29.236c9.434-5.926,19.613-4.436,22.258-3.905
	c2.97,2.749,16.441,15.255,24.012,22.824C258.262,287.038,281.067,310.658,277.029,334.885z M266.511,287.729
	c-3.2-4.05-5.808-6.737-6.62-7.548c-6.913-6.913-18.656-17.861-23.048-21.938c-1.061-0.985-6.373-4.995-6.373-4.995l-7.487-5.431
	c-1.342-0.973-3.218-0.673-4.19,0.667c-0.973,1.341-0.674,3.217,0.667,4.19l3.356,2.435c-4.861,0.335-10.766,1.656-16.542,5.26
	c-9.011,5.621-15.367,15.286-18.94,28.775c-2.563-3.272-4.514-6.388-5.825-9.307c-8.925-19.831,5.505-36.14,9.438-40.072
	c4.361,0.46,18.357,1.85,33.679,2.488c5.363,0.224,10.337,0.335,14.919,0.335c14.011,0,24.333-1.046,30.865-3.122
	C274.4,259.505,269.42,278.898,266.511,287.729z M276.07,156.295c-4.708,9.417-13.629,46.777-6.985,77.295
	c-15.273,5.289-57.841,2.289-76.478,0.321c-1.017-9.154-4.922-41.514-11.486-63.182c12.906,10.651,29.989,17.89,42.169,17.89
	c4.067,0,7.589-0.808,10.224-2.564c7.266-4.844,13.567-15.585,17.131-28.339c0.218-0.019,0.442-0.039,0.67-0.059
	c9.04-0.788,19.09-2.09,26.698-5.047C277.304,153.922,276.631,155.173,276.07,156.295z"/>
<g>
</g>
<g>
</g>
<g>
</g>
<g>
</g>
<g>
</g>
<g>
</g>
<g>
</g>
<g>
</g>
<g>
</g>
<g>
</g>
<g>
</g>
<g>
</g>
<g>
</g>
<g>
</g>
<g>
</g>
</svg>
