<?xml version="1.0" encoding="iso-8859-1"?>
<!-- Generator: Adobe Illustrator 18.0.0, SVG Export Plug-In . SVG Version: 6.00 Build 0)  -->
<!DOCTYPE svg PUBLIC "-//W3C//DTD SVG 1.1//EN" "http://www.w3.org/Graphics/SVG/1.1/DTD/svg11.dtd">
<svg version="1.1" id="Capa_1" xmlns="http://www.w3.org/2000/svg" xmlns:xlink="http://www.w3.org/1999/xlink" x="0px" y="0px"
	 viewBox="0 0 425.114 425.114" style="enable-background:new 0 0 425.114 425.114;" xml:space="preserve">
<path d="M422.56,343.57c-6.909-4.608-21.195-12.564-40.611-15.234c-6.039-1.792-14.304-7.249-24.099-15.763l22.52,0.339h0.083
	c1.748,0,3.431-0.818,4.4-2.272c1.756-2.636,1.021-5.905-1.406-7.533c-6.775-4.544-20.949-12.515-40.269-15.278
	c-0.354-0.051-0.701-0.122-1.041-0.232c-5.037-1.633-11.662-5.745-19.326-11.986c-0.752-0.612-3.988-3.916-4.84-4.936
	c-19.471-23.317-39.147-50.523-53.99-74.809c-0.839-1.291-1.728-2.702-2.693-4.236c-10.72-17.027-30.667-48.712-96.857-99.265
	c-1.962-1.837-22.662-20.763-42.601-20.763c-4.912,0-9.425,1.155-13.415,3.436C85.535,88.115,58.251,161.6,50.646,195.69
	c-0.51,2.288-1.58,4.419-3.094,6.163c-29.457,33.92-36.126,63.42-36.533,82.192c0.002,0.089,0.004,0.172,0.006,0.26
	c0.344,5.587-3.169,18.348-9.893,35.938c-3.203,8.379,0.612,17.952,8.684,21.794c8.053,3.831,20.103,8.398,31.784,8.398
	c4.011,0,7.779-0.538,11.198-1.6c4.764-1.479,8.847-3.01,12.144-4.555c3.225-1.511,5.28-4.883,4.807-8.412
	c-0.465-3.468-2.98-6.126-6.417-6.777c-12.806-2.426-23.065-5.981-29.172-10.087c0.093-0.917,0.221-1.922,0.383-3.003
	c7.799,2.128,15.123,3.187,22.657,3.187c7.255,0,14.706-0.981,22.957-2.927c3.44-0.811,6.141-3.686,6.394-7.211
	c0.259-3.613-1.869-6.889-5.266-8.129c-2.434-0.888-5.623-1.638-9.315-2.507c-3.353-0.788-7.152-1.683-10.676-2.778
	c-3.472-1.08-5.673-4.566-5.12-8.108c3.281-21.028,24.263-54.905,26.851-59.022c0.094-0.121,0.188-0.241,0.282-0.362
	c19.777-20.719,38.474-40.255,50.932-66.419c5.217-10.434,9.401-14.591,11.471-16.156c4.351,4.636,16.759,19.042,21.611,37.239
	c6.171,23.141,52.608,36.283,60.018,38.242c-0.002,0.071-0.001,0.06-0.003,0.132c-5.983,1.964-10.605,7.276-11.467,13.928
	c-1.334,10.31-0.97,25.628,8.342,40.059c7.294,11.292,15.858,18.145,25.454,20.366c2.307,0.534,4.487,0.754,6.513,0.754
	c6.929,0,12.053-2.569,14.257-3.914c4.323-2.639,8.498-7.03,11.631-12.139c2.342,2.228,4.506,4.198,6.397,5.786
	c9.095,17.225,41.646,38.215,65.485,53.588c0,0,2.709,1.634,3.02,1.792c5.054,2.559,9.225,4.935,12.411,7.071
	c4.258,2.854,9.225,4.404,14.363,4.482l35.928,0.545c0.016,0.001,0.074,0.019,0.086,0c2.515,0,4.679-1.716,5.237-4.218
	C425.484,347.082,424.437,344.822,422.56,343.57z M342.105,293.737c16.634,2.337,29.212,8.781,36.138,13.142l-27.123-0.408
	c-4.581-4.319-9.43-9.208-14.484-14.606c1.434,0.652,2.805,1.184,4.104,1.582C341.196,293.544,341.648,293.64,342.105,293.737z
	 M62.215,334.987c1.267,0.24,1.532,1.263,1.588,1.69c0.055,0.426,0.059,1.474-1.096,2.023c-3.097,1.478-7.03,2.96-11.688,4.405
	c-2.843,0.883-6.012,1.33-9.42,1.33c-10.561,0-21.711-4.251-29.205-7.816c-5.265-2.506-7.751-8.758-5.658-14.233
	c7.183-18.79,10.643-31.685,10.284-38.331c0.744-32.172,19.471-60.314,35.062-78.268c2.166-2.494,3.694-5.533,4.42-8.79
	c5.494-24.628,18.706-61.12,32.451-87.037c4.126,10.525,11.565,21.977,22.203,34.147c7.126,8.151,13.659,14.273,16.686,17.001
	c-12.022,24.249-29.816,42.926-48.644,62.652c-0.189,0.198-0.382,0.401-0.572,0.6c-0.004,0.004-0.007,0.008-0.011,0.012
	c-4.925,5.159-9.998,10.482-15.003,15.956c-24.801,27.126-34.679,65.57-35.577,79.937c-0.063,0.999,0.377,1.963,1.172,2.57
	C37.684,329.318,51.836,333.022,62.215,334.987z M50.246,286.603c-1.008,6.459,2.976,12.806,9.267,14.763
	c3.726,1.159,7.635,2.079,11.084,2.891c3.36,0.79,6.534,1.537,8.633,2.303c1.324,0.483,1.36,1.677,1.34,2.03
	c-0.025,0.43-0.218,1.459-1.474,1.759c-16.081,3.832-28.877,3.777-43.457-0.271c3.468-16.218,12.588-42.19,29.476-62.339
	C58.739,259.992,52.071,274.912,50.246,286.603z M130.692,155.575c-8.088-7.467-31.305-30.373-37.814-52.692
	c6.45-11.093,12.867-19.407,18.515-22.635c3.072-1.755,6.584-2.645,10.438-2.645c12.104,0,25.176,8.507,32.576,14.205
	c-8.863,14.01-10.732,40.841-11.081,48.115C140.719,141.525,136.186,145.549,130.692,155.575z M267.309,287.254
	c-9.315,5.682-24.871,5.073-38.058-15.339c-8.327-12.903-8.638-26.718-7.433-36.033c0.685-5.292,5.029-9.276,10.154-9.508
	c9.598,10.959,30.263,34.256,45.663,49.553C274.496,281.514,270.345,285.401,267.309,287.254z M383.832,346.956
	c-3.977-0.06-7.819-1.258-11.113-3.467c-3.349-2.245-7.673-4.715-12.868-7.351c-0.668-0.339-1.326-0.713-1.955-1.119l-0.698-0.45
	c-23.521-15.168-55.734-35.941-63.665-51.803c-0.187-0.374-0.45-0.705-0.772-0.971c-16.165-13.354-55.051-57.945-60.792-64.558
	c-0.434-0.5-1.291-1.461-1.998-2.406c-2.094-2.799-6.007-9.063-4.674-15.306c0.338-1.582-0.458-3.264-2.006-3.734
	c-1.683-0.51-3.41,0.514-3.799,2.194c-1.31,5.677,0.366,11.12,2.44,15.225c-4.984-1.572-11.804-3.94-18.79-7.045
	c-17.355-7.713-27.737-16.324-30.024-24.903c-5.56-20.848-19.897-36.608-23.815-40.625c0.285-6.01,1.955-32.012,9.778-45.009
	c0.834,0.728,1.311,1.175,1.341,1.203c0.077,0.073,0.16,0.144,0.245,0.209c65.428,49.95,85.02,81.068,95.544,97.787
	c0.982,1.56,1.886,2.995,2.695,4.238c14.594,23.88,33.869,50.62,53.064,73.778c1.403,1.693,7.953,9.416,9.776,11.5
	c31.869,36.421,49.55,47.195,58.768,49.823c0.137,0.028,0.271,0.056,0.409,0.084c16.877,2.281,29.629,8.812,36.619,13.217
	L383.832,346.956z"/>
<g>
</g>
<g>
</g>
<g>
</g>
<g>
</g>
<g>
</g>
<g>
</g>
<g>
</g>
<g>
</g>
<g>
</g>
<g>
</g>
<g>
</g>
<g>
</g>
<g>
</g>
<g>
</g>
<g>
</g>
</svg>
