<?xml version="1.0" encoding="iso-8859-1"?>
<!-- Generator: Adobe Illustrator 18.0.0, SVG Export Plug-In . SVG Version: 6.00 Build 0)  -->
<!DOCTYPE svg PUBLIC "-//W3C//DTD SVG 1.1//EN" "http://www.w3.org/Graphics/SVG/1.1/DTD/svg11.dtd">
<svg version="1.1" id="Capa_1" xmlns="http://www.w3.org/2000/svg" xmlns:xlink="http://www.w3.org/1999/xlink" x="0px" y="0px"
	 viewBox="0 0 438.065 438.065" style="enable-background:new 0 0 438.065 438.065;" xml:space="preserve">
<path d="M382.535,149.869c-0.819-0.946-2.141-1.283-3.313-0.849l-34.595,12.85c-4.894,0.344-44.736,3.268-58.37,8.138
	c-7.707,2.752-22.553,8.368-33.447,12.516c1.185-4.002,2.798-9.685,4.367-15.96c2.167-8.669,0.863-17.304-3.579-23.691
	c-5.065-7.284-13.813-11.664-26-13.018c-6.714-0.748-12.565,1.02-17.399,5.249c-10.078,8.816-12.873,26.132-13.642,34.27
	c-2.912-1.912-7.628-6.136-14.772-15.422c-9.281-12.065-20.114-22.681-32.197-31.553L91.692,79.891
	c-0.889-9.685-2.834-19.362-5.815-28.787c-0.675-2.133-0.244-4.445,1.15-6.182l0.202-0.254c4.524-5.729,4.243-13.871-0.667-19.359
	L65.813,2.12c-1.949-2.178-5.002-2.74-7.597-1.397c-2.597,1.342-3.904,4.16-3.253,7.011C57.52,18.93,61.388,34.008,65.3,42.249
	c1.202,2.533,1.786,5.278,1.688,7.938c-0.057,1.548-0.112,3.285-0.172,5.179c-0.095,2.991-0.201,6.297-0.343,9.863
	c-0.435,0.103-0.865,0.249-1.28,0.456c-1.883,0.942-3.077,2.76-3.194,4.862l-0.618,11.13c-0.138,2.465,1.305,4.749,3.588,5.685
	l0.11,0.045c-1.618,17.611-4.397,30.648-8.275,38.745c-1.057,2.209-1.523,4.729-1.346,7.288c1.381,19.989,8.048,51.976,11.9,69.266
	c0.846,3.787,1.847,7.635,2.388,9.668c-4.782,4.721-7.299,11.228-7.48,19.391c-0.074,3.333,0.101,6.703,0.286,10.271
	c0.086,1.661,0.173,3.344,0.235,5.041c0.256,7.276,0.007,13.6-0.233,19.715c-0.625,15.887-1.217,30.9,7.553,57.482
	c-0.752,15.048,3.996,55.587,23.368,83.023c3.293,4.664,4.94,10.165,4.639,15.489c-0.04,0.702-0.043,1.509-0.007,2.468
	c0.198,5.405,4.222,9.935,9.568,10.771c5.813,0.909,14.927,2.041,24.276,2.041c5.422,0,10.924-0.381,15.903-1.407
	c3.539-0.73,6.164-3.522,6.686-7.114c0.531-3.655-1.222-7.141-4.468-8.88c-11.564-6.198-21.851-9.58-25.711-10.74l-20.752-65.637
	c1.968-7.524,14.832-58.453,9.546-84.364c3.922,0.041,8.125-0.046,12.351-0.265c11.244-0.563,28.464-2.243,46.642-7.049
	c18.303-4.838,32.89-11.638,43.355-20.209c2.662-2.18,5.557-3.944,8.606-5.243c4.73-2.015,9.279-3.915,13.655-5.742
	c17.307-7.228,32.253-13.471,44.917-21.265c4.559-2.806,9.669-4.761,15.188-5.812c22.295-4.246,47.632-13.771,61.738-20.824
	c16.65-8.325,23.028-19.764,23.292-20.247C383.5,152.17,383.354,150.815,382.535,149.869z M214.158,139.613
	c3.563-3.114,7.744-4.354,12.778-3.796c10.391,1.155,17.705,4.681,21.737,10.48c4.904,7.052,3.51,15.504,2.684,18.81
	c-2.298,9.191-4.685,17.066-5.634,20.12c-2.624,1.003-4.995,1.911-6.934,2.654c-2.553,0.979-5.43,0.663-7.699-0.846
	c-5.224-3.474-12.931-8.355-19.981-11.876c-3.347-1.673-6.256-2.882-8.704-3.627C202.894,165.153,205.05,147.571,214.158,139.613z
	 M60.813,6.398c-0.026-0.116-0.054-0.236,0.159-0.346c0.209-0.107,0.288-0.022,0.369,0.069L82.09,29.311
	c2.961,3.31,3.143,8.205,0.425,11.647l-0.165,0.207c-2.654,3.308-3.475,7.701-2.194,11.75c2.343,7.409,4.015,14.979,5.012,22.58
	l-12.764-8.511c0.175-4.169,0.3-8.009,0.408-11.426c0.06-1.883,0.114-3.61,0.171-5.149c0.133-3.621-0.65-7.332-2.264-10.732
	C67.042,31.927,63.303,17.302,60.813,6.398z M61.445,133.027c-0.105-1.526,0.162-3.007,0.772-4.283
	c4.104-8.57,6.947-21.346,8.668-38.962l13.42,5.489c0.398,0.569,1.022,1.45,1.828,2.553c-0.988,22.128-7.523,36.607-7.589,36.749
	c-0.369,0.799-0.369,1.72,0.002,2.519l18.079,39.051c-13.447,2.7-21.137,10.732-25.213,16.987
	C67.913,176.767,62.62,150.029,61.445,133.027z M108.539,187.599L84.55,135.784c1.492-3.651,5.503-14.641,7.072-30.56
	c8.096,10.707,20.698,25.763,35.342,30.187c9.889,17.903,17.573,27.02,27.026,37.294c-0.901,3.992-1.699,7.884-2.378,11.59
	c-0.825,4.506-3.302,8.504-6.975,11.259l-7.71,5.783L108.539,187.599z M97.626,345.266l21.5,68c0.309,0.978,1.097,1.73,2.086,1.994
	c0.122,0.033,12.289,3.328,26.026,10.691c1.517,0.813,1.428,2.294,1.365,2.729c-0.077,0.526-0.421,1.784-1.959,2.101
	c-12.637,2.604-29.258,0.688-38.042-0.685c-2.514-0.393-4.405-2.522-4.499-5.063c-0.028-0.77-0.028-1.394,0.001-1.908
	c0.378-6.672-1.656-13.523-5.728-19.29c-17.68-25.039-23.214-64.314-22.248-79.776c0.024-0.384-0.026-0.769-0.147-1.134
	c-8.614-25.885-8.066-39.793-7.432-55.897c0.087-2.197,0.173-4.423,0.238-6.71c5.862,7.799,17.337,16.514,39.593,18.22
	c-0.875,27.706-10.664,64.568-10.792,65.046C97.441,344.137,97.454,344.721,97.626,345.266z M109.377,253.834
	c-0.984-0.044-1.91,0.406-2.5,1.185c-0.591,0.779-0.765,1.796-0.467,2.728c1.286,4.017,1.891,9.098,2.012,14.77
	c-34.54-2.824-39.263-23.82-39.65-25.936c-0.062-1.635-0.143-3.257-0.226-4.855c-0.179-3.454-0.349-6.716-0.279-9.827
	c0.163-7.339,2.569-12.908,7.153-16.552c10.717-8.52,30.039-4.619,30.232-4.578c1.626,0.342,3.21-0.698,3.551-2.319
	c0.341-1.621-0.697-3.212-2.319-3.553c-0.83-0.175-18.982-3.856-31.956,3.574c-0.46-1.788-1.014-4.009-1.524-6.235
	c1.289-3.392,7.693-17.512,25.82-20.474l4.32,9.331c0.291,0.629,0.791,1.138,1.415,1.44l21.76,10.529
	c-2.602,8.174-9.979,33.951-5.5,50.771C117.069,253.966,113.034,253.968,109.377,253.834z M356.925,168.149
	c-13.748,6.874-38.443,16.157-60.177,20.296c-6.238,1.188-12.028,3.407-17.21,6.596c-12.265,7.548-27.011,13.707-44.085,20.838
	c-4.388,1.833-8.95,3.738-13.694,5.759c-3.572,1.521-6.955,3.581-10.056,6.121c-24.806,20.315-68.394,24.81-84.32,25.784
	c-4.687-14.309,2.096-39.059,4.806-47.835l3.773,1.825c0.415,0.2,0.861,0.299,1.305,0.299c0.638,0,1.271-0.203,1.8-0.6l9.171-6.878
	c4.884-3.663,8.179-8.982,9.277-14.978c0.749-4.094,1.649-8.424,2.675-12.869c0.223-0.967-0.047-1.982-0.721-2.711
	c-9.854-10.658-17.62-19.649-27.85-38.372c-0.398-0.729-1.081-1.26-1.886-1.467c-15.347-3.947-29.193-22.712-36.632-32.794
	c-0.536-0.727-4.338-5.995-4.349-6.01c-0.332-0.491-0.802-0.873-1.351-1.098l-20.021-8.189l0.59-10.629L87.159,84.03l3.875,2.822
	l55.003,40.382c11.628,8.538,22.055,18.757,30.992,30.374c9.165,11.915,16.264,18.188,21.696,19.175
	c1.6,0.293,3.734,1.024,6.259,2.128c-23.563,26.975-70.08,40.903-70.564,41.045c-1.589,0.468-2.499,2.135-2.032,3.725
	c0.384,1.307,1.58,2.155,2.876,2.155c0.28,0,0.565-0.039,0.847-0.122c2.075-0.61,50.065-14.97,74.443-44.086
	c6.175,3.26,12.655,7.375,17.211,10.405c3.883,2.583,8.807,3.126,13.17,1.453c2.269-0.871,5.106-1.957,8.28-3.169
	c10.67-4.076,29.933-11.399,39.059-14.658c13.45-4.804,56.759-7.802,57.195-7.832c0.288-0.02,0.57-0.081,0.84-0.181l24.486-9.095
	C367.528,161.632,362.978,165.122,356.925,168.149z"/>
<g>
</g>
<g>
</g>
<g>
</g>
<g>
</g>
<g>
</g>
<g>
</g>
<g>
</g>
<g>
</g>
<g>
</g>
<g>
</g>
<g>
</g>
<g>
</g>
<g>
</g>
<g>
</g>
<g>
</g>
</svg>
