<?xml version="1.0" encoding="iso-8859-1"?>
<!-- Generator: Adobe Illustrator 18.0.0, SVG Export Plug-In . SVG Version: 6.00 Build 0)  -->
<!DOCTYPE svg PUBLIC "-//W3C//DTD SVG 1.1//EN" "http://www.w3.org/Graphics/SVG/1.1/DTD/svg11.dtd">
<svg version="1.1" id="Capa_1" xmlns="http://www.w3.org/2000/svg" xmlns:xlink="http://www.w3.org/1999/xlink" x="0px" y="0px"
	 viewBox="0 0 472.049 472.049" style="enable-background:new 0 0 472.049 472.049;" xml:space="preserve">
<path d="M367.784,459.088l-4.074-2.85c-4.087-2.86-8.874-4.604-13.843-5.041l-6.379-0.563c-2.628-0.232-4.907-1.879-5.947-4.299
	c-2.863-6.663-6.732-15.554-10.569-24.027c1.555,0.61,5.021,0.946,5.071,0.945c0,0,4.182-0.077,5.386-0.114
	c6.64-0.206,14.447-0.666,19.472-1.673c2.038-0.401,3.574-1.982,3.916-4.027c0.343-2.055-0.602-4.057-2.405-5.102
	c-3.297-1.911-7.643-3.542-12.92-4.875c6.992-12.684,14.076-30.398,7.273-41.704c-2.73-4.539-7.457-7.249-12.642-7.249
	c-0.998,0-2.004,0.103-2.99,0.309c-3.236,0.674-6.208,2.094-8.267,3.261c-4.247-6.806-11.146-11.112-18.167-12.487l-1.059-4.765
	c0.288-3.575,1.479-24.423-8.673-36.266c-2.721-3.175-6.683-7.007-11.268-11.444c-12.947-12.524-30.68-29.677-37.975-48.724
	c-4.409-12.25-13.42-15.845-17.474-16.862l-19.406-61.286c-0.81-2.556-1.055-5.176-0.73-7.786
	c1.466-11.763,2.341-44.855-20.899-98.884c0.511-2.345,1.373-8.077-0.192-15.476c-0.303-1.434-0.443-2.721-0.429-3.935
	c0.019-1.681,0.217-41.19-23.701-43.848c-8.782-0.979-13.946,0.31-16.191,4.021c-2.592,4.282,0.232,9.674,1.919,12.896
	c0.186,0.355,0.358,0.685,0.508,0.984c1.984,3.967,11.188,31.522,12.602,42.777c0.456,3.622,2.19,6.928,4.884,9.308
	c2.631,2.325,4.017,3.66,4.277,6.278c0.103,1.021,0.196,4.153,0.316,8.118c0.471,15.715,1.45,48.412,6.102,61.369
	c0.577,1.607,0.867,3.34,0.86,5.15c-0.072,20.286,2.548,90.321,2.862,98.635c-4.188,7.969-37.989,72.578-45.465,95.912
	c-10.22,11.428-22.147,29.337-24.609,42.262c-2.223,11.67-9.471,31.686-13.845,39.886c-2.749,5.156-2.021,8.998-0.927,11.313
	c1.673,3.539,5.539,6.226,10.342,7.185c1.501,0.301,4.04,1.105,6.98,2.037c6.941,2.199,15.58,4.938,22.082,4.938
	c0.88,0,1.712-0.052,2.474-0.153c3.539-0.473,7.382-2.12,11.422-4.899c2.39-1.644,3.608-4.453,3.18-7.331
	c-0.432-2.894-2.429-5.24-5.213-6.123c-18.373-5.82-24.317-11.196-23.83-13.389c1.15-5.177,9.113-17.906,21.3-34.054
	c1.931-2.558,3.555-5.331,4.828-8.241c2.325-5.311,3.803-9.311,4.395-11.896c1.741-3.964,24.824-29.325,46.357-51.938l31.434,16.731
	c0.033,2.666,0.453,7.432,2.762,11.126c3.026,4.842,19.42,10.642,26.725,13.03l7.165,4.478l-1.533,2.207
	c-3.011,4.336-2.668,10.143,0.834,14.123c5.058,5.749,9.78,9.159,14.073,10.182l9.364,26.674c0.612,1.743,1.446,3.403,2.479,4.933
	l29.493,43.75c2.44,3.618,6.31,6.094,10.615,6.791l15.438,2.503c0.144,0.023,0.289,0.036,0.435,0.039l7.803,0.12
	c0.016,0,0.102,0.001,0.118,0.001c3.168,0,5.832-1.957,6.786-4.983C371.448,464.039,370.385,460.908,367.784,459.088z
	 M323.18,414.061c-3.147-6.718-6.017-12.487-7.975-15.688c1.116-0.465,2.428-1.064,3.836-1.816l5.792,12.264
	c0.463,0.979,1.418,1.634,2.499,1.711c0.021,0.001,1.634,0.12,4.129,0.432c-0.26,2.444-0.494,4.567-0.676,6.195
	c-0.675-0.1-1.337-0.28-1.957-0.56L323.18,414.061z M352.537,416.091c-3.311,0.428-7.689,0.756-12.832,0.962
	c0.812-1.237,1.707-2.643,2.647-4.184C346.31,413.784,349.759,414.873,352.537,416.091z M338.356,364.691
	c0.584-0.122,1.179-0.184,1.768-0.184c3.061,0,5.864,1.623,7.501,4.343c5.759,9.571-2.419,27.635-9.92,40.141
	c1.069-10.273,2.382-24.37,2.382-31.696c0-5.847-2.013-9.563-4.738-11.689C336.303,365.231,337.321,364.906,338.356,364.691z
	 M334.087,377.295c0,6.253-1.035,18.015-2.009,27.7c-1.003-0.125-1.869-0.22-2.554-0.289l-5.387-11.407
	c4.825-3.689,9.178-9.155,8.953-16.822c-0.055-1.882-0.276-3.672-0.632-5.377C333.424,372.308,334.087,374.241,334.087,377.295z
	 M327.093,376.653c0.263,8.93-9.283,14.101-14.16,16.155c-1.963-8.202-2.01-22.501-1.245-34.814c0.041-0.655,0.042-1.308,0.024-1.96
	C319.612,358.469,326.77,365.682,327.093,376.653z M183.206,84.518c-0.132-4.399-0.219-7.306-0.342-8.535
	c-0.508-5.08-3.571-7.788-6.275-10.178c-1.599-1.413-2.63-3.388-2.903-5.561c-1.515-12.045-11.053-40.44-13.188-44.712
	c-0.165-0.329-0.355-0.693-0.56-1.084c-0.881-1.681-2.941-5.617-2.102-7.006c0.422-0.697,2.196-1.442,5.911-1.442
	c1.318,0,2.827,0.094,4.485,0.277c18.575,2.064,18.368,37.455,18.363,37.813c-0.02,1.662,0.163,3.379,0.559,5.249
	c1.681,7.945,0.054,13.569,0.041,13.612c-0.21,0.684-0.17,1.42,0.114,2.075c17.369,40.081,21.204,68.191,21.436,84.476
	c-5.531,2.667-13.966,1.46-18.628,0.303c-0.122-1.999-0.501-3.936-1.159-5.767C184.628,131.979,183.668,99.924,183.206,84.518z
	 M123.767,420.187c-1.617,7.279,7.501,13.956,27.875,20.41c0.852,0.271,1.047,0.99,1.091,1.287c0.043,0.289,0.066,1.015-0.646,1.504
	c-3.209,2.207-6.257,3.554-8.814,3.895c-0.5,0.066-1.065,0.101-1.681,0.101c-5.574,0-14.067-2.692-20.27-4.657
	c-3.108-0.985-5.793-1.836-7.616-2.2c-2.278-0.456-5.075-1.711-6.095-3.867c-0.736-1.558-0.469-3.551,0.798-5.924
	c4.595-8.616,12.063-29.087,14.444-41.587c0.967-5.081,3.747-11.311,7.417-17.643c2.976,3.756,8.296,9.238,15.832,12.358
	C138.537,393.892,125.609,411.899,123.767,420.187z M203.734,309.572c-14.463,15.151-48.229,50.968-49.415,56.301
	c-0.476,2.139-1.918,6.016-4.063,10.916c-0.281,0.643-0.585,1.277-0.905,1.903c-8.165-3.031-13.586-9.7-15.69-12.683
	c3.956-6.066,8.49-11.948,12.798-16.709c0.293-0.324,0.512-0.708,0.642-1.126c5.172-16.711,26.315-58.814,37.914-81.392
	c2.417-4.719,5.542-7.495,9.552-8.474c8.552-2.086,18.257,4.78,18.354,4.85c1.344,0.967,3.215,0.662,4.185-0.678
	c0.971-1.343,0.668-3.218-0.675-4.188c-0.484-0.351-12.012-8.547-23.256-5.82c-0.3,0.073-0.584,0.18-0.878,0.267
	c0.25-0.477,0.398-0.758,0.42-0.799c0.245-0.466,0.363-0.988,0.344-1.514c-0.028-0.727-2.602-68.317-2.868-94.453
	c2.596,0.562,6.201,1.143,10.043,1.143c2.785,0,5.688-0.309,8.407-1.149c-0.111,2.292-0.288,4.217-0.479,5.749
	c-0.434,3.475-0.109,6.953,0.962,10.339l19.944,62.983c0.359,1.133,1.374,1.949,2.555,2.079c0.411,0.045,10.114,1.246,14.478,13.365
	c0.059,0.153,0.124,0.305,0.183,0.458c-2.233,6.877-16.176,47.694-36,59.637l-2.971-1.581
	C206.127,308.363,204.663,308.599,203.734,309.572z M245.789,340.039c-1.868-2.991-1.944-7.859-1.817-9.477
	c0.1-1.194-0.521-2.334-1.58-2.897l-26.11-13.897c16.843-12.479,28.789-41.434,33.652-54.945
	c8.965,16.837,24.104,31.49,35.595,42.605c4.478,4.333,8.347,8.074,10.886,11.036c5.055,5.897,6.738,14.964,7.227,21.987
	c-5.179-4.345-13.448-9.26-22.36-6.586c-10.838,3.251-15.152,15.065-16.673,21.073C255.71,345.75,246.998,341.874,245.789,340.039z
	 M278.396,373.093c-1.675-1.903-1.843-4.674-0.41-6.738l1.699-2.445l0.117,0.073l5.404,15.392
	C283.097,377.925,280.777,375.799,278.396,373.093z M364.772,465.261c-0.093,0.294-0.355,0.787-1.064,0.787l-0.026-0.001
	l-7.584-0.116l-15.223-2.468c-2.677-0.435-5.083-1.974-6.601-4.224l-29.493-43.75c-0.746-1.105-1.349-2.306-1.791-3.566
	l-17.876-50.921c-0.226-0.643-0.664-1.189-1.241-1.55l-13.579-8.486c-0.001-0.001-0.003-0.001-0.004-0.002
	c1.106-4.658,4.434-14.87,12.714-17.354c9.06-2.716,18.187,6.434,20.741,9.264c-0.053,1.134-0.115,1.813-0.119,1.849
	c-0.031,0.317-0.013,0.638,0.057,0.949l1.674,7.534c0.32,1.439,0.436,2.925,0.343,4.414c-0.786,12.636-1.305,35.068,4.051,43.346
	c4.741,7.329,17.159,35.824,22.278,47.735c1.913,4.451,6.102,7.48,10.932,7.906l6.379,0.563c3.924,0.346,7.703,1.723,10.931,3.98
	l4.073,2.851C364.902,464.394,364.885,464.903,364.772,465.261z"/>
<g>
</g>
<g>
</g>
<g>
</g>
<g>
</g>
<g>
</g>
<g>
</g>
<g>
</g>
<g>
</g>
<g>
</g>
<g>
</g>
<g>
</g>
<g>
</g>
<g>
</g>
<g>
</g>
<g>
</g>
</svg>
