<?xml version="1.0" encoding="iso-8859-1"?>
<!-- Generator: Adobe Illustrator 18.0.0, SVG Export Plug-In . SVG Version: 6.00 Build 0)  -->
<!DOCTYPE svg PUBLIC "-//W3C//DTD SVG 1.1//EN" "http://www.w3.org/Graphics/SVG/1.1/DTD/svg11.dtd">
<svg version="1.1" id="Capa_1" xmlns="http://www.w3.org/2000/svg" xmlns:xlink="http://www.w3.org/1999/xlink" x="0px" y="0px"
	 viewBox="0 0 477.121 477.121" style="enable-background:new 0 0 477.121 477.121;" xml:space="preserve">
<path d="M422.204,461.169l-5.707-3.995c-5.558-3.887-12.053-6.251-18.777-6.836l-8.895-0.786c-4.133-0.365-7.729-2.969-9.367-6.78
	c-3.631-8.45-9.867-22.813-16.054-36.376l2.027,0.912c2.224,1.002,4.682,1.531,7.15,1.543c0.291,0.306,0.642,0.559,1.052,0.723
	c0.362,0.145,0.74,0.214,1.113,0.214c0.834,0,1.635-0.364,2.212-1.002c9.849-0.231,22.627-0.839,30.474-2.411
	c2.503-0.493,4.352-2.525,4.585-5.105c0.204-2.261-1.037-4.423-3.007-5.551c-4.81-2.756-11.226-5.094-19.096-6.975
	c9.893-17.562,20.423-42.745,10.936-58.511c-3.603-5.987-9.83-9.561-16.659-9.561c-1.315,0-2.64,0.137-3.94,0.407
	c-4.954,1.031-9.464,3.357-12.237,5.02c-5.841-10.054-15.866-16.307-25.978-18.058l-1.699-7.624
	c0.365-4.319,2.25-33.608-11.835-50.037c-3.772-4.402-9.297-9.747-15.694-15.936c-18.189-17.598-43.1-41.699-53.407-68.615
	c-6.252-17.356-19.234-21.87-24.264-22.987l-12.982-40.994c3.63,3.164,6.988,5.767,9.61,7.689c2.767,2.028,4.152,5.532,3.53,8.925
	l-1.263,6.887c-0.812,4.429,0.424,9.072,3.587,12.276c2.966,3.005,7.053,4.422,11.254,3.88l1.51-0.193
	c3.366-0.429,6.814,0.705,9.059,3.249c3.13,3.547,7.833,5.426,12.537,5.023l23.321-1.999c4.947-0.425,8.893-4.881,8.272-10.182
	c-0.401-3.426-2.812-6.29-6.04-7.505c-4.496-1.692-11.176-4.383-17.85-7.72c-7.648-3.824-23.68-37.252-32.18-57.844
	c-0.126-0.304-0.235-0.607-0.337-0.92C244.957,56.57,225.812,0,197.1,0c-9.392,0-16.808,2.773-22.043,8.242
	c-8.038,8.397-7.882,20.11-7.844,21.306c-0.095,28.733,3.637,128.211,4.014,138.196c-5.155,9.805-53.388,101.895-63.741,134.509
	c-14.229,15.862-30.903,40.818-34.314,58.737c-3.131,16.41-13.333,44.588-19.488,56.144c-3.614,6.771-2.689,11.756-1.276,14.747
	c2.179,4.611,7.272,8.124,13.626,9.396c2.167,0.432,5.757,1.569,9.914,2.885c10.451,3.311,24.764,7.844,33.812,6.643
	c4.757-0.642,9.96-2.883,15.472-6.665c2.959-2.043,4.464-5.526,3.927-9.092c-0.541-3.593-3.028-6.503-6.485-7.591
	c-26.621-8.442-35.023-16.124-34.13-20.137c1.643-7.4,12.868-25.392,30.027-48.127c2.629-3.479,4.844-7.259,6.582-11.234
	c2.252-5.142,5.145-12.199,6.105-16.526c1.72-4.936,34.864-41.375,65.764-73.807l45.408,24.172
	c-0.023,3.394,0.382,10.368,3.683,15.654c4.23,6.774,30.693,15.742,36.886,17.766l11.212,7.011l-2.86,4.119
	c-3.898,5.613-3.453,13.132,1.082,18.287c7.17,8.149,13.783,12.842,19.697,14.006l13.323,37.947
	c0.815,2.329,1.937,4.558,3.332,6.624l41.259,61.211c3.225,4.787,8.346,8.061,14.049,8.983l21.597,3.501
	c0.143,0.013,0.286,0.025,0.43,0.038l10.924,0.174c0.049,0.001,0.097,0.001,0.145,0.001c3.869,0,7.127-2.369,8.325-6.067
	C426.727,467.308,425.428,463.428,422.204,461.169z M359.573,398.094c-4.738-10.132-11.951-23.333-12.011-23.432
	c2-0.782,4.726-1.978,7.665-3.637l8.654,18.326c0.463,0.979,1.418,1.633,2.499,1.711c0.034,0.002,2.823,0.207,7.005,0.761
	c-0.479,4.541-0.907,8.395-1.201,11.003c-1.481-0.066-2.944-0.385-4.287-0.99L359.573,398.094z M405.512,400.635
	c-5.268,0.967-13.71,1.668-24.19,2.024c1.552-2.305,3.423-5.187,5.421-8.486C394.577,395.922,400.892,398.088,405.512,400.635z
	 M381.475,326.953c0.898-0.187,1.812-0.281,2.717-0.281c4.705,0,9.011,2.488,11.518,6.655c6.819,11.333,0.289,29.987-6.39,43.64
	c-3.37,6.888-7.125,13.227-10.245,18.126c1.547-14.376,3.868-37.851,3.868-49.336c0-9.846-3.991-14.444-7.939-16.583
	C376.937,328.276,379.169,327.433,381.475,326.953z M376.943,345.757c0,9.056-1.541,26.297-2.941,40.095
	c-2.296-0.302-4.175-0.503-5.432-0.623l-8.252-17.476c8.664-6.35,13.096-14.304,12.837-23.105c-0.112-3.794-0.71-7.322-1.691-10.581
	C374.259,335.288,376.943,338.379,376.943,345.757z M367.158,344.826c0.413,14.051-15.305,21.693-21.804,24.246
	c-3.106-11.466-3.246-32.451-2.14-50.408c0.089-1.42,0.07-2.844-0.047-4.263C355.283,317.418,366.667,328.139,367.158,344.826z
	 M241.92,66.533c3.13,7.575,23.123,55.034,35.079,61.011c6.939,3.47,13.862,6.256,18.492,7.997c1.098,0.413,1.955,1.36,2.115,2.522
	c0.253,1.84-1.108,3.397-2.818,3.544l-23.321,1.999c-2.786,0.241-5.573-0.856-7.451-2.931c-3.51-3.878-8.505-6.066-13.694-5.404
	l-1.939,0.247c-2.36,0.301-4.794-0.402-6.473-2.088c-1.746-1.754-2.494-4.169-2.05-6.592l1.337-7.294
	c1.034-5.639-1.275-11.467-5.883-14.846c-4.422-3.243-11.025-8.5-17.371-15.132c-0.001-0.001-0.001-0.001-0.002-0.002
	c-10.088-10.557-16.149-20.891-18.134-30.841c1.274-2.473,7.419-12.253,28.972-23.089c5.968,11.026,10.435,22.571,12.694,29.674
	C241.624,65.718,241.771,66.122,241.92,66.533z M82.688,406.019c-2.076,9.329,10.767,18.467,38.18,27.16
	c1.277,0.402,2.16,1.436,2.359,2.764c0.196,1.3-0.328,2.518-1.396,3.255c-4.724,3.242-9.055,5.146-12.866,5.661
	c-7.719,1.03-21.292-3.276-31.205-6.415c-4.326-1.37-8.062-2.554-10.55-3.049c-3.474-0.696-7.761-2.657-9.377-6.076
	c-1.2-2.54-0.815-5.688,1.146-9.361c6.348-11.92,16.864-40.951,20.087-57.843c1.453-7.634,5.771-17.08,11.416-26.581
	c3.942,5.285,12.083,14.342,24.144,18.859c-0.281,0.395-0.55,0.798-0.842,1.185C103.256,369.527,85.217,394.629,82.688,406.019z
	 M194.254,251.837c-0.167,0.174-16.833,17.644-33.479,35.76c-34.182,37.202-34.97,40.742-35.348,42.442
	c-0.686,3.079-2.734,8.588-5.769,15.514c-0.539,1.233-1.148,2.437-1.788,3.624c-12.933-4.397-21.242-15.202-23.951-19.186
	c5.674-8.788,12.238-17.326,18.459-24.203c0.294-0.324,0.512-0.708,0.641-1.126c6.554-21.171,31.319-71.287,48.022-104.098
	c1.819-3.574,5.848-11.375,6.223-12.001c3.373-5.636,7.745-9.143,13.023-10.43c12.503-3.042,26.497,6.868,26.65,6.978
	c1.342,0.968,3.216,0.666,4.186-0.676c0.97-1.343,0.668-3.218-0.674-4.189c-0.66-0.478-16.34-11.64-31.553-7.949
	c-1.377,0.334-2.701,0.782-3.975,1.332c1.222-2.34,2.354-4.787,2.333-5.313c-0.041-1.085-4.145-108.905-4.04-138.806
	c0-0.047-0.001-0.095-0.003-0.142c-0.004-0.101-0.365-10.139,6.181-16.978C183.451,8.15,189.409,6,197.1,6
	c10.797,0,20.803,11.215,28.709,24.414c-14.186,7.17-22.221,14.053-26.685,19.074c0.035-1.607-1.201-2.967-2.819-3.06
	c-1.644-0.087-3.072,1.169-3.167,2.824c-0.817,14.263,5.907,29.047,19.986,43.953l16.843,53.182c0.36,1.137,1.375,1.954,2.562,2.079
	c0.604,0.064,14.876,1.76,21.249,19.453c0.131,0.341,0.273,0.68,0.408,1.02c-2.695,8.371-22.77,68.107-51.596,84.855l-4.757-2.533
	C196.647,250.629,195.183,250.864,194.254,251.837z M251.204,294.275c-3.366-5.391-2.724-13.913-2.717-13.994
	c0.1-1.195-0.521-2.335-1.58-2.897l-38.23-20.351c12.654-8.663,24.89-25.196,36.435-49.267c5.853-12.203,10.194-23.685,12.69-30.782
	c12.243,24.423,34.264,45.74,50.836,61.773c6.289,6.085,11.721,11.339,15.311,15.529c7.981,9.309,10.117,24.02,10.551,34.3
	c-6.758-6.22-19.037-14.809-32.284-10.833c-15.422,4.627-21.067,22.261-22.82,29.905
	C266.276,303.034,253.018,297.181,251.204,294.275z M296.939,340.67c-2.708-3.077-2.979-7.56-0.659-10.9l3.026-4.357l1.486,0.929
	l8.803,25.075C305.831,349.509,301.494,345.847,296.939,340.67z M419.805,469.205c-0.147,0.457-0.746,1.929-2.668,1.915
	l-10.701-0.171l-21.383-3.466c-4.073-0.659-7.729-2.996-10.032-6.414l-41.261-61.214c-1.108-1.641-1.998-3.408-2.644-5.253
	l-25.011-71.24c-0.226-0.643-0.663-1.189-1.24-1.55c0,0-19.717-12.206-19.746-12.216c1.359-6.177,6.072-22.273,18.821-26.098
	c13.748-4.123,27.377,10.053,30.575,13.671c-0.078,1.931-0.204,3.784-0.134,4.095l2.339,10.496c0.473,2.149,0.644,4.345,0.506,6.53
	c-0.871,14.127-2.079,48.246,5.476,59.931c6.681,10.321,24.078,50.24,31.247,66.923c2.511,5.845,8.01,9.823,14.35,10.383
	l8.898,0.786c5.681,0.494,11.165,2.491,15.861,5.775l5.705,3.994C420.316,467.172,419.953,468.748,419.805,469.205z"/>
<g>
</g>
<g>
</g>
<g>
</g>
<g>
</g>
<g>
</g>
<g>
</g>
<g>
</g>
<g>
</g>
<g>
</g>
<g>
</g>
<g>
</g>
<g>
</g>
<g>
</g>
<g>
</g>
<g>
</g>
</svg>
