<?xml version="1.0" encoding="iso-8859-1"?>
<!-- Generator: Adobe Illustrator 18.0.0, SVG Export Plug-In . SVG Version: 6.00 Build 0)  -->
<!DOCTYPE svg PUBLIC "-//W3C//DTD SVG 1.1//EN" "http://www.w3.org/Graphics/SVG/1.1/DTD/svg11.dtd">
<svg version="1.1" id="Capa_1" xmlns="http://www.w3.org/2000/svg" xmlns:xlink="http://www.w3.org/1999/xlink" x="0px" y="0px"
	 viewBox="0 0 491.733 491.733" style="enable-background:new 0 0 491.733 491.733;" xml:space="preserve">
<path d="M318.91,371.735c-0.928,0-1.861,0.097-2.777,0.287c-3.406,0.709-6.498,2.316-8.37,3.445
	c-0.165-1.62-0.544-3.174-1.121-4.637l6.51-5.349c3.08-1.919,30.067-20.558,19.243-77.678
	c-8.053-42.506-25.463-62.939-35.124-71.335c-3.842-3.339-7.093-7.332-9.662-11.867l-33.584-59.27
	c-1.419-2.504-2.307-5.313-2.638-8.349c-1.14-10.439-8.17-36.152-42.449-91.065c-0.292-0.469-0.562-0.965-0.799-1.474
	c-4.695-10.072-12.171-24.599-17.615-35.012c-3.311-6.333-10.05-10.005-17.172-9.357l-9.953,0.906
	c-2.576,0.234-4.779,1.769-5.893,4.103c-1.113,2.336-0.918,5.013,0.522,7.162l29.842,44.515c1.171,1.748,2.033,3.672,2.563,5.718
	c3.301,12.748,12.074,44.051,22.241,59.37c1.591,2.396,2.686,5.149,3.254,8.181c4.944,26.348,25.801,92.157,30.143,105.735
	c-4.512,2.867-13.494,10.875-13.997,29.371c-0.163,5.999-0.501,13.696-0.858,21.845c-0.781,17.777-1.666,37.926-1.122,49.055
	c0.221,4.526-0.299,8.944-1.546,13.134c-5.049,16.98-5.878,36.073-2.543,58.296c1.187,9.502-0.043,17.397-1.354,24.394
	c-0.134,0.715-0.482,2.534-0.482,2.534c-0.513,2.69,0.053,5.418,1.593,7.681c1.541,2.264,3.873,3.792,6.62,4.312
	c1.418,0.268,2.864,0.543,4.082,0.81l3.531,23.339c0.93,6.156,4.853,11.407,10.492,14.047l10.349,4.844
	c3.297,1.543,6.806,2.307,10.297,2.307c4.618,0,9.208-1.336,13.238-3.972l2.265-1.481c3.238-2.117,4.83-6.072,3.96-9.843
	c-0.769-3.331-3.296-5.958-6.594-6.858l-27.791-7.579l-0.599-10.327c3.596,0.613,6.601,0.913,9.24,0.913
	c1.813,0,3.455-0.141,4.995-0.419c2.268-0.409,4.079-1.948,4.842-4.117c0.763-2.168,0.315-4.5-1.196-6.239
	c-5.294-6.091-12.674-8.81-18.063-10.795c-0.361-0.133-0.699-0.259-1.039-0.386l-0.934-16.097l3.112-2.557
	c2.163,4.762,6.729,8.161,12.04,8.735c0,0,12.433,1.329,12.704,1.329c2.146,0,4.224-0.906,5.681-2.509
	c1.684-1.852,2.357-4.414,1.805-6.854c-0.554-2.44-2.268-4.461-4.585-5.405L269.56,401.3l1.962-1.612
	c2.64,0.905,7.944,2.444,13.529,2.444c4.251,0,8.658-0.894,12.156-3.642c5.408-4.249,8.973-10.36,10.192-16.43
	c0.198,0.023,0.709,0.01,0.814,0.01c2.25,0,4.932,1.221,4.932,7.035c0,10.682-3.325,39.073-3.358,39.358
	c-0.158,1.347,0.606,2.633,1.866,3.136c0.362,0.145,0.739,0.214,1.112,0.214c0.924,0,1.821-0.427,2.401-1.2
	c0.26-0.347,6.425-8.608,11.503-18.975c7.129-14.552,8.467-25.714,3.978-33.175C328.112,374.25,323.724,371.735,318.91,371.735z
	 M322.078,345.602c-0.23,0.457-0.463,0.902-0.697,1.335c-0.049-1.705-0.366-3.35-0.952-4.933
	c-2.538-6.856-9.613-10.456-15.389-11.538c-10.138-1.901-20.29,0.012-27.735,5.119c-4.918-6.402-2.156-22.581-0.443-29.106
	c0.024-0.091,0.25-1.604-0.143-2.43c-0.084-0.176-8.604-17.69,10.604-43.299c10.327-13.77,15.455-21.637,17.956-26.251
	c7.835,11.143,16.294,28.408,21.223,54.42C329.507,304.788,331.18,327.503,322.078,345.602z M267.953,365.476
	c1.203-11.822,2.521-16.59,3.191-17.531c0.295-0.41,1.973-0.808,5.411,0.011l-1.761,12.227
	C272.518,361.811,270.229,363.595,267.953,365.476z M231.697,404.845c-1.398-9.94-1.932-19.2-1.58-27.872l18.825,1.236l-0.247,5.492
	c-5.813,6.117-10.756,11.817-14.07,15.766C233.286,401.064,232.31,402.899,231.697,404.845z M268.723,327.597
	c0.509,5.614,2.204,10.873,6.141,13.972c-4.033-0.432-6.919,0.531-8.605,2.893c-0.756,1.061-3.029,4.268-4.847,26.709
	c-2.19,2.001-4.339,4.051-6.422,6.108l0.712-15.842L268.723,327.597z M196.243,60.975c-0.7-2.702-1.84-5.244-3.388-7.555
	L163.013,8.905c-0.347-0.517-0.205-0.998-0.091-1.239c0.115-0.241,0.4-0.654,1.021-0.71l9.954-0.906
	c4.679-0.435,9.129,1.991,11.311,6.162c5.415,10.358,12.846,24.797,17.494,34.769c0.34,0.728,0.726,1.439,1.146,2.113
	c23.421,37.519,33.727,60.937,38.243,74.71l-20.3,4.956c-0.726-3.761-2.108-7.202-4.116-10.227
	C207.739,103.561,198.758,70.692,196.243,60.975z M234.299,350.88c1.44-4.84,2.042-9.933,1.787-15.137
	c-0.529-10.851,0.349-30.852,1.124-48.498c0.359-8.174,0.698-15.896,0.862-21.945c0.52-19.155,11.192-24.606,12.57-25.23
	c3.326-0.834,10.654-1.617,13.364,1.09c0.586,0.586,1.354,0.879,2.121,0.879c0.768,0,1.535-0.293,2.121-0.879
	c1.172-1.171,1.172-3.071,0-4.242c-4.426-4.426-12.279-3.889-16.526-3.186c-4.091-12.827-22.371-70.632-28.712-99.093l20.802-5.078
	c0.966,3.637,1.414,6.278,1.61,8.073c0.42,3.853,1.559,7.438,3.382,10.656l33.584,59.27c2.906,5.129,6.59,9.65,10.947,13.438
	c2.265,1.969,4.985,4.65,7.912,8.197c-0.938,2.22-4.59,9.109-18.726,27.957c-18.632,24.844-13.617,43.357-11.712,48.315
	l-20.88,54.272c-0.116,0.301-0.183,0.62-0.197,0.942l-0.519,11.534l-18.696-1.228C231.158,363.915,232.411,357.229,234.299,350.88z
	 M233.443,440.48c-1.116-0.211-2.082-0.844-2.721-1.782c-0.638-0.937-0.871-2.066-0.658-3.18c0,0,0.56-2.934,0.798-4.269
	c0.62-3.467,1.196-7.274,1.46-11.435l3.186,21.061C234.83,440.744,234.136,440.612,233.443,440.48z M268.962,445.746
	c0.038,0.042,0.125,0.143,0.065,0.312c-0.06,0.17-0.191,0.194-0.248,0.204c-3.331,0.602-7.459,0.38-13.526-0.748l-0.484-8.344
	C259.365,438.89,265.087,441.286,268.962,445.746z M248.468,410.865c-0.741,0.608-1.146,1.535-1.091,2.492l2.968,51.143
	c0.075,1.287,0.963,2.381,2.206,2.72l29.872,8.147c1.163,0.317,2.055,1.244,2.326,2.419c0.307,1.33-0.255,2.725-1.398,3.472
	l-2.265,1.481c-5.325,3.482-11.944,3.951-17.709,1.252l-10.349-4.844c-3.817-1.787-6.474-5.341-7.104-9.509l-8.865-58.611
	c-0.418-2.761,0.37-5.568,2.16-7.702c7.786-9.279,34.604-39.999,52.773-45.737c1.58-0.499,2.456-2.184,1.957-3.764
	c-0.498-1.581-2.186-2.455-3.764-1.957c-2.78,0.878-5.707,2.255-8.707,3.985l2.477-17.198c5.722-2.766,12.823-3.629,19.977-2.288
	c4.16,0.78,9.199,3.218,10.867,7.724c1.626,4.392-0.303,10.215-5.569,16.849L248.468,410.865z M281.948,412.828
	c0.7,0.285,0.925,0.859,0.997,1.175c0.071,0.317,0.116,0.932-0.393,1.492c-0.357,0.393-0.877,0.593-1.413,0.536l-11.888-1.285
	c-3.715-0.402-6.828-3.105-7.749-6.726l-0.021-0.082l2.807-2.307L281.948,412.828z M293.499,393.772
	c-4.152,3.263-11.21,2.569-16.376,1.313l24.52-20.148C302.868,380.963,299.633,388.952,293.499,393.772z M317.1,416.77
	c0.948-9.226,2.044-21.271,2.044-27.666c0-5.162-1.695-8.537-4.045-10.557c0.725-0.264,1.484-0.491,2.256-0.652
	c0.514-0.107,1.037-0.161,1.555-0.161c2.689,0,5.155,1.429,6.596,3.822C330.528,389.905,323.715,405.508,317.1,416.77z"/>
<g>
</g>
<g>
</g>
<g>
</g>
<g>
</g>
<g>
</g>
<g>
</g>
<g>
</g>
<g>
</g>
<g>
</g>
<g>
</g>
<g>
</g>
<g>
</g>
<g>
</g>
<g>
</g>
<g>
</g>
</svg>
