<?xml version="1.0" encoding="iso-8859-1"?>
<!-- Generator: Adobe Illustrator 18.0.0, SVG Export Plug-In . SVG Version: 6.00 Build 0)  -->
<!DOCTYPE svg PUBLIC "-//W3C//DTD SVG 1.1//EN" "http://www.w3.org/Graphics/SVG/1.1/DTD/svg11.dtd">
<svg version="1.1" id="Capa_1" xmlns="http://www.w3.org/2000/svg" xmlns:xlink="http://www.w3.org/1999/xlink" x="0px" y="0px"
	 viewBox="0 0 483.773 483.773" style="enable-background:new 0 0 483.773 483.773;" xml:space="preserve">
<path d="M475.666,342.651l-0.847-0.521c-0.794-5.105-2.973-9.835-6.38-13.756l-1.637-1.898c-1.706-1.963-4.34-2.823-6.885-2.243
	c-2.539,0.581-4.541,2.501-5.225,5.01l-4.09,14.995l-42.865,14.843c-10.557-2.028-20.657-4.085-30.069-6.123
	c-6.326-12.523-17.495-31.113-36.303-53.37c1.042-1.987,2.127-3.582,3.186-4.662c0.077-0.022,0.265-0.06,0.615-0.06
	c1.962,0,5.474,1.147,9.191,2.363c5.978,1.954,13.419,4.386,20.827,4.386c0.975,0,1.925-0.057,2.86-0.142
	c-0.231,2.118-0.364,4.274-0.364,6.461c0,16.945,9.482,32.842,9.886,33.511c0.549,0.909,1.529,1.449,2.567,1.449
	c0.16,0,0.32-0.013,0.481-0.039c1.209-0.196,2.177-1.107,2.446-2.302c0.217-0.963,5.302-23.695,4.635-34.113
	c-0.229-3.645-1.203-7.971-2.892-12.881c5.832-5.365,9.326-12.089,9.887-19.157c0.657-8.271-2.588-16.451-9.645-24.311
	c-5.33-5.939-13.429-8.95-24.07-8.95c-12.755,0-25.835,4.303-32.493,6.867c-5.896,2.263-8.849,8.708-6.724,14.676l0.995,2.785
	l-5.399,1.35c-0.143-0.423-0.318-0.876-0.524-1.354c-0.002-0.005-0.003-0.011-0.005-0.016c-0.002-0.004-0.004-0.008-0.006-0.013
	l-0.001-0.002c0-0.001-0.001-0.001-0.001-0.001c-0.867-2.023-2.124-4.004-3.75-5.913c2.639-4.972,5.724-15.641,10.364-32.069
	c3.132-11.087,6.37-22.551,9.592-31.913c1.009-2.934,2.682-5.603,4.836-7.715c7.502-7.352,16.96-24.697,24.56-38.634
	c2.121-3.89,4.124-7.564,5.866-10.617c1.589-2.792,4.067-5.144,7.171-6.804c13.981-7.497,23.597-25.848,30.412-40.997
	c0.478-1.061,0.299-2.303-0.459-3.185c-0.758-0.883-1.956-1.247-3.079-0.937c-17.556,4.877-31.806,26.441-33.52,29.12
	l-51.399,56.077c-1.315,1.432-2.365,3.067-3.119,4.857c-12.604,29.828-21.385,49.723-24.087,54.583
	c-4.378,7.879-12.563,15.351-20.917,19.065c-18.156,8.601-62.304,56.735-72.804,72.12c-22.565-1.366-88.075,20.793-93.104,22.506
	c-36.334,6.796-76.684,12.588-81.429,10.547c-2.67-1.335-6.683-12.881-7.95-22.87c-0.388-3.122-1.128-6.242-2.199-9.271
	c-1.054-2.983-2.448-5.874-4.147-8.593c-1.366-2.186-3.875-3.236-6.39-2.675c-2.515,0.56-4.339,2.577-4.647,5.136
	c-0.009,0.074-0.015,0.148-0.019,0.221l-1.445,31.45c-0.167,3.641-0.751,7.269-1.735,10.783l-3.252,11.6
	c-0.042,0.149-0.072,0.301-0.09,0.454c-0.395,3.296,0.655,6.601,2.878,9.068c2.222,2.464,5.378,3.847,8.706,3.799
	c2.642-0.038,5.182-0.777,7.87-1.559c3.021-0.878,6.142-1.787,9.85-1.863c3.118-0.063,15.553,1.02,27.621,2.067
	c13.946,1.21,28.343,2.459,33.563,2.458c0.289,0,0.551-0.003,0.782-0.012c11.75-0.4,19.321-2.713,26.643-4.949
	c2.104-0.643,4.1-1.253,6.165-1.807c12.242,0.436,37.266-2.52,61.474-5.374c20.755-2.447,40.362-4.758,47.343-4.323
	c15.221,0.951,127.391,14.363,128.486,14.494l3.274,0.431c8.368,7.476,14.946,11.265,19.581,11.265c0.435,0,0.852-0.033,1.252-0.1
	c3.337-0.556,9.087-2.563,17.547-6.122l60.114,7.915c0.456,0.06,0.912,0.089,1.367,0.089c2.55,0,5.032-0.923,6.971-2.625
	c2.28-2.003,3.589-4.893,3.589-7.928v-18.861c0.434,0.094,0.875,0.153,1.32,0.153c0.001,0,0.001,0,0.001,0
	c2.431,0,4.665-1.423,5.693-3.625C485.831,356.513,483.034,347.184,475.666,342.651z M396.46,362.986l-12.425,4.303
	c-0.653-1.77-1.659-4.301-3.095-7.495C385.949,360.857,391.132,361.924,396.46,362.986z M388.949,330.716
	c-2.478-5.822-5.266-14.268-5.266-22.784c0-2.641,0.191-5.236,0.556-7.748c1.502-0.515,2.944-1.169,4.3-1.966
	c0.419-0.248,0.816-0.522,1.223-0.785c1.116,3.579,1.785,6.775,1.948,9.385C392.082,312.617,390.368,323.218,388.949,330.716z
	 M337.424,270.486c0.821-0.206,1.519-0.749,1.918-1.495c0.399-0.747,0.465-1.627,0.18-2.425l-2.108-5.899
	c-1.022-2.872,0.393-5.972,3.226-7.059c5.05-1.945,18.115-6.467,30.34-6.467c8.865,0,15.462,2.341,19.605,6.958
	c5.915,6.588,8.65,13.26,8.128,19.828c-0.653,8.234-6.2,13.875-9.448,16.505c-1.171,0.949-2.442,1.831-3.773,2.618
	c-1.406,0.827-2.943,1.458-4.575,1.879c-1.749,0.455-3.677,0.686-5.729,0.686c-6.453,0-13.39-2.267-18.963-4.089
	c-4.367-1.427-8.138-2.66-11.056-2.66c-2.018,0-3.629,0.587-4.787,1.746c-1.888,1.887-3.669,4.629-5.292,8.142
	c-1.569,3.373-2.605,6.591-3.019,7.97c-0.081,0.27-0.185,0.531-0.318,0.78c-1.189,2.228-2.567,4.026-4.106,5.354
	c-2.081,1.807-4.415,2.723-6.939,2.723c-5.217,0-10.829-3.897-15.013-10.427c-8.194-12.784,8.973-27.797,16.6-33.574
	c0.194,0.492,0.517,0.93,0.944,1.263c0.728,0.568,1.679,0.769,2.574,0.546L337.424,270.486z M281.794,255.802
	c9.547-4.243,18.612-12.521,23.658-21.603c3.837-6.899,16.915-37.522,24.371-55.166c0.487-1.156,1.163-2.21,2.012-3.133
	l51.582-56.275c0.124-0.135,0.234-0.282,0.332-0.438c0.119-0.19,10.328-16.345,23.353-23.823
	c-6.097,12.493-14.082,25.539-24.476,31.112c-4.1,2.193-7.402,5.348-9.551,9.122c-1.77,3.101-3.786,6.799-5.921,10.715
	c-7.409,13.587-16.63,30.496-23.492,37.223c-2.817,2.763-4.999,6.237-6.31,10.048c-3.276,9.521-6.538,21.068-9.692,32.234
	c-3.739,13.236-8.391,29.705-10.496,31.887c-9.533,9.226-18.583,13.36-26.91,12.287c-7.822-1.009-13.271-6.491-15.778-9.593
	C277.238,258.367,279.717,256.787,281.794,255.802z M269.737,264.098c3.084,3.858,9.74,10.527,19.683,11.837
	c1.147,0.151,2.3,0.227,3.46,0.227c8.472,0,17.256-4.043,26.184-12.035c0.404,0.517,0.771,1.036,1.099,1.557
	c-3.019,2.179-8.51,6.465-13.333,11.962c-12.367,14.094-10.19,24.499-6.186,30.745c5.292,8.26,12.793,13.19,20.065,13.19
	c3.954,0,7.714-1.45,10.866-4.188c2.023-1.747,3.807-4.022,5.314-6.774c0.19-0.347,0.714-1.423,0.766-1.612
	c0.006-0.022,0.378-1.361,1.056-3.256c1.662,2.001,3.242,3.963,4.779,5.9c-18.131,7.396-28.613,24.307-31.085,28.684
	c-45.024,17.561-89.649-8.585-100.25-15.51C221.079,312.259,250.123,280.163,269.737,264.098z M29.262,375.204
	c-4.499,0.092-8.166,1.159-11.402,2.101c-2.388,0.695-4.45,1.295-6.282,1.321c-0.028,0-0.056,0-0.083,0
	c-1.552,0-3.034-0.659-4.078-1.817c-1.018-1.129-1.522-2.625-1.398-4.133l3.183-11.352c1.107-3.953,1.764-8.033,1.952-12.127
	l1.434-31.203c1.459,2.34,2.657,4.825,3.563,7.389c0.928,2.622,1.567,5.317,1.902,8.018c0.03,0.233,3.19,23.474,11.221,27.489
	c5.077,2.539,30.751-0.817,53.477-4.476c-1.048,5.299-2.106,15.046,1.846,23.061c-6.882-0.433-17.426-1.345-27.07-2.182
	C44.176,376.135,32.633,375.135,29.262,375.204z M184.93,367.628c-23.148,2.73-49.375,5.824-60.975,5.321
	c-0.3-0.013-0.602,0.02-0.894,0.096c-2.333,0.614-4.614,1.311-6.82,1.985c-6.81,2.08-13.857,4.225-24.45,4.662
	c-6.214-7.673-3.591-20.594-2.654-24.326c10.628-1.775,20.041-3.497,25.563-4.531c0.143-0.026,0.282-0.063,0.419-0.11
	c0.721-0.246,71.419-24.32,91.769-22.203c3.063,2.157,16.324,11.051,35.266,17.388c27.792,9.297,54.692,8.487,77.89-2.314
	c4.026,1.58,8.961,3.228,14.997,5.008c4.876,8.478,13.565,19.49,22.472,28.642c-21.795-2.598-110.391-13.108-124.162-13.968
	C225.823,362.805,206.875,365.041,184.93,367.628z M327.272,339.849c0.253-0.145,0.505-0.285,0.758-0.433
	c0.059-0.034,0.115-0.07,0.171-0.108c0.313-0.18,0.627-0.364,0.941-0.552c0.417,0.671,0.873,1.407,1.34,2.165
	C329.362,340.559,328.298,340.202,327.272,339.849z M384.585,389.436c-2.001,0.331-7.543-2.171-16.526-10.322
	c-10.882-9.873-22.82-24.379-28.389-34.498c-1.502-2.719-6.963-11.488-6.963-11.488c-0.593-1.035-1.767-1.639-2.977-1.485
	c-0.492,0.061-0.952,0.243-1.347,0.518c-1.123,0.729-4.733,2.834-5.317,3.157c5.048-6.439,13.25-14.719,24.275-18.722
	c25.013,32.826,31.879,55.116,31.954,55.366c0.232,0.785,0.776,1.441,1.505,1.815c0.429,0.22,0.899,0.332,1.371,0.332
	c0.331,0,0.663-0.055,0.981-0.165l65.537-22.694l-1.679,6.156c-0.985,3.63-3.535,6.56-6.994,8.039
	c-0.034,0.014-0.061,0.036-0.094,0.052c-0.023,0.011-0.047,0.015-0.069,0.026c-0.213,0.106-21.488,10.729-38.195,17.817
	c-0.045,0.017-0.089,0.034-0.133,0.052C391.165,387.78,386.593,389.101,384.585,389.436z M467.61,390.102
	c-1.001,0.879-2.284,1.264-3.6,1.096l-50.26-6.618c14.389-6.502,28.613-13.604,28.789-13.692c0.02-0.01,0.036-0.025,0.055-0.035
	c5.042-2.234,8.761-6.543,10.208-11.873l7.681-28.16c0.143-0.522,0.545-0.687,0.773-0.739c0.228-0.053,0.664-0.078,1.012,0.32
	l1.637,1.898c2.681,3.087,4.388,6.807,4.999,10.822l-7.317,7.927c-1.415,1.533-2.037,3.593-1.707,5.653
	c0.331,2.06,1.566,3.822,3.391,4.835l5.889,3.271v21.874C469.158,388.011,468.608,389.226,467.61,390.102z M476.735,361.812
	c-0.071,0.155-0.226,0.163-0.256,0.163c-0.046,0-0.088-0.012-0.132-0.036l-10.164-5.647c-0.266-0.147-0.353-0.376-0.38-0.542
	c-0.026-0.165-0.016-0.41,0.19-0.633l6.695-7.253C477.334,350.838,479.077,356.797,476.735,361.812z"/>
<g>
</g>
<g>
</g>
<g>
</g>
<g>
</g>
<g>
</g>
<g>
</g>
<g>
</g>
<g>
</g>
<g>
</g>
<g>
</g>
<g>
</g>
<g>
</g>
<g>
</g>
<g>
</g>
<g>
</g>
</svg>
