<?xml version="1.0" encoding="iso-8859-1"?>
<!-- Generator: Adobe Illustrator 18.0.0, SVG Export Plug-In . SVG Version: 6.00 Build 0)  -->
<!DOCTYPE svg PUBLIC "-//W3C//DTD SVG 1.1//EN" "http://www.w3.org/Graphics/SVG/1.1/DTD/svg11.dtd">
<svg version="1.1" id="Capa_1" xmlns="http://www.w3.org/2000/svg" xmlns:xlink="http://www.w3.org/1999/xlink" x="0px" y="0px"
	 viewBox="0 0 475.939 475.939" style="enable-background:new 0 0 475.939 475.939;" xml:space="preserve">
<path d="M475.561,192.419c-10.253-42.765-29.993-48.823-40.821-48.61c-17.194,0.32-27.091,9.287-32.367,16.753
	c-4.027,5.699-6.474,12.082-7.619,18.009c-2.031-1.052-4.623-2.157-7.404-2.737c-6.341-1.323-12.867,1.582-16.255,7.217
	c-6.913,11.491-0.324,29.135,7.354,43.132c-13.777,2.431-31.509,5.116-47.969,6.271c-25.006,1.754-42.116,9.474-50.09,13.92
	c-2.241,1.249-4.844,1.689-7.326,1.246l-7.031-1.262c-7.697-1.382-15.441-1.105-23.018,0.826l-3.598,0.916
	c-2.087,0.532-3.819,1.95-4.753,3.891c-0.934,1.941-0.96,4.18-0.072,6.143l0.909,2.009c-4.915-0.473-9.897-0.281-14.745,0.578
	c-8.352,0.703-22.961-4.491-24.013-4.87c-1.982-0.831-30.319-12.653-43.387-15.029c-11.368-2.067-54.791-1.519-67.831-1.302
	c-1.626,0.01-3.226-0.501-4.518-1.486l-4.198-3.199c-4.31-3.284-10.179-3.39-14.605-0.266c-2.48,1.75-5.393,2.745-8.387,2.873
	l-32.874,0.993c-3.36,0.144-6.243,2.29-7.343,5.468c-1.101,3.177-0.165,6.646,2.385,8.838l0.314,0.27l-8.254,0.104
	c-3.469,0.043-6.444,2.185-7.58,5.456c-1.142,3.289-0.128,6.834,2.583,9.031c7.276,5.896,19.284,13.36,35.166,15.432
	c9.363,1.221,22.791,1.828,37.006,2.47c28.311,1.279,60.398,2.728,76.475,9.239c2.578,1.043,5.612,2.302,9.023,3.717
	c28.919,11.996,81.172,33.675,115.897,33.674c2.339,0,4.602-0.099,6.77-0.305c10.394-0.99,21.601-1.282,33.466-1.592
	c30.347-0.793,61.715-1.611,82.552-14.477c10.503-0.342,18.558-3.993,23.949-10.86c10.613-13.517,7.125-34.946,6.222-39.527
	l8.896-26.704c4.076-2.46,18.068-12.044,18.931-28.153c2.684-0.581,5.433-1.204,8.203-1.857c3.492-0.825,6.451-2.961,8.332-6.018
	C475.827,199.569,476.404,195.938,475.561,192.419z M392.701,187.925c0.406-0.371,0.846-0.637,1.283-0.84
	c0.058,2.691,0.428,5.106,1.085,7.073c3.528,10.599,16.097,15.074,22.463,16.694l-2.127,5.048l-12.981,5.592
	c-0.948,0.21-4.538,0.993-9.955,2.067c-0.999-9.989-2.043-21.983-2.043-28.466C390.425,191.717,391.191,189.306,392.701,187.925z
	 M376.237,186.144c2.108-3.506,5.988-5.246,9.89-4.436c1.183,0.247,2.341,0.625,3.415,1.057c-0.266,0.197-0.53,0.41-0.789,0.642
	c-2.872,2.561-4.328,6.493-4.328,11.685c0,6.84,1.099,19.373,2.128,29.611c-0.607,0.115-1.232,0.231-1.865,0.349
	C378.473,214.089,370.24,196.112,376.237,186.144z M240.059,255.662c-0.211-0.468-0.083-0.871,0.013-1.069
	c0.095-0.199,0.33-0.551,0.827-0.677l3.597-0.916c6.742-1.716,13.631-1.963,20.479-0.735l7.03,1.262
	c3.845,0.692,7.859,0.012,11.308-1.912c7.538-4.202,23.743-11.502,47.588-13.175c16.203-1.137,33.604-3.733,47.368-6.135
	c-11.422,4.513-26.632,9.543-42.694,12.08c-27.27,4.306-60.321,15.354-73.265,19.905c-2.458,0.864-5.088,0.958-7.607,0.271
	l-10.145-2.766c-0.64-0.175-1.289-0.319-1.936-0.469L240.059,255.662z M242.971,267.581c3.468,0.946,7.189,1.96,10.156,2.769
	c3.677,1.002,7.566,0.866,11.162-0.398c12.783-4.493,45.431-15.412,72.221-19.642c33.285-5.255,62.105-20.396,64.496-21.675
	l6.63-2.856c3.917,1.458,18.576,8.019,20.516,24.878l-2.535,7.61c-5.253,6.78-10.537,10.173-15.689,10.016
	c-3.613-0.097-6.708-1.911-8.973-3.788c2.805-0.131,5.107-0.122,6.647,0.099c1.815,0.261,3.486-1.166,3.423-3.091
	c-0.048-1.5-1.272-2.679-2.76-2.874c-6.365-0.836-20.818,0.927-36.111,2.791c-13.466,1.641-27.394,3.337-34.779,3.083
	c-3.279-0.117-6.491,0.488-9.549,1.789c-14.246,6.056-55.322,17.317-69.113,17.317c-13.171,0-32.575-6.324-39.025-8.561
	l-2.684-5.958c-0.22-0.489-0.074-0.904,0.034-1.107c0.107-0.204,0.365-0.56,0.893-0.656l3.679-0.669
	C228.71,265.368,236.008,265.682,242.971,267.581z M338.111,270.517c-2.222,0.338-4.382,0.581-6.442,0.752
	c1.787-0.568,3.63-0.832,5.497-0.77C337.467,270.51,337.793,270.513,338.111,270.517z M194.489,261.413
	c0.042,0.018,8.667,3.159,16.872,4.593c-0.681,1.792-0.63,3.77,0.171,5.548l0.497,1.102c-8.6-1.532-15.689-3.383-19.502-4.462
	c-1.965-0.555-3.901-1.317-5.754-2.267c-13.931-7.132-31.802-10.655-49.571-12.171l0.036-8.13c6.843,0.228,12.199,0.583,15.044,1.1
	C164.897,249.02,194.195,261.289,194.489,261.413z M19.894,248.193c-0.996-0.856-0.771-1.911-0.628-2.324
	c0.144-0.414,0.619-1.381,1.893-1.437l32.874-0.993c4.185-0.179,8.206-1.551,11.628-3.967c2.276-1.606,5.294-1.551,7.509,0.137
	l4.198,3.199c2.36,1.799,5.316,2.781,8.255,2.713c15.36-0.256,32.344-0.335,45.614-0.055l-0.035,7.851
	c-22.984-1.406-45.03,0.275-57.276,1.573c-2.934,0.315-5.792-1.009-7.455-3.448c-3.761-5.513-11.367-7.028-16.956-3.379
	l-3.227,2.109c-2.514,1.643-5.431,2.531-8.434,2.569l-12.487,0.157L19.894,248.193z M38.989,277.086
	c-14.492-1.89-25.49-8.735-32.165-14.144c-1.105-0.896-0.81-2.065-0.693-2.401c0.147-0.423,0.634-1.408,1.987-1.425l29.813-0.375
	c4.146-0.052,8.17-1.278,11.641-3.546l3.227-2.108c1.06-0.692,2.26-1.023,3.45-1.023c2.038,0,4.047,0.97,5.268,2.76
	c2.91,4.266,7.908,6.578,13.044,6.033c25.735-2.729,46.4-2.543,62.62-1.02c-1.135,5.564-2.993,16.459-2.093,24.492
	c-17.274-2.902-39.379-3.904-59.597-4.817C61.404,278.875,48.099,278.274,38.989,277.086z M316.693,324.24
	c-11.971,0.313-23.279,0.608-33.878,1.618c-32.858,3.124-91.579-21.231-119.798-32.938c-3.43-1.423-6.48-2.688-9.071-3.737
	c-3.576-1.448-7.848-2.655-12.62-3.674c-1.368-6.522,0.491-18.429,1.849-25.02c23.157,2.823,36.048,8.313,40.865,10.779
	c2.205,1.129,4.512,2.037,6.856,2.7c4.162,1.177,12.116,3.249,21.694,4.876c0.883,0.15,4.76,1.769,7.383,2.649
	c8.228,2.762,25.846,8.116,38.74,8.116c11.487,0,37.522-6.555,55.815-12.291c0.775,0.072,2.246,0.19,4.252,0.269l-0.01,46.598
	C318.077,324.204,317.384,324.222,316.693,324.24z M418.632,301.195c-4.318,5.5-11.012,8.382-19.892,8.577
	c-1.206-0.234-5.86-1.181-10.271-2.651c-1.573-0.525-3.271,0.326-3.795,1.898c-0.524,1.572,0.326,3.271,1.897,3.795
	c1.203,0.401,2.412,0.762,3.573,1.086c-17.445,8.021-41.373,9.417-65.376,10.121l0.01-46.366c10.175-0.16,25.649-1.802,38.285-9.099
	c3.237-0.378,6.538-0.78,9.815-1.18c7.008-0.854,14.125-1.721,20.222-2.296c2.349,2.868,8.289,8.953,16.615,9.2
	c0.177,0.005,0.352,0.008,0.528,0.008c4.728,0,9.345-1.898,13.8-5.645C425.025,275.072,426.485,291.193,418.632,301.195z
	 M468.584,199.864c-1.081,1.551-2.766,2.58-4.605,3.013c-3.457,0.813-6.878,1.578-10.172,2.272
	c-1.417,0.299-2.426,1.569-2.378,3.016c0.541,16.311-16.684,25.734-16.853,25.824c-0.68,0.362-1.195,0.971-1.439,1.701l-1.525,4.577
	c-3.913-9.29-11.178-14.749-16.563-17.682l3.839-1.654c0.712-0.306,1.277-0.876,1.578-1.59l4.004-9.503
	c0.359-0.853,0.305-1.824-0.148-2.632c-0.453-0.808-1.253-1.361-2.168-1.499c-4.955-0.75-18.457-4.628-21.393-13.447
	c-1.79-5.365-0.952-17.671,6.512-28.236c4.476-6.334,12.893-13.943,27.578-14.216c0.148-0.003,0.294-0.004,0.44-0.004
	c20.765,0,30.482,27.526,34.434,44.014C470.229,195.917,469.824,198.085,468.584,199.864z"/>
<g>
</g>
<g>
</g>
<g>
</g>
<g>
</g>
<g>
</g>
<g>
</g>
<g>
</g>
<g>
</g>
<g>
</g>
<g>
</g>
<g>
</g>
<g>
</g>
<g>
</g>
<g>
</g>
<g>
</g>
</svg>
