<?xml version="1.0" encoding="iso-8859-1"?>
<!-- Generator: Adobe Illustrator 18.0.0, SVG Export Plug-In . SVG Version: 6.00 Build 0)  -->
<!DOCTYPE svg PUBLIC "-//W3C//DTD SVG 1.1//EN" "http://www.w3.org/Graphics/SVG/1.1/DTD/svg11.dtd">
<svg version="1.1" id="Capa_1" xmlns="http://www.w3.org/2000/svg" xmlns:xlink="http://www.w3.org/1999/xlink" x="0px" y="0px"
	 viewBox="0 0 438.934 438.934" style="enable-background:new 0 0 438.934 438.934;" xml:space="preserve">
<path d="M438.576,364.024c-2.898-5.381-13.174-10.627-26.973-16.574c4.745-0.059,8.875-0.767,10.815-2.725
	c1.254-1.267,1.748-2.944,1.392-4.725c-0.621-3.108-3.912-7.375-23.609-15.458c-7.93-3.253-15.826-5.993-19.192-7.131
	c-1.171-6.762-1.894-14.652-1.586-22.659c0.192-5.005,1.171-14.14,2.305-24.717c4.336-40.448,7.683-77.755,1.097-89.829
	c-0.795-1.457-2.359-4.318-10.366-6.371c-1.013-4.01-2.227-7.015-3.689-9.148c-1.99-2.906-8.051-11.751-70.103-0.02
	c-31.125,5.884-63.962,14.723-73.719,18.439c-4.07,1.415-8.386,2.565-12.832,3.426c-26.804-0.523-50.894-9.593-57.29-12.204
	c-0.411-4.224-2.246-13.867-10.409-18.63c-6.563-3.825-14.943-2.107-23.05-0.441c-4.522,0.929-8.793,1.811-12.129,1.549
	c-3.844-0.296-8.814-2.811-13.995-7.079c-2.504-2.064-4.567-4.583-6.132-7.488l-6.929-12.867l9.165-4.965
	c4.959-2.686,7.485-8.382,6.144-13.853c-1.077-4.395-3.398-12.557-6.901-24.261c-2.824-9.438-9.614-17.139-18.627-21.127
	c-8.829-3.907-18.844-3.774-27.477,0.361c-11.016,5.277-18.157,13.4-21.227,24.143c-2.099,7.346-2.129,14.009-0.911,19.949
	c-0.182-0.03-0.39-0.067-0.636-0.118c-7.281-1.526-14.512,1.688-18.417,8.181c-13.631,22.646,19.348,67.071,20.758,68.952
	c0.58,0.772,1.477,1.199,2.401,1.199c0.373,0,0.751-0.069,1.113-0.215c1.259-0.503,2.024-1.789,1.866-3.136
	c-0.045-0.384-4.521-38.614-4.521-53.028c0-3.955,0.888-6.81,2.637-8.54c6.34,10.746,15.808,17.412,18.781,19.328l5.749,14.164
	c-5.012,7.897-7.842,17.789-7.842,24.482c0,12.848-3.47,66.18-3.743,70.357c-0.676,2.817-6.1,25.761-7.545,42.377
	c-0.171,1.97-0.392,4.224-0.631,6.681c-2.697,27.604-4.286,52.918,5.765,59.379c7.157,4.6,24.637,6.66,38.786,6.66
	c0.001,0,0.001,0,0.002,0c6.619,0,18.518-0.465,23.856-3.579c2.951-1.722,2.878-4.024,2.709-4.935
	c-0.569-3.078-4.019-5.714-19.434-9.338c-8.307-1.952-16.355-3.276-16.664-3.327l-14.189-2.468c0.539-2.308,1.342-5.782,2.291-10.01
	c0.535,0.361,1.094,0.703,1.641,1.057c6.632,4.265,23.782,6.708,38.814,6.708c10.275,0,19.562-1.142,23.823-3.624
	c2.951-1.722,2.877-4.025,2.709-4.936c-0.57-3.079-4.019-5.715-19.43-9.34c-8.305-1.953-16.351-3.277-16.66-3.328l-14.197-2.471
	c1.446-6.188,4.784-20.743,7.767-35.798c6.654-33.583,6.299-42.708,5.414-45.987c1.327-2.768,3.084-7.145,5.233-13.014
	c6.9,4.904,16.777,10.723,28.854,14.523c15.519,4.884,26.559,4.462,37.235,4.054c7.664-0.293,14.903-0.57,23.273,1.291
	c8.43,1.873,14.029,5.942,19.444,9.877c6.846,4.975,13.915,10.112,25.853,10.112c0.449,0,0.908-0.007,1.372-0.022
	c38.588-1.241,93.461-25.91,113.264-35.418c-3.439,11.548-3.356,29.392,0.279,53.367c1.699,11.204,3.931,22.066,5.927,30.82
	l-4.909,22.341c-1.215,5.535,1.938,11.017,7.332,12.751l2.702,0.869l0.217,10.598c0.138,6.777,5.11,12.383,11.823,13.33l39.99,5.64
	c2.467,0.348,4.928,0.52,7.366,0.52c6.635,0,13.097-1.279,18.997-3.79c3.738-1.592,6.594-3.357,8.485-5.25
	C438.993,366.63,439.204,365.19,438.576,364.024z M417.705,340.773c-2.866,1.286-13.972,0.718-24.997-1.341
	c-2.867-1.291-5.089-2.405-5.692-3.025c-1.351-1.621-3.108-6.081-4.6-12.193C401.736,330.867,415.601,337.776,417.705,340.773z
	 M299.78,170.562c55.394-10.47,63.064-3.908,64.04-2.483c0.552,0.805,1.277,2.185,2.034,4.495
	c-10.062-1.399-26.304-1.749-52.774,0.524c-20.774,1.782-42.401,4.762-57.635,7.365C268.587,177.103,284.377,173.474,299.78,170.562
	z M18.911,131.454c0,9.658,1.873,29,3.221,41.663c-9.616-15.44-21.303-39.703-13.695-52.343c2.148-3.573,5.805-5.641,9.728-5.641
	c0.77,0,1.55,0.079,2.332,0.243c1.234,0.252,2.555,0.662,3.931,1.208c0.113,0.283,0.235,0.557,0.353,0.836
	C21.923,119.497,18.911,123.556,18.911,131.454z M51.521,139.083c-0.253-0.623-0.708-1.144-1.292-1.477
	c-0.296-0.169-29.499-17.248-21.202-46.288c2.577-9.021,8.649-15.877,18.049-20.38c7.048-3.376,15.234-3.482,22.456-0.285
	c7.407,3.277,12.986,9.604,15.307,17.36c3.473,11.607,5.769,19.672,6.822,23.968c0.691,2.822-0.614,5.763-3.174,7.149l-11.796,6.39
	c-1.455,0.787-1.997,2.604-1.213,4.06l8.347,15.502c1.935,3.594,4.492,6.714,7.6,9.275c2.137,1.761,4.81,3.713,7.747,5.3
	c-2.586,0.044-5.68-0.484-9.12-2.19c-2.534-5.101-6.342-9.045-11.298-11.631c-2.683-1.399-5.422-2.108-8.143-2.108
	c-5.513,0-10.342,2.861-14.309,7.134L51.521,139.083z M66.336,351.081c11.475,1.877,24.587,4.967,29.575,7.262
	c-3.229,1.065-9.435,2-19.045,2c-15.45,0-30.397-2.4-35.542-5.707c-7.799-5.014-4.583-37.93-3.038-53.749
	c0.243-2.48,0.465-4.755,0.638-6.744c1.469-16.895,7.4-41.491,7.46-41.737c0.041-0.168,0.067-0.338,0.078-0.51
	c0.154-2.342,3.773-57.504,3.773-71.007c0-10.393,8.809-31.16,20.376-31.16c1.745,0,3.55,0.48,5.367,1.429
	c14.471,7.55,11.578,27.874,11.27,29.788c-1.193,3.878-20.448,66.304-26.846,78.389c-0.453,0.855-0.465,1.878-0.032,2.745
	c2.522,5.045-5.032,45.821-13.793,82.327c-0.193,0.806-0.045,1.655,0.41,2.348c0.455,0.692,1.176,1.166,1.993,1.309L66.336,351.081z
	 M79.393,233.4c-0.452,0.855-0.464,1.877-0.031,2.743c1.98,3.962-2.637,35.837-13.793,82.319c-0.193,0.806-0.045,1.655,0.41,2.348
	c0.455,0.692,1.176,1.166,1.993,1.309l17.363,3.021c11.485,1.88,24.609,4.974,29.583,7.271c-10.619,3.54-45.464,2.156-54.589-3.711
	c-1.162-0.751-2.182-2.373-2.976-4.697c1.15-5.305,2.382-11.164,3.56-17.109c6.654-33.586,6.298-42.712,5.414-45.991
	c3.756-7.841,10.466-27.538,16.224-45.235c0.974,0.845,1.972,1.678,2.994,2.5C82.185,227.471,80.352,231.585,79.393,233.4z
	 M156.411,234.534c-10.165,0.39-20.678,0.79-35.206-3.78c-13.304-4.186-23.809-11-30.278-15.978
	c-2.237-1.724-4.364-3.518-6.358-5.347c4.554-14.155,8.127-25.783,8.472-26.908c0.033-0.107,0.06-0.217,0.081-0.327
	c0.05-0.266,1.209-6.603,0.114-14.165c-0.159-1.097-0.366-2.157-0.602-3.193c2.22,0.592,4.302,0.837,6.201,0.837
	c5.335,0,9.257-1.852,10.978-2.845c3.91,0.11,8.216-0.762,12.76-1.695c7.001-1.438,14.24-2.924,18.819-0.253
	c7.409,4.322,7.551,15.385,7.551,15.488c0,1.181,0.692,2.251,1.769,2.735c1.393,0.628,26.236,11.618,56.089,13.274
	c3.236,18.16-9.561,40.723-14.016,47.883c-3.324-1.767-7.093-3.303-11.571-4.298C172.09,233.937,164.474,234.228,156.411,234.534z
	 M226.388,255.792c-10.727,0.348-16.644-3.962-23.504-8.947c-1.57-1.141-3.203-2.324-4.943-3.483
	c4.814-7.682,17.829-30.708,14.954-50.782c0.437,0.004,0.871,0.016,1.309,0.016c8.246,0,16.754-0.799,25.149-2.783
	c9.939-2.676,42.99-8.055,74.24-10.736c56.172-4.817,63.138,2.489,63.964,4.003c5.168,9.474,2.597,43.308-0.144,70.562
	c-9.004,6.364-26.957,6.393-33.587,6.165c-1.253-16.058-0.484-30.326,4.313-37.785c0.153-0.177,0.283-0.369,0.389-0.573
	c0.77-1.091,1.632-2.027,2.603-2.772c1.315-1.008,1.563-2.892,0.556-4.206c-1.009-1.314-2.893-1.563-4.206-0.556
	c-1.336,1.024-2.538,2.294-3.611,3.796C336.65,221.33,269.598,254.402,226.388,255.792z M350.31,339.937
	c-2.434-0.782-3.855-3.254-3.308-5.751l2.27-10.331c0.775,3.012,1.338,5.07,1.561,5.874l0.213,10.445L350.31,339.937z
	 M427.22,367.295c-7.064,3.007-15.08,3.992-23.176,2.85l-39.99-5.64c-3.783-0.533-6.585-3.692-6.663-7.512l-0.567-27.768
	c-0.005-0.256-0.043-0.51-0.112-0.757c-3.853-13.596-9.884-39.29-12.333-62.635c0.956,0.028,2.058,0.049,3.306,0.049
	c7.596,0,19.926-0.747,28.977-4.948c-0.311,2.959-0.615,5.796-0.9,8.46c-1.192,11.127-2.135,19.916-2.335,25.126
	c-0.724,18.815,4.232,40.03,8.979,45.728c1.837,2.204,7.211,4.502,18.221,9.081c9.88,4.109,25.637,10.662,31.081,15.646
	C430.49,365.764,428.977,366.547,427.22,367.295z"/>
<g>
</g>
<g>
</g>
<g>
</g>
<g>
</g>
<g>
</g>
<g>
</g>
<g>
</g>
<g>
</g>
<g>
</g>
<g>
</g>
<g>
</g>
<g>
</g>
<g>
</g>
<g>
</g>
<g>
</g>
</svg>
