<?xml version="1.0" encoding="iso-8859-1"?>
<!-- Generator: Adobe Illustrator 18.0.0, SVG Export Plug-In . SVG Version: 6.00 Build 0)  -->
<!DOCTYPE svg PUBLIC "-//W3C//DTD SVG 1.1//EN" "http://www.w3.org/Graphics/SVG/1.1/DTD/svg11.dtd">
<svg version="1.1" id="Capa_1" xmlns="http://www.w3.org/2000/svg" xmlns:xlink="http://www.w3.org/1999/xlink" x="0px" y="0px"
	 viewBox="0 0 418.273 418.273" style="enable-background:new 0 0 418.273 418.273;" xml:space="preserve">
<path d="M416.718,143.604c-0.55-1.384-1.238-2.77-2.048-4.119c-3.754-6.256-8.663-11.307-14.594-15.013
	c-2.674-1.671-5.962-1.624-8.577,0.123c-0.994,0.664-5.838,5.837-5.838,5.837c-4.652,4.509-10.776,7.192-17.245,7.554l-69.783,3.903
	c-0.039,0.002-0.079,0.005-0.119,0.009c-4.844,0.466-9.578,1.656-14.073,3.537c-8.469,3.545-19.997,8.588-26.823,12.488
	c-7.778,4.445-22.181,6.31-27.847,6.894c-0.648-2.082-4.191-12.411-4.643-13.649c-5.131-14.072-13.991-35.685-26.799-57.767
	c-12.78-22.035-26.943-40.25-42.097-54.141c-19.102-17.509-39.84-28.17-61.641-31.686C65.559,2.891,27.162,2.143,9.112,25.168
	C-3.226,40.908-1.161,61.689,4.357,74.703c8.385,19.777,65.697,124.975,71.701,135.983c-0.567,7.805-4.261,60.749-1.408,79.291
	c1.425,9.264,6.408,22.031,11.227,34.378c5.524,14.154,11.237,28.79,11.237,37.163c0,9.292-1.47,21.098-2.703,29.366
	c-1.131,7.576,4.1,14.78,11.658,16.06c27.516,4.656,46.87,6.395,60.439,6.395c17.58,0,25.444-2.921,28.724-6.201l8.532-8.531
	c1.742-1.743,2.342-4.277,1.564-6.615c-0.775-2.335-2.771-4.003-5.206-4.356c-1.005-0.145-2.015-0.297-3.027-0.453l-2.819-2.916
	c-5.872-6.073-13.003-10.879-21.194-14.286c-25.084-10.43-39.506-28.469-42.167-32.014c-0.816-12.841-1.222-28.852-1.365-45.272
	c5.826,6.16,13.868,10.673,23.118,12.802c3.924,0.903,7.917,1.345,11.881,1.345c10.451,0,20.683-3.076,28.806-8.878
	c2.191-1.565,4.143-3.349,5.898-5.281c3.799,0.285,9.223,2.606,9.223,13.541c0,17.758-5.506,64.767-5.561,65.239
	c-0.158,1.347,0.606,2.633,1.866,3.136c0.362,0.145,0.739,0.214,1.112,0.214c0.924,0,1.821-0.427,2.401-1.2
	c1.721-2.295,41.966-56.525,25.46-83.958c-3.83-6.367-10.451-10.167-17.711-10.167c-1.398,0-2.808,0.146-4.188,0.433
	c-1.802,0.375-3.537,0.919-5.175,1.532c6.445-13.395,7.353-28.736,7.425-35.087c25.871-2.158,62.786-27.123,78.803-38.823
	c3.5-2.557,7.402-4.477,11.599-5.708l97.414-28.575c6.139-1.801,11.269-6.132,14.074-11.883
	C418.759,155.708,419.017,149.396,416.718,143.604z M213.077,285.795c0.98-0.204,1.978-0.307,2.966-0.307
	c5.136,0,9.835,2.714,12.57,7.261c7.381,12.267,0.343,32.395-6.861,47.12c-3.813,7.792-8.082,14.928-11.533,20.3
	c1.66-15.342,4.257-41.356,4.257-53.946c0-10.796-4.504-15.654-8.815-17.83C207.843,287.35,210.413,286.349,213.077,285.795z
	 M260.594,163.132c6.907-3.947,19.357-9.314,26.163-12.163c3.92-1.641,8.049-2.681,12.272-3.094l69.723-3.9
	c7.387-0.413,14.406-3.303,19.935-8.175l0.849,5.092c0.289,1.735-0.129,3.469-1.176,4.883c-1.048,1.414-2.585,2.318-4.329,2.547
	l-72.596,9.521c-6.304,0.827-12.434,3.119-17.727,6.63c-16.718,11.087-29.997,17.856-36.434,18.571
	c-2.95,0.328-6.235,0.93-9.714,1.567c-4.247,0.778-8.831,1.616-13.74,2.168c-0.207-5.04-1.588-11.951-2.51-16.089
	C237.893,169.978,252.174,167.944,260.594,163.132z M193.077,96.302c12.55,21.618,21.246,42.773,26.303,56.609
	c-7.746,0.466-24.617,3.027-42.969,15.643c-17.405,11.967-17.259,31.79-15.336,43.391c-15.066-13.113-28.473-27.094-34.246-33.278
	c-1.59-1.703-2.637-3.836-2.998-6.138c-0.329-2.097-0.675-4.228-1.037-6.387c-0.764-4.556-0.336-9.272,1.455-13.529
	c1.351-3.21,3.521-6.269,6.994-7.377c1.185-0.378,2.097-1.389,2.159-2.631c0.114-2.268-1.97-3.716-3.898-3.111
	c-4.866,1.521-7.969,5.11-9.952,8.976c-4.246-21.248-10.094-43.866-18.094-63.903c-0.602-1.507-2.274-2.4-3.81-1.876
	c-1.639,0.56-2.455,2.368-1.82,3.955c0.805,2.011,1.585,4.052,2.346,6.113C75.213,72.835,76.668,23.842,77.432,11.491
	c5.156,0.432,10.555,1.095,16.205,2.006C140.478,21.052,173.567,62.697,193.077,96.302z M125.857,186.411
	c3.997,4.206,9.58,9.93,16.089,16.184l-13.705,3.634C127.634,200.465,126.852,193.765,125.857,186.411z M9.88,72.361
	c-4.88-11.511-6.773-29.808,3.954-43.492c10.282-13.117,29.997-19.135,57.6-17.779c-0.4,6.128-0.961,20.659,1.177,36.735
	c3.649,27.43,13.631,46.233,28.896,54.504c18.276,55.605,22.414,122.508,22.603,125.743c-0.059,2.329-0.461,18.844-0.572,39.78
	c-12.874,3.583-36.554-1.435-43.932-3.169c0.252-24.122,2.467-54.011,2.499-54.434c0.044-0.577-0.081-1.154-0.357-1.661
	C81.116,207.429,18.428,92.521,9.88,72.361z M199.634,393.883c0.091,0.274-0.064,0.429-0.114,0.48l-8.531,8.531
	c-6.507,6.507-38.664,5.791-83.918-1.867c-4.36-0.738-7.378-4.891-6.727-9.258c1.264-8.468,2.77-20.591,2.77-30.251
	c0-9.502-5.658-23.997-11.647-39.344c-4.701-12.044-9.562-24.498-10.887-33.108c-0.668-4.346-0.951-10.82-0.991-18.219
	c6.493,1.485,20.201,4.241,32.498,4.241c4.072,0,7.98-0.313,11.429-1.064c-0.079,35.297,0.775,79.814,5.298,91.571
	c2.985,7.763,13.356,14.227,31.703,19.762c14.471,4.365,30.487,7.021,38.746,8.216C199.339,393.584,199.544,393.613,199.634,393.883
	z M170.777,375.519c6.006,2.497,11.361,5.828,15.997,9.902c-24.765-4.642-48.623-12.263-52.361-21.981
	c-1.111-2.888-1.991-8.202-2.681-15.177C138.782,355.883,151.812,367.633,170.777,375.519z M189.866,293.08
	c-9.826,7.019-23.231,9.474-35.853,6.568c-10.866-2.501-19.755-8.684-24.52-17.001c-0.051-20.084,0.244-39.937,0.618-54.546
	c0.002-0.08,0.001-0.16-0.004-0.24c-0.012-0.217-0.346-6.043-1.259-15.586l18.222-4.831c17.911,16.678,40.864,35.204,57.451,38.522
	c1.15,0.23,2.343,0.378,3.568,0.468C207.938,255.034,206.117,281.472,189.866,293.08z M410.601,158.746
	c-2.067,4.238-5.848,7.43-10.371,8.756l-97.414,28.575c-4.862,1.427-9.388,3.654-13.448,6.621
	c-7.664,5.598-22.962,16.273-39.314,24.867c-19.286,10.136-34.621,14.465-44.356,12.518c-10.386-2.077-23.92-11.058-36.984-21.696
	c-1.495-4.676-8.856-31.168,11.096-44.887c11.892-8.175,23.113-11.725,30.433-13.264c5.082-1.069,9.033-1.343,11.243-1.401
	c2.049,5.941,3.112,9.579,3.221,9.959c1.274,5.143,2.994,13.713,3.144,18.485c-8.821,0.461-18.581-0.317-29.243-4.08
	c-1.563-0.551-3.276,0.269-3.827,1.831c-0.552,1.563,0.268,3.276,1.831,3.828c20.879,7.369,38.887,4.068,52.032,1.659
	c3.371-0.618,6.556-1.202,9.294-1.506c9.564-1.063,26.535-11.21,39.088-19.534c4.535-3.008,9.788-4.973,15.189-5.681l72.597-9.521
	c3.372-0.442,6.345-2.191,8.37-4.924c2.024-2.733,2.832-6.086,2.272-9.441l-1.413-8.48c-0.178-1.067,0.494-1.643,0.792-1.842
	c0.304-0.204,1.119-0.615,2.065-0.024c5.118,3.199,9.366,7.576,12.628,13.012c0.643,1.071,1.186,2.163,1.616,3.245
	C412.81,150.021,412.618,154.612,410.601,158.746z"/>
<g>
</g>
<g>
</g>
<g>
</g>
<g>
</g>
<g>
</g>
<g>
</g>
<g>
</g>
<g>
</g>
<g>
</g>
<g>
</g>
<g>
</g>
<g>
</g>
<g>
</g>
<g>
</g>
<g>
</g>
</svg>
