<?xml version="1.0" encoding="iso-8859-1"?>
<!-- Generator: Adobe Illustrator 18.0.0, SVG Export Plug-In . SVG Version: 6.00 Build 0)  -->
<!DOCTYPE svg PUBLIC "-//W3C//DTD SVG 1.1//EN" "http://www.w3.org/Graphics/SVG/1.1/DTD/svg11.dtd">
<svg version="1.1" id="Capa_1" xmlns="http://www.w3.org/2000/svg" xmlns:xlink="http://www.w3.org/1999/xlink" x="0px" y="0px"
	 viewBox="0 0 439.829 439.829" style="enable-background:new 0 0 439.829 439.829;" xml:space="preserve">
<path d="M439.79,340.728c-0.196-1.208-1.107-2.176-2.302-2.445c-1.22-0.275-27.743-6.2-43.157-6.475
	c2.584-4.548,4.043-9.36,4.043-13.901c0-10.456-7.533-21.294-15-27.397c-9.252-7.564-26.109-15.397-53.871-9.761
	c-5.272,1.07-9.073,5.536-9.246,10.861c-0.232,7.154,0.052,14.188,0.243,17.764l-11.895,3.499l-1.767-68.896
	c-0.147-5.695,0.651-11.37,2.372-16.868c1.963-6.274,4.559-15.296,5.784-22.641c2.025-12.149,9.017-50.149,9.464-52.577
	l5.069-18.831c1.633-6.067,1.633-12.458-0.001-18.524l-0.831-3.085c-1.12-4.157-4.468-7.468-8.715-8.176
	c-2.204-0.367-4.393-0.05-6.321,0.857L284.697,84.48c-4.116-2.792-9.772-2.753-13.938,0.657c-1.196,0.979-2.148,2.218-2.889,3.575
	c-6.014,11.009-16.832,30.315-22.527,37.434c-3.631,4.539-9.519,9.792-15.751,15.353c-7.785,6.947-15.835,14.13-20.264,20.714
	c-8.752,13.012-9.508,20.433-10.174,26.981c-0.272,2.671-0.529,5.193-1.333,7.966c-1.668,5.75-4.415,11.018-8.167,15.658
	l-28.377,35.098c0,0-9.793,10.88-12.029,13.179c-8.745-11.468-41.34-53.198-57.605-59.895c-8.62-3.55-16.675-1.502-23.294,5.92
	c-4.302,4.824-7.023,10.979-7.871,17.8c-6.274,50.459-12.409,85.838-15.63,90.131c-1.199,1.599-7.514,6.879-40.168,21.34
	c-3.912,1.733-5.709,5.983-4.081,10.186c1.145,2.955,4.088,4.826,7.257,4.826H7.89l50.143-0.201c4.991,0.201,9.166-3.517,9.55-8.499
	l0.86-11.189c0.477-6.19,2.1-12.183,4.824-17.81c5.885-12.154,14.874-32.084,18.564-47.42c10.146,23.912,22.966,41.04,26.315,45.317
	c-0.582,4.403-0.292,8.671,1.193,12.632c10.465,27.906,27.858,31.485,41.842,31.485c8.179,0,21.78-1.588,33.781-2.989
	c10.07-1.175,19.582-2.286,24.239-2.286c4.024,0,13.315,1.029,23.15,2.118c13.977,1.548,29.571,3.275,39.444,3.275
	c1.5,0,2.87-0.04,4.08-0.126c12.009-0.857,16.761-5.113,18.543-7.63l24.796-3.814c3.315,2.239,13.794,8.288,30.292,8.288
	c1.724,0,3.417-0.134,5.08-0.365c5.707,2.359,15.165,5.164,27.861,5.164c23.208,0,45.016-13.023,45.933-13.577
	C439.429,343.143,439.987,341.936,439.79,340.728z M233.586,145.976c6.426-5.734,12.495-11.15,16.441-16.083
	c6.013-7.517,17.122-27.343,23.209-38.493c0.84-1.539,2.292-2.57,4.048-2.858c1.466-0.241,2.967,0.172,4.197,1.006l27.546,18.69
	l-6.902,9.338c-4.527-0.095-17.296,0.19-27.395,5.698c-6.852,3.738-17.62,22.86-29.755,47.065
	c-6.744-7.442-16.955-11.66-23.002-13.639C225.514,153.183,229.584,149.548,233.586,145.976z M272.256,280.737
	c-6.109-0.52-19.63-0.096-28.292,12.042c-8.916,0.232-34.702,2.03-45.505,2.802c6.588-16.403,28.837-71.962,31.965-82.007
	c1.741-3.266,4.533-9.047,8.042-16.315c10.078-20.872,31.049-64.302,39.138-68.714c7.635-4.165,17.464-4.89,22.499-4.962
	c-0.944,6.832-2.434,22.034,1.365,31.066c-1.126,4.048-3.304,11.523-5.792,20.063c-6.063,20.809-13.608,46.707-15.065,53.994
	C279.523,234.144,275.731,258.271,272.256,280.737z M67.867,311.091c-3.053,6.306-4.872,13.023-5.406,19.965l-0.86,11.188
	c-0.136,1.748-1.631,3.05-3.36,2.962c-0.053-0.002-0.104-0.002-0.159-0.003l-50.214,0.201c-0.004,0-0.008,0-0.011,0
	c-1.345,0-1.708-1.02-1.803-1.458c-0.094-0.439-0.179-1.521,1.057-2.068c37.61-16.655,41.319-21.601,42.539-23.226
	c3.485-4.647,7.774-28.489,11.441-53.341c4.781,3.375,13,8.069,21.728,8.069c0.255,0,0.511-0.015,0.766-0.023
	C79.067,287.281,71.763,303.044,67.867,311.091z M93.328,253.608c-0.488-1.376-1.9-2.197-3.336-1.953
	c-1.439,0.248-2.491,1.496-2.491,2.956c0,3.446-0.794,7.79-2.075,12.563c-9.649,1.498-19.916-5.886-23.353-8.644
	c1.671-11.735,3.174-23.328,4.361-32.87c0.696-5.606,2.907-10.636,6.395-14.546c4.905-5.499,10.314-6.926,16.53-4.366
	c15.077,6.208,48.237,48.956,55.715,58.774c-8.815,9.629-20.456,24.225-25.134,38.437
	C113.874,295.543,101.588,276.888,93.328,253.608z M124.957,322.128c-4.419-11.785,5.125-28.147,13.909-39.797
	c6.705-8.892,14.021-16.453,18.055-20.417c1.902-1.869,11.263-12.997,11.263-12.997l26.136-32.326
	c4.256-5.264,7.373-11.239,9.263-17.759c0.956-3.296,1.253-6.211,1.54-9.029c0.624-6.133,1.27-12.475,9.184-24.24
	c0.863-1.283,1.909-2.614,3.081-3.976c4.702,1.318,18.099,5.726,24.662,14.633c-2.941,5.948-5.948,12.136-8.987,18.43
	c-3.573,7.401-6.396,13.247-8.064,16.343c-0.096,0.179-0.174,0.366-0.231,0.56c-2.742,9.141-26.897,69.397-32.509,83.364
	c-0.711,1.77-1.837,5-1.837,5l-5.004,15.841c-0.499,1.58,0.377,3.266,1.957,3.765c0.301,0.095,0.605,0.14,0.904,0.14
	c1.273,0,2.456-0.818,2.859-2.097l4.991-15.802c1.324-0.095,3.237-0.232,5.548-0.396c-1.376,8.76-6.696,32.184-25.351,47.385
	c-5.854,0.57-11.208,0.967-15.146,0.967C147.742,349.719,134.051,346.377,124.957,322.128z M219.202,344.445
	c-5.006,0-14.687,1.13-24.935,2.326c-2.604,0.304-5.284,0.616-7.964,0.919c16.285-17.086,20.516-39.227,21.517-46.752
	c13.405-0.928,32.532-2.185,37.754-2.185c1.024,0,1.978-0.523,2.529-1.386c6.839-10.718,18.059-11.173,23.241-10.732
	c-1.021,6.621-1.989,12.929-2.822,18.37c-3.952,2.292-14.953,9.632-17.755,21.719c-1.583,6.834-0.273,13.923,3.879,21.14
	c-3.964-0.415-7.911-0.852-11.634-1.264C232.574,345.444,223.558,344.445,219.202,344.445z M285.449,349.727
	c-5.12,0.364-13.797-0.217-23.154-1.098c-5.242-7.218-7.162-14.116-5.689-20.518c1.565-6.805,6.657-11.918,10.682-15.027
	c-0.825,5.402-1.369,8.984-1.47,9.647c-0.249,1.638,0.877,3.168,2.516,3.417c1.63,0.25,3.168-0.876,3.416-2.515
	c0.561-3.679,12.386-81.954,14.744-93.751c1.407-7.034,9.23-33.886,14.942-53.492c2.731-9.371,5.089-17.464,6.111-21.213
	c0.193-0.707,0.125-1.452-0.204-2.107c-3.829-7.627-2.052-24.495-0.914-31.219l7.414-10.03c0.17-0.231,0.353-0.46,0.553-0.666
	c2.267-2.334,4.285-2.02,4.707-1.94c1.832,0.346,3.215,1.627,3.7,3.428l0.932,3.459c1.355,5.038,1.355,10.362,0,15.4l-4.813,17.878
	c0,0-0.327,1.227-0.342,1.307c-0.074,0.401-7.414,40.257-9.503,52.796c-1.169,7.007-3.686,15.742-5.593,21.836
	c-1.917,6.128-2.807,12.458-2.644,18.814l1.864,72.698c-0.234,7.47-2.783,27.454-11.678,32.128
	C289.453,349.3,287.612,349.573,285.449,349.727z M331.843,338.773c-0.655-0.524-1.497-0.749-2.33-0.623l-25.825,3.973
	c3.578-8.447,4.613-18.448,4.907-22.994l15.89-4.673c1.353-0.398,2.246-1.685,2.146-3.091c-0.007-0.098-0.691-9.879-0.378-19.561
	c0.083-2.533,1.91-4.661,4.443-5.175c25.455-5.166,40.632,1.784,48.881,8.527c8.84,7.226,12.797,16.634,12.797,22.752
	c0,12.895-15.166,28.648-32.867,28.648C341.922,346.555,331.934,338.844,331.843,338.773z M392.449,351.354
	c-6.977,0-12.859-0.91-17.583-2.099c5.977-2.637,11.167-6.656,15.143-11.315c0.272-0.025,0.547-0.061,0.817-0.077
	c9.17-0.584,26.75,2.507,37.123,4.559C419.891,346.17,406.249,351.354,392.449,351.354z"/>
<g>
</g>
<g>
</g>
<g>
</g>
<g>
</g>
<g>
</g>
<g>
</g>
<g>
</g>
<g>
</g>
<g>
</g>
<g>
</g>
<g>
</g>
<g>
</g>
<g>
</g>
<g>
</g>
<g>
</g>
</svg>
