<?xml version="1.0" encoding="iso-8859-1"?>
<!-- Generator: Adobe Illustrator 18.0.0, SVG Export Plug-In . SVG Version: 6.00 Build 0)  -->
<!DOCTYPE svg PUBLIC "-//W3C//DTD SVG 1.1//EN" "http://www.w3.org/Graphics/SVG/1.1/DTD/svg11.dtd">
<svg version="1.1" id="Capa_1" xmlns="http://www.w3.org/2000/svg" xmlns:xlink="http://www.w3.org/1999/xlink" x="0px" y="0px"
	 viewBox="0 0 458.47 458.47" style="enable-background:new 0 0 458.47 458.47;" xml:space="preserve">
<path d="M405.089,215.832c-6.389-7.389-15.538-12.316-23.115-12.51c-1.781-1.13-5.243-3.073-9.109-3.877
	c-0.927-0.193-1.873-0.29-2.812-0.29c-4.876,0-9.32,2.548-11.889,6.815c-2.356,3.916-2.922,8.654-2.379,13.663
	c-0.942,1.204-1.792,2.386-2.524,3.519c-1.222,1.875-3.229,3.026-5.403,3.203l-0.483-7.408c1.282-3.342,6.414-18.075,2.942-31.462
	c-1.772-6.833-1.682-14.262,0.262-21.483c6.422-23.853,15.958-66.876,18.728-79.494c0.704-3.205,0.914-6.489,0.625-9.759
	l-2.296-26.022c-0.087-0.991-0.221-1.978-0.4-2.957l-0.585-3.196c-0.041-0.223-0.09-0.445-0.148-0.665l-4.221-16.038
	c-0.413-1.571-1.96-2.669-3.551-2.339c-1.696,0.353-2.73,2.048-2.295,3.702l3.589,13.636l-2.666-0.889l-6.345-10.876
	c-0.819-1.403-2.603-2.048-4.047-1.304c-1.54,0.794-2.083,2.703-1.221,4.181l5.891,10.099l-1.748,1.923L341.763,35.7
	c-0.898-1.139-2.493-1.576-3.781-0.909c-1.733,0.898-2.146,3.083-0.999,4.537l8.815,11.176l-0.87,0.957l-8.688-6.319
	c-1.314-0.955-3.207-0.828-4.23,0.435c-1.091,1.346-0.819,3.313,0.564,4.318l10.223,7.435l5.772,17.317
	c1.014,3.04,0.959,6.369-0.154,9.374c-6.141,16.575-16.325,46.164-15.538,58.103c0.132,1.995-0.181,4.071-0.928,6.171
	c-0.971,2.726-2.221,5.961-3.544,9.386c-5.068,13.117-10.769,27.873-10.22,36.621c-3.935,3.49-18.544,15.149-34.119,11.257
	c-18.437-4.609-48.059-23.637-50.868-25.459l-57.106-53.592c-4.617-4.333-8.559-9.32-11.715-14.821
	c-6.652-11.597-20.042-33.173-34.97-47.391c-19.792-18.85-38.033-37.941-39.762-39.755L77.456,7.863
	c-4.764-6.519-13.102-9.356-20.853-7.095l-4.568,1.332c-2.819,0.822-5.145,2.974-5.904,5.81c-0.751,2.802,0.009,5.719,2.029,7.799
	l25.721,26.478c1.663,1.711,3.535,3.192,5.566,4.399c8.712,5.18,15.122,9.847,17.587,12.804c2.178,2.614,5.005,10.067,7.499,16.643
	c2.92,7.699,5.679,14.97,8.501,18.356c4.736,5.683,21.07,20.412,23.908,22.96l52.374,98.067
	c-6.701,6.043-11.977,15.437-11.977,30.052c0,34.945,5.109,74.546,5.921,80.62c-1.615,4.098-8.859,23.295-7.912,35.61
	c0.593,7.711,3.832,21.218,6.69,33.135c2.013,8.396,3.915,16.326,4.32,19.966c0.679,6.116-0.102,17.256-0.627,23.351
	c-0.331,3.823,2.122,7.329,5.831,8.336c9.762,2.651,25.732,6.519,35.809,6.519c2.297,0,4.29-0.201,5.831-0.664
	c6.38-1.914,11.241-5.976,14.224-9.091c1.159-1.21,1.795-2.869,1.604-4.534c-0.288-2.513-2.16-4.456-4.551-4.897
	c-26.856-4.942-33.093-15.405-34.365-18.494c-6.455-15.676-0.191-66.368,0.185-69.34l16.322-72.969l48.737,10.309
	c2.445,1.175,16.196,7.475,27.817,6.32c5.515,5.861,12.233,9.971,15.244,11.658c0.371,7.925,2.115,40.242,6.258,50.764
	c0.356,0.904,0.6,1.857,0.725,2.831c2.262,17.645,10.722,57.181,17.049,68.563c1.603,11.549,1.137,18.598-1.462,22.141
	c-0.737,1.005-0.91,2.348-0.241,3.4c1.227,1.927,3.775,1.889,4.993,0.265c1.718-2.291,2.811-5.218,3.315-9.021
	c1.174,0.242,2.63,0.613,4.226,1.179l-2.852,13.311c-0.307,1.432,0.397,2.946,1.752,3.5c0.39,0.159,0.78,0.232,1.162,0.232
	c1.384,0,2.629-0.964,2.931-2.372l2.575-12.015c1.831,1.136,3.639,2.568,5.249,4.38l8,9c0.593,0.667,1.416,1.007,2.243,1.007
	c0.681,0,1.365-0.231,1.924-0.699c1.303-1.091,1.331-3.153,0.202-4.423l-7.885-8.87c-6.343-7.136-14.832-9.51-19.211-10.287
	c-0.042-3.461-0.392-7.456-1.057-12.112c-0.056-0.395-0.183-0.788-0.389-1.13c-5.417-8.99-14.164-48.021-16.572-66.809
	c-0.188-1.466-0.556-2.902-1.093-4.267c-4.267-10.835-5.906-50.127-5.922-50.523c-0.044-1.092-0.679-2.073-1.656-2.562
	c-0.09-0.045-8.661-4.383-15.124-11.247c0.785-3.745,3.726-14.47,12.345-19.392c6.294-3.594,14.519-3.468,24.467,0.362
	c0.094,7.998,0.184,38.417-3.536,52.933c-0.931,3.637-1.165,7.305-0.695,10.905c1.032,7.89,1.992,17.35,2.616,23.896
	c0.375,3.942,1.421,7.593,3.109,10.853c1.129,2.18,2.476,5.922,2.476,11.372c0,2.06-0.113,4.576-0.233,7.24
	c-0.531,11.842-1.259,28.061,5.677,39.333c7.586,12.327,13.172,20.67,21.374,24.185c0.385,0.165,0.786,0.244,1.18,0.244
	c1.285,0,2.501-0.831,2.89-2.189c0.419-1.463-0.411-3.003-1.806-3.612c-5.997-2.617-10.577-8.852-18.528-21.772
	c-5.97-9.7-5.29-24.855-4.793-35.92c0.122-2.732,0.238-5.313,0.238-7.508c0-6.659-1.712-11.361-3.148-14.132
	c-1.333-2.574-2.162-5.488-2.464-8.662c-0.628-6.594-1.596-16.129-2.64-24.105c-0.371-2.839-0.183-5.745,0.558-8.638
	c4.485-17.501,3.728-54.943,3.693-56.528c0,0,0-0.001,0-0.001c-0.042-1.013,0.746-1.87,1.759-1.876l7.824-0.049l3.675,4.494
	c2.299,2.804,5.704,4.314,9.158,4.314c1.847,0,3.708-0.432,5.422-1.328c11.717-6.127,31.73-18.427,34.114-31.967
	C413.597,230.585,411.039,222.716,405.089,215.832z M363.306,209.064c1.473-2.448,3.996-3.909,6.748-3.909
	c0.529,0,1.064,0.055,1.589,0.165c0.816,0.17,1.618,0.413,2.381,0.694c-2.413,2.039-4.16,5.471-4.16,10.747
	c0,6.554,1.132,18.946,2.102,28.352C365.198,233.644,358.153,217.629,363.306,209.064z M323.459,197.591
	c0.696-0.696,1.007-1.689,0.831-2.658c-1.231-6.77,5.093-23.138,9.711-35.09c1.338-3.463,2.602-6.735,3.6-9.536
	c1.024-2.875,1.449-5.761,1.263-8.578c-0.514-7.792,5.16-28.585,15.177-55.624c1.585-4.282,1.664-9.025,0.22-13.356l-5.521-16.561
	l7.504-8.254l5.279,1.76l2.434,27.583c0.235,2.663,0.064,5.336-0.509,7.945c-2.763,12.586-12.273,55.494-18.662,79.221
	c-2.214,8.222-2.309,16.711-0.276,24.549c3.348,12.909-2.879,28.174-2.941,28.325c-0.178,0.426-0.255,0.888-0.225,1.349l0.508,7.791
	c-19.439,0.037-30.914-11.958-35.274-17.677c1.57-0.677,3.142-1.44,4.712-2.31C318.577,202.436,323.263,197.787,323.459,197.591z
	 M117.643,90.549c-2.178-2.614-5.005-10.067-7.499-16.644c-2.92-7.699-5.679-14.97-8.501-18.356
	c-3.947-4.736-13.68-10.88-19.13-14.12c-1.577-0.938-3.034-2.089-4.329-3.423L52.463,11.528c-0.768-0.791-0.633-1.701-0.539-2.056
	c0.093-0.355,0.425-1.214,1.483-1.522l4.875-1.422c5.31-1.55,11.066,0.411,14.329,4.875L84.916,28.24
	c0.076,0.104,0.159,0.203,0.248,0.296c0.19,0.2,19.292,20.284,40.106,40.106c9.975,9.5,19.302,22.528,26.247,33.394
	c-2.68,4.747-8.716,8.317-11.673,9.852C135.295,107.781,121.646,95.354,117.643,90.549z M242.625,439.579
	c-2.502,2.513-6.327,5.571-11.149,7.018c-4.872,1.46-19.564-0.798-38.343-5.898c-0.906-0.246-1.506-1.1-1.426-2.03
	c0.545-6.316,1.349-17.902,0.612-24.53c-0.446-4.012-2.3-11.747-4.448-20.703c-2.806-11.7-5.985-24.96-6.542-32.195
	c-0.01-0.129-0.013-0.265-0.02-0.397c3.543,1.255,8.914,2.718,14.744,2.718c2.119,0,4.296-0.201,6.465-0.669
	c-1.472,17.605-2.598,43.443,2.046,54.72C210.244,431.405,230.508,437.265,242.625,439.579z M204.41,344.815
	c-0.02,0.089-0.036,0.179-0.047,0.269c-0.08,0.613-0.643,5.023-1.269,11.456c-8.239,2.598-17.606-0.453-21.511-2.013
	c1.464-11.951,7.46-26.744,7.532-26.922c0.2-0.49,0.268-1.025,0.194-1.55c-0.06-0.428-5.971-43.226-5.971-80.585
	c0-25.874,18.724-32.721,29.884-34.5c1.636-0.261,2.751-1.798,2.49-3.435c-0.26-1.637-1.8-2.751-3.435-2.49
	c-4.494,0.716-11.537,2.469-18.126,6.694l-50.714-94.961c3.131-1.704,8.103-4.859,11.536-9.203c1.598,2.622,3.009,5.024,4.199,7.099
	c3.452,6.017,7.762,11.471,12.813,16.21l55.752,52.321c-3.729,8.861-17.104,45.063-6.483,86.31L204.41,344.815z M316.886,260.96
	c-10.339,5.93-13.974,17.752-15.088,22.783c-10.636,0.692-23.978-5.886-24.12-5.957c-0.228-0.113-0.471-0.198-0.719-0.251
	l-50.173-10.613c-9.059-36.699,1.961-69.856,5.94-80c8.53,5.382,33.031,20.245,49.885,24.459c5.712,1.427,11.832,1.238,18.076-0.504
	c4.027,5.753,17.272,21.592,41.022,21.592c0.175,0,0.359-0.015,0.535-0.017l1.797,27.562
	C333.382,256.419,324.262,256.731,316.886,260.96z M406.381,236.95c-1.416,8.042-12.709,18.136-30.985,27.692
	c-2.414,1.262-5.425,0.643-7.158-1.471l-4.58-5.6c-0.57-0.697-1.422-1.101-2.323-1.101h-0.019l-11.489,0.072l-1.579-24.207
	c3.597-0.254,6.9-1.963,9.187-4.763c4.503,15.238,15.75,30.402,16.463,31.352c0.58,0.773,1.477,1.2,2.401,1.2h0.043
	c1.128,0,2.215-0.608,2.675-1.639c0.319-0.715,0.37-1.422,0.22-2.054c-0.382-3.302-3.375-29.451-3.375-39.67
	c0-5.951,2.754-7.2,5.063-7.2c0.036,0,0.814,0.071,1.851,0.167c2.947,0.273,5.83,1.095,8.427,2.513
	c3.384,1.847,6.701,4.457,9.345,7.516C403.3,222.937,407.713,229.4,406.381,236.95z"/>
<g>
</g>
<g>
</g>
<g>
</g>
<g>
</g>
<g>
</g>
<g>
</g>
<g>
</g>
<g>
</g>
<g>
</g>
<g>
</g>
<g>
</g>
<g>
</g>
<g>
</g>
<g>
</g>
<g>
</g>
</svg>
