<?xml version="1.0" encoding="iso-8859-1"?>
<!-- Generator: Adobe Illustrator 18.0.0, SVG Export Plug-In . SVG Version: 6.00 Build 0)  -->
<!DOCTYPE svg PUBLIC "-//W3C//DTD SVG 1.1//EN" "http://www.w3.org/Graphics/SVG/1.1/DTD/svg11.dtd">
<svg version="1.1" id="Capa_1" xmlns="http://www.w3.org/2000/svg" xmlns:xlink="http://www.w3.org/1999/xlink" x="0px" y="0px"
	 viewBox="0 0 454.158 454.158" style="enable-background:new 0 0 454.158 454.158;" xml:space="preserve">
<path d="M446.771,276.823c-0.677-2.278-2.541-4-4.866-4.495c-2.352-0.499-4.795,0.326-6.366,2.16c-0.21,0.245-0.413,0.49-0.61,0.733
	c-0.719-3.891-1.771-7.332-2.718-9.953c-0.694-1.919-2.556-3.185-4.566-3.122c-2.037,0.052-3.806,1.397-4.4,3.349
	c-6.89,22.589-15.947,38.053-24.229,41.367c-13.017,5.201-83.555-2.152-110.145-5.485c-2.483-0.946-16.309-5.925-30.392-5.098
	c-4.409,0.262-8.808-0.256-13.065-1.539c-19.224-5.787-62.65-11.523-74.578-13.033c0.607-5.405,1.48-17.284-0.394-31.132
	c-1.798-13.29-7.87-38.676-9.164-44.02c1.471-3.705,5.886-16.76-0.707-25.991c-6.63-9.288-53.242-22.547-66.116-26.064
	l-9.022-26.464l4.324-6.848c2.509-3.976,1.513-9.273-2.299-12.085c-11.38-8.398-38.032-28.062-60.263-13.991
	c-12.372,7.831-20.37,20.456-21.945,34.64c-1.121,10.099,1.405,19.324,6.759,24.677c3.464,3.465,7.222,6.452,11.04,8.856
	c-2.09,5.412-4.175,13.432-4.175,23.91c0,20.955,11.742,40.643,12.242,41.471c0.549,0.909,1.529,1.449,2.567,1.449
	c0.159,0,0.32-0.013,0.482-0.039c0.046-0.007,0.088-0.023,0.133-0.032c-6.546,17.821-13.191,36.706-14.772,44.047
	c-0.229,1.062-0.679,2.1-1.337,3.084c-5.631,8.417-9.756,26.857-13.394,43.125c-1.251,5.596-2.434,10.88-3.568,15.256
	c-3.034,11.719,0.14,19.032,3.335,23.103c2.316,2.95,5.808,4.671,9.578,4.721c10.957,0.138,38.018-0.179,52.5-6.31
	c0.764-0.323,1.359-0.948,1.646-1.727c0.286-0.777,0.238-1.64-0.134-2.381c-2.608-5.202-13.85-7.125-32.054-9.673
	c-5.636-0.789-11.426-1.6-14.83-2.461c0.265-2.175,0.915-4.564,1.849-7.131c1.497,1.742,3.536,3.196,6.085,4.281
	c3.972,1.691,7.893,1.98,8.058,1.992c0.049,0.003,0.098,0.005,0.146,0.006c0.322,0.007,2.372,0.046,5.461,0.046
	c9.919,0,30.539-0.402,38.987-3.57c0.984-0.369,1.703-1.227,1.896-2.26c0.192-1.034-0.17-2.093-0.956-2.791
	c-5.74-5.103-33.554-10.009-43.66-11.651l-0.001-16.93c0.32-0.573,0.638-1.135,0.96-1.715c9.135-16.442,10.733-31.667,10.99-35.242
	l25.61-44.517c0.726,0.797,1.572,1.734,2.514,2.789c0.028,0.033,0.059,0.067,0.089,0.1c17.842,20.022,29.233,36.34,31.258,44.773
	c1.986,8.279,1.915,16.517,1.824,26.946c-0.086,9.865-0.184,21.047,1.442,35.362c1.062,9.355,4.767,16.567,11.011,21.441
	c10.25,7.996,23.723,6.753,25.516,6.547l135.596-3.052c6.105-0.143,12.165,1.155,18.009,3.841c5.605,2.578,11.722,3.885,18.18,3.885
	c15.704,0,90.572-10.687,98.367-13.512c2.983-1.086,7.053-0.469,11.765,0.251c3.133,0.478,6.373,0.971,9.794,1.042
	c5.244,0.157,9.835-3.545,10.886-8.689C456.231,326.953,452.406,295.804,446.771,276.823z M401.243,312.432
	c12.688-5.077,21.717-26.658,26.538-41.385c1.023,3.549,1.917,7.912,2.008,12.497c0.009,0.476-0.018,0.949-0.071,1.422
	c-0.654,5.855-5.264,38.597-26.405,39.681c-14.513,0.749-49.015-1.487-76.213-3.566l0.122-9.493
	c17.34,1.622,37.044,3.068,52.162,3.067C389.292,314.656,397.236,314.033,401.243,312.432z M11.213,130.413
	c1.372-12.362,8.367-23.381,19.19-30.232c18.765-11.88,43.1,6.08,53.524,13.772c1.263,0.931,1.594,2.701,0.755,4.03l-11.106,16.883
	c-0.824,1.209-0.759,2.877,0.281,3.906c0.606,0.6,1.371,0.884,2.126,0.884c0.959,0,1.901-0.458,2.481-1.311l2.762-4.052
	l8.063,23.648c0.323,0.947,1.095,1.669,2.062,1.93c8.041,2.168,17.969,5.082,27.618,8.213c1.738,0.564,3.099,1.988,3.472,3.777
	c0.003,0.012,0.005,0.024,0.007,0.036c0.103,0.515-0.211,1.029-0.714,1.18c-1.393,0.416-5.125,0.777-14.315-1.636
	c-6.288-1.653-12.275-3.867-14.11-4.564c-2.423-2.508-5.076-4.537-7.838-5.916c-4.948-2.477-12.745-2.993-22.508,7.627l-6.66-7.011
	c-0.969-1.019-2.514-1.23-3.719-0.506c-11.729,7.037-26.458-1.012-36.335-10.889C12.235,146.17,10.305,138.594,11.213,130.413z
	 M32.477,218.159c-3.312-7.296-7.604-19.05-7.604-30.965c0-9.105,1.698-16.122,3.481-20.984c1.139,0.539,2.275,1.031,3.4,1.446
	c2.717,7.079,4.325,13.324,4.635,18.102C36.905,193.709,34.316,208.756,32.477,218.159z M42.377,185.37
	c-0.292-4.497-1.501-9.836-3.578-15.903c5.25,0.737,10.236,0.037,14.729-2.098l5.584,5.878c-4.854,6.464-8.525,13.711-10.438,18.642
	c-0.108,0.276-4.678,12.095-10.189,26.854C40.372,209.029,42.928,193.87,42.377,185.37z M70.981,332.655
	c-10.901,1.367-26.599,1.457-33.36,1.325c-0.793-0.073-9.036-0.955-11.017-5.956c-0.338-0.854-0.265-1.816,0.142-2.64
	c1.844-3.732,4.031-7.722,6.385-11.917l0,8.843c0,1.481,1.077,2.738,2.54,2.965C46.717,326.989,61.757,329.924,70.981,332.655z
	 M78.313,214.249c-0.651-0.689-1.587-1.032-2.533-0.922c-0.942,0.11-1.777,0.661-2.251,1.483l-28,48.67
	c-0.241,0.42-0.378,0.893-0.397,1.377c-0.006,0.16-0.742,16.155-10.284,33.332c-1.476,2.654-2.936,5.236-4.353,7.743
	c-8.584,15.176-15.364,27.162-15.364,37.044c0,1.212,0.728,2.304,1.847,2.77c3.348,1.393,10.271,2.362,18.289,3.485
	c6.12,0.857,17.085,2.392,23.214,4.258c-14.729,3.923-37.037,3.982-44.262,3.89c-1.947-0.025-3.747-0.909-4.938-2.426
	c-2.359-3.006-4.665-8.551-2.246-17.894c1.16-4.472,2.352-9.805,3.615-15.45c3.35-14.977,7.519-33.615,12.525-41.1
	c1.082-1.617,1.827-3.353,2.216-5.157c2.813-13.059,23.824-68.311,28.876-81.291c1.866-4.811,5.897-12.698,11.119-19.099
	c0.003-0.004,0.006-0.008,0.009-0.011c4.576-5.616,11.309-11.665,17.396-8.622c5.648,2.82,10.836,9.146,13.876,16.92
	c3.017,7.713,3.31,15.334,0.783,20.385c-4.087,8.174-11.717,12.984-15.239,14.863C79.854,215.887,78.386,214.327,78.313,214.249z
	 M86.301,223.104c4.517-2.587,12.106-7.97,16.515-16.785c3.321-6.643,3.116-15.847-0.563-25.254
	c-0.757-1.937-1.643-3.796-2.625-5.564c6.183,1.992,13.424,3.831,19.108,3.831c3.681,0,6.708-0.771,8.365-2.771
	c1.188-1.433,1.617-3.207,1.304-5.302c13.571,4.734,24.975,9.559,27.283,12.792c5.569,7.799-0.231,20.888-0.289,21.015
	c-0.279,0.612-0.344,1.302-0.184,1.956c0.073,0.299,7.351,30.086,9.281,44.358c2.074,15.334,0.566,28.423,0.122,31.668
	c-3.01,3.558-20.038,22.456-46.182,28.05c-0.143-5.453-0.101-10.425-0.06-15.092c0.09-10.411,0.168-19.403-1.99-28.398
	C113.538,255.739,97.325,235.7,86.301,223.104z M306.455,354.641c-6.354-2.921-12.953-4.399-19.629-4.399
	c-0.34,0-0.681,0.004-1.021,0.012l-135.744,3.055c-0.106,0.002-0.218,0.011-0.323,0.024c-0.125,0.015-12.502,1.524-21.252-5.333
	c-4.906-3.845-7.835-9.686-8.707-17.361c-0.547-4.821-0.891-9.28-1.107-13.462c27.598-5.501,45.532-24.44,50.05-29.686
	c9.241,1.162,55.613,7.17,74.961,12.996c4.933,1.485,10.031,2.082,15.148,1.783c13.858-0.819,28.042,4.768,28.185,4.824
	c0.236,0.094,0.485,0.158,0.737,0.19c3.527,0.444,16.94,2.099,33.475,3.729l-0.124,9.604c-16.133-1.267-28.651-2.383-30.983-2.593
	c-2.57-0.921-16.994-5.926-29.108-6.78c-4.233-0.299-8.155-1.192-11.656-2.656c-17.564-7.342-60.95-18.538-79.322-17.942
	c-1.656,0.053-2.955,1.439-2.901,3.095c0.053,1.656,1.459,2.946,3.095,2.901c17.621-0.552,59.713,10.333,76.815,17.481
	c4.104,1.716,8.662,2.761,13.549,3.105c12.207,0.861,27.684,6.508,27.839,6.565c0.245,0.091,0.503,0.148,0.764,0.172
	c1.6,0.146,19.233,1.74,40.613,3.352l-1.831,30.385c-2.418,0.178-4.406,0.276-5.847,0.276
	C316.543,357.977,311.27,356.855,306.455,354.641z M447.062,341.868c-0.471,2.304-2.53,3.895-4.882,3.892
	c-3.029-0.064-6.072-0.527-9.016-0.976c-5.294-0.807-10.296-1.569-14.718,0.042c-5.953,2.157-58.399,9.844-84.429,12.352
	l1.773-29.419c21.544,1.572,45.605,3.034,60.594,3.034c2.736,0,5.175-0.049,7.235-0.154c24.672-1.265,30.665-33.962,31.893-43.541
	c0.202-1.578,0.716-3.091,1.533-4.456c0.732-1.224,1.745-2.726,3.051-4.252c0.188-0.219,0.41-0.224,0.56-0.194
	c0.282,0.061,0.341,0.26,0.363,0.334C446.448,296.818,450.172,326.633,447.062,341.868z"/>
<g>
</g>
<g>
</g>
<g>
</g>
<g>
</g>
<g>
</g>
<g>
</g>
<g>
</g>
<g>
</g>
<g>
</g>
<g>
</g>
<g>
</g>
<g>
</g>
<g>
</g>
<g>
</g>
<g>
</g>
</svg>
